<?xml version="1.0" encoding="UTF-8" standalone="no"?>
<!-- Created with Inkscape (http://www.inkscape.org/) -->

<svg
   xmlns:dc="http://purl.org/dc/elements/1.1/"
   xmlns:cc="http://creativecommons.org/ns#"
   xmlns:rdf="http://www.w3.org/1999/02/22-rdf-syntax-ns#"
   xmlns:svg="http://www.w3.org/2000/svg"
   xmlns="http://www.w3.org/2000/svg"
   xmlns:sodipodi="http://sodipodi.sourceforge.net/DTD/sodipodi-0.dtd"
   xmlns:inkscape="http://www.inkscape.org/namespaces/inkscape"
   width="744.09448819"
   height="1052.3622047"
   id="svg6524"
   version="1.1"
   inkscape:version="0.48.2 r9819"
   sodipodi:docname="heartBeat.svg">
  <defs
     id="defs6526" />
  <sodipodi:namedview
     id="base"
     pagecolor="#ffffff"
     bordercolor="#666666"
     borderopacity="1.0"
     inkscape:pageopacity="0.0"
     inkscape:pageshadow="2"
     inkscape:zoom="2.8"
     inkscape:cx="53.112926"
     inkscape:cy="934.28571"
     inkscape:document-units="px"
     inkscape:current-layer="layer1"
     showgrid="false"
     inkscape:window-width="1920"
     inkscape:window-height="1028"
     inkscape:window-x="-8"
     inkscape:window-y="-8"
     inkscape:window-maximized="1" />
  <metadata
     id="metadata6529">
    <rdf:RDF>
      <cc:Work
         rdf:about="">
        <dc:format>image/svg+xml</dc:format>
        <dc:type
           rdf:resource="http://purl.org/dc/dcmitype/StillImage" />
        <dc:title></dc:title>
      </cc:Work>
    </rdf:RDF>
  </metadata>
  <g
     inkscape:label="Layer 1"
     inkscape:groupmode="layer"
     id="layer1">
    <path
       style="fill:#000000;fill-opacity:1;fill-rule:evenodd;stroke:#000000;stroke-width:0.2;stroke-linecap:butt;stroke-linejoin:miter;stroke-miterlimit:4;stroke-opacity:1;stroke-dasharray:none"
       d="M122.756-0.001c-9.793,0-17.878,7.286-19.144,16.732H81.748L72.14,7.949h-9.557l9.608,8.783H38.462 C37.197,7.285,29.112-0.001,19.32-0.001C8.649-0.001,0,8.648,0,19.318c0,10.67,8.649,19.319,19.32,19.319 c9.792,0,17.877-7.286,19.142-16.732h33.885l-9.764,8.926h9.557l9.764-8.926h21.709c1.266,9.446,9.351,16.732,19.144,16.732 c10.669,0,19.318-8.648,19.318-19.319C142.074,8.648,133.425-0.001,122.756-0.001z"
       id="rect5671"
       inkscape:connector-curvature="0"
       sodipodi:nodetypes="cccsccccccscssccccsscccccccsccccccccccsccc" />
  </g>
</svg>
