<?xml version="1.0" encoding="UTF-8" standalone="no"?>
<!-- Generator: Adobe Illustrator 15.1.0, SVG Export Plug-In . SVG Version: 6.00 Build 0)  -->

<svg
   xmlns:dc="http://purl.org/dc/elements/1.1/"
   xmlns:cc="http://creativecommons.org/ns#"
   xmlns:rdf="http://www.w3.org/1999/02/22-rdf-syntax-ns#"
   xmlns:svg="http://www.w3.org/2000/svg"
   xmlns="http://www.w3.org/2000/svg"
   xmlns:sodipodi="http://sodipodi.sourceforge.net/DTD/sodipodi-0.dtd"
   xmlns:inkscape="http://www.inkscape.org/namespaces/inkscape"
   version="1.1"
   x="0px"
   y="0px"
   width="32px"
   height="32px"
   viewBox="0 0 32 32"
   style="enable-background:new 0 0 32 32;"
   xml:space="preserve"
   id="svg3162"
   inkscape:version="0.48.2 r9819"
   sodipodi:docname="configure.svg"><metadata
   id="metadata3178"><rdf:RDF><cc:Work
       rdf:about=""><dc:format>image/svg+xml</dc:format><dc:type
         rdf:resource="http://purl.org/dc/dcmitype/StillImage" /><dc:title></dc:title></cc:Work></rdf:RDF></metadata><defs
   id="defs3176" /><sodipodi:namedview
   pagecolor="#ffffff"
   bordercolor="#666666"
   borderopacity="1"
   objecttolerance="10"
   gridtolerance="10"
   guidetolerance="10"
   inkscape:pageopacity="0"
   inkscape:pageshadow="2"
   inkscape:window-width="1920"
   inkscape:window-height="1028"
   id="namedview3174"
   showgrid="false"
   inkscape:zoom="7.375"
   inkscape:cx="16"
   inkscape:cy="16"
   inkscape:window-x="-8"
   inkscape:window-y="-8"
   inkscape:window-maximized="1"
   inkscape:current-layer="svg3162" />
<g
   id="Layer_1">
</g>
<g
   id="equalizer"
   transform="matrix(0.625,0,0,0.625,0,0.06546607)">
	<g
   id="g3166">
		<path
   style="fill:#4e4e50"
   d="M 2.5 0.0625 C 1.81125 0.0625 1.25 0.621875 1.25 1.3125 L 1.25 7.5625 L 0 7.5625 L 0 10.0625 L 1.25 10.0625 L 1.25 18.8125 C 1.25 19.503125 1.81125 20.0625 2.5 20.0625 C 3.193125 20.0625 3.75 19.503125 3.75 18.8125 L 3.75 10.0625 L 5 10.0625 L 5 7.5625 L 3.75 7.5625 L 3.75 1.3125 C 3.75 0.621875 3.193125 0.0625 2.5 0.0625 z M 10 0.0625 C 9.3112496 0.0625 8.75 0.621875 8.75 1.3125 L 8.75 12.5625 L 7.5 12.5625 L 7.5 15.0625 L 8.75 15.0625 L 8.75 18.8125 C 8.75 19.503125 9.3112496 20.0625 10 20.0625 C 10.693125 20.0625 11.25 19.503125 11.25 18.8125 L 11.25 15.0625 L 12.5 15.0625 L 12.5 12.5625 L 11.25 12.5625 L 11.25 1.3125 C 11.25 0.621875 10.693125 0.0625 10 0.0625 z M 17.5 0.0625 C 16.81125 0.0625 16.25 0.621875 16.25 1.3125 L 16.25 5.0625 L 15 5.0625 L 15 7.5625 L 16.25 7.5625 L 16.25 18.8125 C 16.25 19.503125 16.81125 20.0625 17.5 20.0625 C 18.193125 20.0625 18.75 19.503125 18.75 18.8125 L 18.75 7.5625 L 20 7.5625 L 20 5.0625 L 18.75 5.0625 L 18.75 1.3125 C 18.75 0.621875 18.193125 0.0625 17.5 0.0625 z "
   transform="matrix(1.6,0,0,1.6,0,-0.10474571)"
   id="path3168" />
		
		
	</g>
</g>
</svg>