<?xml version="1.0" encoding="UTF-8" standalone="no"?>
<!-- Created with Inkscape (http://www.inkscape.org/) -->

<svg
   xmlns:dc="http://purl.org/dc/elements/1.1/"
   xmlns:cc="http://creativecommons.org/ns#"
   xmlns:rdf="http://www.w3.org/1999/02/22-rdf-syntax-ns#"
   xmlns:svg="http://www.w3.org/2000/svg"
   xmlns="http://www.w3.org/2000/svg"
   xmlns:sodipodi="http://sodipodi.sourceforge.net/DTD/sodipodi-0.dtd"
   xmlns:inkscape="http://www.inkscape.org/namespaces/inkscape"
   width="45"
   height="45"
   id="svg4387"
   version="1.1"
   inkscape:version="0.48.4 r9939"
   sodipodi:docname="conveyorFromIcon3.svg">
  <defs
     id="defs4389" />
  <sodipodi:namedview
     id="base"
     pagecolor="#ffffff"
     bordercolor="#666666"
     borderopacity="1.0"
     inkscape:pageopacity="0.0"
     inkscape:pageshadow="2"
     inkscape:zoom="7.2780295"
     inkscape:cx="-13.927761"
     inkscape:cy="4.53888"
     inkscape:document-units="px"
     inkscape:current-layer="layer1"
     showgrid="false"
     fit-margin-top="0"
     fit-margin-left="0"
     fit-margin-right="0"
     fit-margin-bottom="0"
     inkscape:window-width="1920"
     inkscape:window-height="1028"
     inkscape:window-x="-8"
     inkscape:window-y="-8"
     inkscape:window-maximized="1"
     showguides="true"
     inkscape:guide-bbox="true" />
  <metadata
     id="metadata4392">
    <rdf:RDF>
      <cc:Work
         rdf:about="">
        <dc:format>image/svg+xml</dc:format>
        <dc:type
           rdf:resource="http://purl.org/dc/dcmitype/StillImage" />
        <dc:title />
      </cc:Work>
    </rdf:RDF>
  </metadata>
  <g
     inkscape:label="Layer 1"
     inkscape:groupmode="layer"
     id="layer1"
     transform="translate(-307.06344,-304.88808)">
    <path
       style="font-size:medium;font-style:normal;font-variant:normal;font-weight:normal;font-stretch:normal;text-indent:0;text-align:start;text-decoration:none;line-height:normal;letter-spacing:normal;word-spacing:normal;text-transform:none;direction:ltr;block-progression:tb;writing-mode:lr-tb;text-anchor:start;baseline-shift:baseline;color:#000000;fill:#000000;fill-opacity:1;stroke:none;stroke-width:1;marker:none;visibility:visible;display:inline;overflow:visible;enable-background:accumulate;font-family:Sans;-inkscape-font-specification:Sans"
       d="M 3.84375 7.96875 L 3.84375 12.96875 L 11.8125 12.96875 L 11.8125 7.96875 L 3.84375 7.96875 z M 14.5 7.96875 L 14.5 12.96875 L 21.71875 12.96875 L 21.71875 7.96875 L 14.5 7.96875 z M 24.40625 7.96875 L 24.40625 12.96875 C 26.56604 13.04375 28.748 12.77747 30.875 13.21875 C 30.9638 13.27965 31.0485 13.32485 31.125 13.34375 C 31.66033 13.47604 31.92055 12.67158 32.3125 12.34375 C 33.14619 11.36523 33.96486 10.37277 34.8125 9.40625 C 33.10963 8.47469 31.22771 8.06585 29.3125 7.96875 C 28.67411 7.93635 28.01221 7.94005 27.375 7.96875 L 24.40625 7.96875 z M 36.96875 10.9375 C 35.93732 12.2354 34.85866 13.49517 33.8125 14.78125 C 35.47879 16.4379 35.989 18.85994 36.125 21.125 L 41.15625 21.125 C 40.96837 17.40215 39.73596 13.55212 36.96875 10.9375 z M 25.5 17.03125 C 22.06039 17.28204 19.66715 21.22772 20.9375 24.40625 C 21.6447 26.5757 23.83014 27.92025 26.03125 27.96875 C 27.03175 27.99075 28.04021 27.74601 28.90625 27.1875 C 31.81296 25.5732 32.42359 21.22445 30.125 18.84375 C 29.12469 17.70448 27.65524 17.08605 26.15625 17.03125 C 25.94212 17.02325 25.71403 17.01565 25.5 17.03125 z M 36.15625 23.8125 C 35.95709 26.0369 35.35409 28.41963 33.5625 29.90625 C 34.62494 31.17713 35.6826 32.45204 36.75 33.71875 C 39.51158 31.19459 40.91594 27.49244 41.15625 23.8125 L 36.15625 23.8125 z M 31.25 31.375 C 29.90267 31.9119 28.47114 32.0812 27.03125 32 L 24.40625 32 L 24.40625 37 C 25.10302 36.992 25.79656 37.02525 26.5 37.03125 C 28.61032 37.04915 30.73636 36.98755 32.71875 36.15625 C 33.20004 35.77814 35.20052 35.60403 34.15625 34.8125 C 33.18615 33.66784 32.22774 32.5131 31.25 31.375 z M 8 32 L 8 37 L 11.5625 37 L 11.5625 32 L 8 32 z M 14.25 32 L 14.25 37 L 21.71875 37 L 21.71875 32 L 14.25 32 z "
       transform="translate(307.06344,304.88808)"
       id="path5979" />
    <g
       id="g6711"
       transform="translate(-0.53435272,0.1943127)" />
    <g
       id="g6707"
       transform="translate(-1.3601889,0.1943127)" />
    <g
       id="g6795"
       transform="translate(0,-0.22807865)" />
  </g>
</svg>
