<?xml version="1.0" encoding="UTF-8" standalone="no"?>
<!-- Created with Inkscape (http://www.inkscape.org/) -->

<svg
   xmlns:dc="http://purl.org/dc/elements/1.1/"
   xmlns:cc="http://creativecommons.org/ns#"
   xmlns:rdf="http://www.w3.org/1999/02/22-rdf-syntax-ns#"
   xmlns:svg="http://www.w3.org/2000/svg"
   xmlns="http://www.w3.org/2000/svg"
   xmlns:sodipodi="http://sodipodi.sourceforge.net/DTD/sodipodi-0.dtd"
   xmlns:inkscape="http://www.inkscape.org/namespaces/inkscape"
   width="45"
   height="45"
   id="svg4387"
   version="1.1"
   inkscape:version="0.48.4 r9939"
   sodipodi:docname="conveyorFromIcon3.svg">
  <defs
     id="defs4389" />
  <sodipodi:namedview
     id="base"
     pagecolor="#ffffff"
     bordercolor="#666666"
     borderopacity="1.0"
     inkscape:pageopacity="0.0"
     inkscape:pageshadow="2"
     inkscape:zoom="7.2780295"
     inkscape:cx="-13.927761"
     inkscape:cy="4.53888"
     inkscape:document-units="px"
     inkscape:current-layer="layer1"
     showgrid="false"
     fit-margin-top="0"
     fit-margin-left="0"
     fit-margin-right="0"
     fit-margin-bottom="0"
     inkscape:window-width="1920"
     inkscape:window-height="1028"
     inkscape:window-x="-8"
     inkscape:window-y="-8"
     inkscape:window-maximized="1"
     showguides="true"
     inkscape:guide-bbox="true" />
  <metadata
     id="metadata4392">
    <rdf:RDF>
      <cc:Work
         rdf:about="">
        <dc:format>image/svg+xml</dc:format>
        <dc:type
           rdf:resource="http://purl.org/dc/dcmitype/StillImage" />
        <dc:title></dc:title>
      </cc:Work>
    </rdf:RDF>
  </metadata>
  <g
     inkscape:label="Layer 1"
     inkscape:groupmode="layer"
     id="layer1"
     transform="translate(-307.06344,-304.88808)">
    <path
       style="font-size:medium;font-style:normal;font-variant:normal;font-weight:normal;font-stretch:normal;text-indent:0;text-align:start;text-decoration:none;line-height:normal;letter-spacing:normal;word-spacing:normal;text-transform:none;direction:ltr;block-progression:tb;writing-mode:lr-tb;text-anchor:start;baseline-shift:baseline;color:#000000;fill:#000000;fill-opacity:1;stroke:none;stroke-width:1;marker:none;visibility:visible;display:inline;overflow:visible;enable-background:accumulate;font-family:Sans;-inkscape-font-specification:Sans"
       d="m 348.21969,312.85683 0,5 -7.96875,0 0,-5 7.96875,0 z m -10.65625,0 0,5 -7.21875,0 0,-5 7.21875,0 z m -9.90625,0 0,5 c -2.15979,0.075 -4.34175,-0.19128 -6.46875,0.25 -0.0888,0.0609 -0.1735,0.1061 -0.25,0.125 -0.53533,0.13229 -0.79555,-0.67217 -1.1875,-1 -0.83369,-0.97852 -1.65236,-1.97098 -2.5,-2.9375 1.70287,-0.93156 3.58479,-1.3404 5.5,-1.4375 0.63839,-0.0324 1.30029,-0.0287 1.9375,0 l 2.96875,0 z m -12.5625,2.96875 c 1.03143,1.2979 2.11009,2.55767 3.15625,3.84375 -1.66629,1.65665 -2.1765,4.07869 -2.3125,6.34375 l -5.03125,0 c 0.18788,-3.72285 1.42029,-7.57288 4.1875,-10.1875 z m 11.46875,6.09375 c 3.43961,0.25079 5.83285,4.19647 4.5625,7.375 -0.7072,2.16945 -2.89264,3.514 -5.09375,3.5625 -1.0005,0.022 -2.00896,-0.22274 -2.875,-0.78125 -2.90671,-1.6143 -3.51734,-5.96305 -1.21875,-8.34375 1.00031,-1.13927 2.46976,-1.7577 3.96875,-1.8125 0.21413,-0.008 0.44222,-0.0156 0.65625,0 z m -10.65625,6.78125 c 0.19916,2.2244 0.80216,4.60713 2.59375,6.09375 -1.06244,1.27088 -2.1201,2.54579 -3.1875,3.8125 -2.76158,-2.52416 -4.16594,-6.22631 -4.40625,-9.90625 l 5,0 z m 4.90625,7.5625 c 1.34733,0.5369 2.77886,0.7062 4.21875,0.625 l 2.625,0 0,5 c -0.69677,-0.008 -1.39031,0.0252 -2.09375,0.0312 -2.11032,0.0179 -4.23636,-0.0437 -6.21875,-0.875 -0.48129,-0.37811 -2.48177,-0.55222 -1.4375,-1.34375 0.9701,-1.14466 1.92851,-2.2994 2.90625,-3.4375 z m 23.25,0.625 0,5 -3.5625,0 0,-5 3.5625,0 z m -6.25,0 0,5 -7.46875,0 0,-5 7.46875,0 z"
       id="path5979"
       inkscape:connector-curvature="0" />
    <g
       id="g6711"
       transform="translate(-0.53435272,0.1943127)" />
    <g
       id="g6707"
       transform="translate(-1.3601889,0.1943127)" />
    <g
       id="g6795"
       transform="translate(0,-0.22807865)" />
  </g>
</svg>
