<?xml version="1.0" encoding="UTF-8" standalone="no"?>
<svg
   xmlns:dc="http://purl.org/dc/elements/1.1/"
   xmlns:cc="http://creativecommons.org/ns#"
   xmlns:rdf="http://www.w3.org/1999/02/22-rdf-syntax-ns#"
   xmlns:svg="http://www.w3.org/2000/svg"
   xmlns="http://www.w3.org/2000/svg"
   xmlns:sodipodi="http://sodipodi.sourceforge.net/DTD/sodipodi-0.dtd"
   xmlns:inkscape="http://www.inkscape.org/namespaces/inkscape"
   version="1.1"
   id="Layer_1"
   x="0px"
   y="0px"
   width="30.16"
   height="50"
   viewBox="0 0 30.16 50"
   enable-background="new 0 0 32 32"
   xml:space="preserve"
   inkscape:version="0.48.2 r9819"
   sodipodi:docname="timePassedcyclus.svg"><metadata
   id="metadata8"><rdf:RDF><cc:Work
       rdf:about=""><dc:format>image/svg+xml</dc:format><dc:type
         rdf:resource="http://purl.org/dc/dcmitype/StillImage" /><dc:title></dc:title></cc:Work></rdf:RDF></metadata><defs
   id="defs6" /><sodipodi:namedview
   pagecolor="#ffffff"
   bordercolor="#666666"
   borderopacity="1"
   objecttolerance="10"
   gridtolerance="10"
   guidetolerance="10"
   inkscape:pageopacity="0"
   inkscape:pageshadow="2"
   inkscape:window-width="1920"
   inkscape:window-height="1028"
   id="namedview4"
   showgrid="false"
   inkscape:zoom="7.375"
   inkscape:cx="-6.1827086"
   inkscape:cy="16.000002"
   inkscape:window-x="-8"
   inkscape:window-y="-8"
   inkscape:window-maximized="1"
   inkscape:current-layer="Layer_1"
   fit-margin-top="0"
   fit-margin-left="0"
   fit-margin-right="0"
   fit-margin-bottom="0" />
<path
   d="M 15.09375 0 C 12.614456 0 10.59375 2.025857 10.59375 4.5 C 10.59375 5.969546 11.350474 7.2459437 12.4375 8.0625 C 10.442473 8.4192614 8.5796305 9.1900203 6.9375 10.25 L 6 8.96875 L 6.59375 8.5 C 6.8474737 8.3132479 6.9380391 7.94509 6.75 7.6875 L 6.1875 6.90625 C 5.9994591 6.648662 5.6000515 6.593211 5.34375 6.78125 L 2.71875 8.71875 C 2.4611617 8.9067899 2.3770359 9.2736607 2.5625 9.53125 L 3.15625 10.28125 C 3.3442899 10.538839 3.7124478 10.593002 3.96875 10.40625 L 4.5625 9.96875 L 5.5 11.25 C 2.133318 14.017794 0 18.23521 0 22.9375 C 0 31.271796 6.7555901 38 15.09375 38 C 23.426754 37.9988 30.154961 31.274372 30.15625 22.9375 C 30.15625 18.253242 28.064831 14.080295 24.71875 11.3125 L 25.65625 10 L 26.25 10.4375 C 26.505013 10.62554 26.896696 10.571378 27.09375 10.3125 L 27.625 9.53125 C 27.813038 9.2762365 27.766606 8.9380399 27.5 8.75 L 24.875 6.8125 C 24.618699 6.62446 24.255691 6.648661 24.0625 6.90625 L 23.53125 7.71875 C 23.343208 7.975052 23.357107 8.3119591 23.625 8.5 L 24.28125 8.96875 L 23.3125 10.28125 C 21.663931 9.2071037 19.765636 8.4231251 17.75 8.0625 C 18.842177 7.2446547 19.559925 5.968258 19.5625 4.5 C 19.5625 2.024568 17.56274 0 15.09375 0 z M 15.09375 1.1875 C 16.930359 1.1902 18.403674 2.664677 18.40625 4.5 C 18.40355 6.035231 17.380338 7.303693 15.96875 7.6875 L 15.96875 5.4375 L 16.71875 5.4375 C 17.035584 5.4375 17.3125 5.160584 17.3125 4.84375 L 17.3125 3.90625 C 17.3125 3.588128 17.035584 3.3125 16.71875 3.3125 L 13.4375 3.3125 C 13.119378 3.3125 12.875 3.588128 12.875 3.90625 L 12.875 4.84375 C 12.875 5.160584 13.119378 5.4375 13.4375 5.4375 L 14.25 5.4375 L 14.25 7.71875 C 12.830684 7.333654 11.782538 6.036519 11.78125 4.5 C 11.78395 2.664677 13.255851 1.190076 15.09375 1.1875 z M 15.09375 11.3125 C 21.507717 11.32538 26.678485 16.522243 26.6875 22.9375 C 26.6785 29.351469 21.507717 34.51837 15.09375 34.53125 C 8.6759175 34.518362 3.4764775 29.354045 3.46875 22.9375 C 3.4790443 16.520953 8.6759175 11.322803 15.09375 11.3125 z M 15.09375 12.46875 C 14.480687 12.46875 13.96875 12.950727 13.96875 13.5625 C 13.96875 14.174274 14.4794 14.6875 15.09375 14.6875 C 15.706811 14.6875 16.21875 14.174274 16.21875 13.5625 C 16.21875 12.950727 15.704236 12.46875 15.09375 12.46875 z M 10.3125 13.71875 C 10.169357 13.73654 9.976409 13.767116 9.84375 13.84375 C 9.3131172 14.150281 9.1596411 14.844368 9.46875 15.375 L 13.15625 24.03125 C 13.774463 25.100244 15.147181 25.459386 16.21875 24.84375 C 17.286457 24.226824 17.615638 22.85282 17 21.78125 L 11.375 14.25 C 11.146068 13.852025 10.741928 13.665381 10.3125 13.71875 z M 19.6875 13.71875 C 19.332434 13.74376 19.005691 13.918355 18.8125 14.25 C 18.507258 14.780635 18.688116 15.474719 19.21875 15.78125 C 19.745519 16.087781 20.414794 15.905634 20.71875 15.375 C 21.023994 14.845656 20.845707 14.151569 20.3125 13.84375 C 20.112547 13.7288 19.900538 13.703748 19.6875 13.71875 z M 6.9375 17.15625 C 6.5824216 17.18082 6.2236362 17.325408 6.03125 17.65625 C 5.7234298 18.189458 5.9381157 18.913507 6.46875 19.21875 C 6.9993807 19.52528 7.6622181 19.311884 7.96875 18.78125 C 8.2739929 18.249328 8.0918458 17.587781 7.5625 17.28125 C 7.3635125 17.165819 7.1505459 17.141503 6.9375 17.15625 z M 23.03125 17.15625 C 22.888187 17.17398 22.758301 17.204933 22.625 17.28125 C 22.096943 17.587781 21.910932 18.250616 22.21875 18.78125 C 22.523992 19.313172 23.22323 19.527857 23.75 19.21875 C 24.280634 18.914794 24.435394 18.189458 24.125 17.65625 C 23.894135 17.258274 23.460437 17.103061 23.03125 17.15625 z M 5.71875 21.8125 C 5.1031106 21.8125 4.625 22.327014 4.625 22.9375 C 4.62627 23.549275 5.1069752 23.997423 5.71875 24 C 6.3330986 24.0013 6.8737111 23.551851 6.875 22.9375 C 6.87238 22.32315 6.3279479 21.8125 5.71875 21.8125 z M 24.4375 21.8125 C 23.830876 21.8125 23.34375 22.327014 23.34375 22.9375 C 23.34375 23.551851 23.830876 24.002575 24.4375 24 C 25.054426 24.0026 25.53125 23.533819 25.53125 22.9375 C 25.53125 22.32315 25.042835 21.815075 24.4375 21.8125 z M 6.875 26.5 C 6.7321369 26.5176 6.6010858 26.517757 6.46875 26.59375 C 5.9381157 26.900283 5.7234309 27.596942 6.03125 28.125 C 6.3390683 28.655635 7.0006152 28.870319 7.53125 28.5625 C 8.0631708 28.255969 8.2765689 27.595709 7.96875 27.0625 C 7.738851 26.666458 7.3035837 26.447235 6.875 26.5 z M 23.125 26.5 C 22.770035 26.52527 22.410332 26.730853 22.21875 27.0625 C 21.91222 27.593134 22.091791 28.255969 22.625 28.5625 C 23.153056 28.869033 23.81718 28.65563 24.125 28.125 C 24.432819 27.594366 24.278059 26.902858 23.75 26.59375 C 23.551011 26.479767 23.33798 26.484847 23.125 26.5 z M 10.34375 29.90625 C 9.9888481 29.92844 9.660331 30.102635 9.46875 30.4375 C 9.1622191 30.970709 9.3144062 31.653203 9.84375 31.96875 C 10.375673 32.264978 11.065892 32.098286 11.375 31.5625 C 11.680243 31.025427 11.529346 30.375471 11 30.0625 C 10.800529 29.949482 10.55669 29.892938 10.34375 29.90625 z M 19.625 29.90625 C 19.482359 29.92412 19.350442 29.985872 19.21875 30.0625 C 18.688116 30.366455 18.503392 31.031867 18.8125 31.5625 C 19.117742 32.093134 19.781866 32.27657 20.3125 31.96875 C 20.843134 31.660932 21.02528 30.944612 20.71875 30.40625 C 20.487886 30.023731 20.05292 29.852638 19.625 29.90625 z M 15.09375 31.125 C 14.4794 31.125 13.96875 31.639514 13.96875 32.25 C 13.96875 32.864352 14.481976 33.375 15.09375 33.375 C 15.705524 33.375 16.21875 32.863064 16.21875 32.25 C 16.21875 31.638227 15.706813 31.125 15.09375 31.125 z "
   id="stopwatch" />
</svg>