<?xml version="1.0" encoding="UTF-8" standalone="no"?>
<!-- Created with Inkscape (http://www.inkscape.org/) -->

<svg
   xmlns:dc="http://purl.org/dc/elements/1.1/"
   xmlns:cc="http://creativecommons.org/ns#"
   xmlns:rdf="http://www.w3.org/1999/02/22-rdf-syntax-ns#"
   xmlns:svg="http://www.w3.org/2000/svg"
   xmlns="http://www.w3.org/2000/svg"
   xmlns:sodipodi="http://sodipodi.sourceforge.net/DTD/sodipodi-0.dtd"
   xmlns:inkscape="http://www.inkscape.org/namespaces/inkscape"
   width="744.09448819"
   height="1052.3622047"
   id="svg3361"
   version="1.1"
   inkscape:version="0.48.2 r9819"
   sodipodi:docname="gearPre.svg">
  <defs
     id="defs3363" />
  <sodipodi:namedview
     id="base"
     pagecolor="#ffffff"
     bordercolor="#666666"
     borderopacity="1.0"
     inkscape:pageopacity="0.0"
     inkscape:pageshadow="2"
     inkscape:zoom="2.8"
     inkscape:cx="204.42737"
     inkscape:cy="920"
     inkscape:document-units="px"
     inkscape:current-layer="layer1"
     showgrid="false"
     inkscape:window-width="1920"
     inkscape:window-height="1028"
     inkscape:window-x="-8"
     inkscape:window-y="-8"
     inkscape:window-maximized="1" />
  <metadata
     id="metadata3366">
    <rdf:RDF>
      <cc:Work
         rdf:about="">
        <dc:format>image/svg+xml</dc:format>
        <dc:type
           rdf:resource="http://purl.org/dc/dcmitype/StillImage" />
        <dc:title></dc:title>
      </cc:Work>
    </rdf:RDF>
  </metadata>
  <g
     inkscape:label="Layer 1"
     inkscape:groupmode="layer"
     id="layer1">
    <path
       style="fill:#282a1f"
       d="m 9.7200272,-0.125 c 0.22174,0.494965 0.4347228,1.01053897 0.5937498,1.53125 0.30912,0.01502 0.600357,0.00577 0.90625,0.0625 0.307807,0.04125 0.607143,0.10119 0.90625,0.1875 0.296713,-0.4453712 0.64678,-0.900984 1,-1.3125 0.718247,0.244978 1.41924,0.53635797 2.0625,0.9375 -0.08691,0.5465798 -0.19533,1.069816 -0.34375,1.59375 0.24498,0.189187 0.493923,0.380364 0.71875,0.59375 0.229007,0.208498 0.485913,0.388845 0.6875,0.625 0.491146,-0.215178 1.004574,-0.399896 1.53125,-0.5625 0.467782,0.594146 0.891754,1.220553 1.21875,1.90625 -0.366933,0.413307 -0.755818,0.798019 -1.15625,1.15625 0.104672,0.291827 0.230722,0.575782 0.3125,0.875 0.07141,0.301725 0.182034,0.597735 0.21875,0.90625 0.528938,0.0856 1.058973,0.194736 1.59375,0.34375 0.08214,0.752102 0.08226,1.529148 0,2.28125 -0.534897,0.148894 -1.064812,0.258158 -1.59375,0.34375 -0.03671,0.3084 -0.147341,0.60453 -0.21875,0.90625 -0.08202,0.299218 -0.207833,0.583053 -0.3125,0.875 0.400427,0.358351 0.789321,0.742947 1.15625,1.15625 -0.326996,0.685582 -0.750968,1.312103 -1.21875,1.90625 -0.526676,-0.162605 -1.039984,-0.347206 -1.53125,-0.5625 -0.201347,0.236036 -0.458493,0.447868 -0.6875,0.65625 -0.224827,0.213507 -0.47389,0.373309 -0.71875,0.5625 0.14842,0.524049 0.256723,1.047172 0.34375,1.59375 -0.64338,0.401147 -1.344133,0.692523 -2.0625,0.9375 -0.35322,-0.411635 -0.703287,-0.867131 -1,-1.3125 -0.2991,0.08631 -0.598563,0.146491 -0.90625,0.1875 -0.306013,0.05686 -0.59713,0.07885 -0.90625,0.09375 -0.15914,0.520831 -0.3718898,1.036405 -0.5937498,1.53125 -0.752573,-0.02538 -1.517927,-0.139901 -2.25,-0.34375 -0.072,-0.548728 -0.089097,-1.075316 -0.09375,-1.625 -0.28932,-0.111698 -0.59974,-0.199266 -0.875,-0.34375 -0.280387,-0.133516 -0.58351,-0.2681 -0.84375,-0.4375 -0.41104,0.344044 -0.854013,0.698871 -1.3125,1 -0.61632,-0.438698 -1.183233,-0.935538 -1.6875,-1.5 0.236754,-0.499734 0.49419,-0.978065 0.78125,-1.4375 -0.182033,-0.250227 -0.404307,-0.483209 -0.5625,-0.75 -0.15938,-0.26584 -0.311613,-0.52794 -0.4375,-0.8125 -0.532753,0.06819 -1.10037,0.116058 -1.65624996,0.125 -0.281574,-0.704773 -0.503527,-1.43826 -0.625,-2.1875 0.469207,-0.292307 0.95635996,-0.551766 1.43749996,-0.78125 -0.0292,-0.30804 -0.0477,-0.597495 -0.0625,-0.90625 0.0148,-0.308755 0.03343,-0.629575 0.0625,-0.9375 -0.48114,-0.2296 -0.96829296,-0.488948 -1.43749996,-0.78125 0.121473,-0.74924 0.343306,-1.482726 0.625,-2.1875 0.55587996,0.0088 1.12349696,0.056573 1.65624996,0.125 0.125887,-0.284555 0.278114,-0.54666 0.4375,-0.8125 0.158307,-0.266795 0.380227,-0.499778 0.5625,-0.75 -0.28706,-0.45944 -0.544496,-0.937766 -0.78125,-1.4375 0.50438,-0.564463 1.10243,-1.0614271 1.71875,-1.5 0.458606,0.3012439 0.90158,0.655839 1.3125,1 0.26036,-0.169521 0.532353,-0.303984 0.8125,-0.4375 0.27538,-0.144484 0.585553,-0.232167 0.875,-0.34375 0.0047,-0.5496796 0.021747,-1.076276 0.09375,-1.625 0.732193,-0.204089 1.497307,-0.287109 2.25,-0.3125 z M 10.032527,4.96875 C 9.3337822,4.9680862 8.6303572,5.1518618 8.0012772,5.4375 c -0.845206,0.382071 -1.590684,0.999823 -2.09375,1.78125 -0.509627,0.782262 -0.768017,1.72068 -0.78125,2.65625 0.01327,0.935444 0.271743,1.842502 0.78125,2.625 0.503186,0.781666 1.248664,1.430429 2.09375,1.8125 0.838774,0.380996 1.79665,0.52115 2.7187498,0.375 0.920307,-0.122672 1.79618,-0.515712 2.5,-1.125 0.70692,-0.608809 1.206004,-1.424856 1.46875,-2.3125 0.261546,-0.888476 0.261426,-1.86152 0,-2.75 -0.262746,-0.887404 -0.76195,-1.703456 -1.46875,-2.3125 -0.70382,-0.609049 -1.579693,-1.033583 -2.5,-1.15625 -0.230553,-0.036568 -0.454585,-0.062279 -0.6875,-0.0625 z m 19.5,3.09375 c 0.33261,0.742447 0.60521,1.5314343 0.84375,2.3125 0.46368,0.02253 0.94741,0.0399 1.40625,0.125 0.46171,0.06187 0.89509,0.120533 1.34375,0.25 0.44507,-0.668059 0.97017,-1.320227 1.5,-1.9375 1.077371,0.367466 2.128861,0.8045363 3.09375,1.40625 -0.13036,0.819872 -0.30862,1.62035 -0.53125,2.40625 0.36747,0.28378 0.75651,0.52367 1.09375,0.84375 0.343511,0.312746 0.697619,0.614517 1,0.96875 0.736719,-0.322767 1.522487,-0.631093 2.3125,-0.875 0.701674,0.891219 1.353256,1.846454 1.84375,2.875 -0.5504,0.61996 -1.118103,1.212654 -1.71875,1.75 0.157007,0.437741 0.314833,0.863673 0.4375,1.3125 0.107114,0.452587 0.257426,0.880977 0.3125,1.34375 0.793406,0.128394 1.604084,0.307729 2.40625,0.53125 0.123207,1.128153 0.123387,2.278097 0,3.40625 -0.802346,0.223341 -1.612844,0.402863 -2.40625,0.53125 -0.05506,0.4626 -0.205386,0.89117 -0.3125,1.34375 -0.123027,0.448827 -0.2805,0.874579 -0.4375,1.3125 0.60064,0.537526 1.168357,1.130046 1.71875,1.75 -0.490494,1.028373 -1.142076,1.95253 -1.84375,2.84375 -0.790013,-0.243907 -1.575601,-0.520809 -2.3125,-0.84375 -0.302021,0.354054 -0.656489,0.656178 -1,0.96875 -0.33724,0.320261 -0.72646,0.559963 -1.09375,0.84375 0.22263,0.786073 0.40071,1.586384 0.53125,2.40625 -0.965069,0.601721 -2.016199,1.038784 -3.09375,1.40625 -0.52983,-0.617453 -1.05493,-1.300697 -1.5,-1.96875 -0.44865,0.129461 -0.88222,0.219737 -1.34375,0.28125 -0.45902,0.08529 -0.94257,0.102647 -1.40625,0.125 -0.23871,0.781246 -0.51096,1.538983 -0.84375,2.28125 -1.12886,-0.03807 -2.27689,-0.162977 -3.375,-0.46875 -0.108,-0.823093 -0.18052,-1.612973 -0.1875,-2.4375 -0.43398,-0.167547 -0.86836,-0.283274 -1.28125,-0.5 -0.42058,-0.200274 -0.85964,-0.40215 -1.25,-0.65625 -0.61656,0.516066 -1.28102,1.017057 -1.96875,1.46875 -0.92448,-0.658047 -1.8061,-1.403306 -2.5625,-2.25 0.35513,-0.7496 0.75691,-1.435847 1.1875,-2.125 -0.27305,-0.375341 -0.60646,-0.724814 -0.84375,-1.125 -0.23907,-0.39876 -0.46742,-0.79191 -0.65625,-1.21875 -0.79913,0.102286 -1.63493,0.142838 -2.46875,0.15625 -0.42236,-1.057159 -0.75529,-2.12614 -0.9375,-3.25 0.70381,-0.43846 1.40329,-0.843274 2.125,-1.1875 -0.0438,-0.46206 -0.0403,-0.943117 -0.0625,-1.40625 0.0222,-0.463133 0.0189,-0.913113 0.0625,-1.375 -0.72171,-0.3444 -1.42119,-0.749047 -2.125,-1.1875 0.18221,-1.12386 0.51496,-2.19284 0.9375,-3.25 0.83382,0.0132 1.66962,0.05361 2.46875,0.15625 0.18883,-0.426833 0.41717,-0.81999 0.65625,-1.21875 0.23746,-0.400193 0.57034,-0.749666 0.84375,-1.125 -0.43059,-0.68916 -0.83237,-1.3754 -1.1875,-2.125 0.75657,-0.846694 1.63802,-1.59214 2.5625,-2.25 0.68791,0.451866 1.35237,0.95251 1.96875,1.46875 0.39054,-0.25428 0.82978,-0.455976 1.25,-0.65625 0.41307,-0.216726 0.84708,-0.332626 1.28125,-0.5 0.007,-0.82452 0.07949,-1.614413 0.1875,-2.4375 1.09829,-0.306133 2.24596,-0.461914 3.375,-0.5 z m 0.4375,7.6875 c -1.048118,-9.98e-4 -2.08763,0.227786 -3.03125,0.65625 -1.26781,0.573107 -2.3704,1.546609 -3.125,2.71875 -0.76444,1.173393 -1.16765,2.534146 -1.1875,3.9375 0.0199,1.403167 0.42324,2.795004 1.1875,3.96875 0.75478,1.1725 1.85737,2.145643 3.125,2.71875 1.25816,0.571494 2.67935,0.781726 4.0625,0.5625 1.38046,-0.184007 2.69427,-0.804817 3.75,-1.71875 1.060381,-0.913213 1.855881,-2.106034 2.25,-3.4375 0.39232,-1.332714 0.39214,-2.82353 0,-4.15625 -0.394119,-1.331106 -1.189799,-2.555184 -2.25,-3.46875 -1.05573,-0.913573 -2.36954,-1.5035 -3.75,-1.6875 -0.34583,-0.05485 -0.681877,-0.09342 -1.03125,-0.09375 z"
       id="path3107"
       inkscape:connector-curvature="0" />
  </g>
</svg>
