<?xml version="1.0" encoding="UTF-8" standalone="no"?>
<!-- Created with Inkscape (http://www.inkscape.org/) -->

<svg
   xmlns:dc="http://purl.org/dc/elements/1.1/"
   xmlns:cc="http://creativecommons.org/ns#"
   xmlns:rdf="http://www.w3.org/1999/02/22-rdf-syntax-ns#"
   xmlns:svg="http://www.w3.org/2000/svg"
   xmlns="http://www.w3.org/2000/svg"
   xmlns:sodipodi="http://sodipodi.sourceforge.net/DTD/sodipodi-0.dtd"
   xmlns:inkscape="http://www.inkscape.org/namespaces/inkscape"
   width="744.09448819"
   height="1052.3622047"
   id="svg6524"
   version="1.1"
   inkscape:version="0.48.2 r9819"
   sodipodi:docname="heartBeat.svg">
  <defs
     id="defs6526" />
  <sodipodi:namedview
     id="base"
     pagecolor="#ffffff"
     bordercolor="#666666"
     borderopacity="1.0"
     inkscape:pageopacity="0.0"
     inkscape:pageshadow="2"
     inkscape:zoom="2.8"
     inkscape:cx="53.112926"
     inkscape:cy="934.28571"
     inkscape:document-units="px"
     inkscape:current-layer="layer1"
     showgrid="false"
     inkscape:window-width="1920"
     inkscape:window-height="1028"
     inkscape:window-x="-8"
     inkscape:window-y="-8"
     inkscape:window-maximized="1" />
  <metadata
     id="metadata6529">
    <rdf:RDF>
      <cc:Work
         rdf:about="">
        <dc:format>image/svg+xml</dc:format>
        <dc:type
           rdf:resource="http://purl.org/dc/dcmitype/StillImage" />
        <dc:title></dc:title>
      </cc:Work>
    </rdf:RDF>
  </metadata>
  <g
     inkscape:label="Layer 1"
     inkscape:groupmode="layer"
     id="layer1">
    <path
       style="fill:#000000;fill-opacity:1;fill-rule:evenodd;stroke:#000000;stroke-width:0.2;stroke-linecap:butt;stroke-linejoin:miter;stroke-miterlimit:4;stroke-opacity:1;stroke-dasharray:none"
       d="m 21.845957,-0.0414886 c -0.32119,0.0484 -0.624,0.26975 -0.75,0.59375 l -5.09375,13.2812496 0,-8.0624996 c 0,-0.071 -0.0143,-0.1185 -0.0312,-0.1875 -0.061,-0.301 -0.2535,-0.5695 -0.5625,-0.6875 -0.48,-0.184 -1.03575,0.0522 -1.21875,0.53125 l -2.125,5.0937496 -7.3437507,0.375 0,0.84375 c -0.24,0 -0.4375,-0.1945 -0.4375,-0.4375 0,-0.239 0.1965,-0.40625 0.4375,-0.40625 l -0.28125,0 c -0.241,0 -0.4375,0.1985 -0.4375,0.4375 0,0.243 0.1975,0.4375 0.4375,0.4375 l 8.1250007,0.5625 c 0.425,0.06 0.844,-0.1465 1,-0.5625 l 0.59375,-1.375 0,8.4375 c 0,0.515 0.39225,0.9375 0.90625,0.9375 0.0529,0 0.10571,-0.0225 0.15625,-0.0312 -0.0419,-0.0129 -0.0856,-0.0204 -0.125,-0.0312 l 0.3125,0 c 0.1025,-0.0395 0.20025,-0.0873 0.28125,-0.15625 0.016,-0.012 0.0192,-0.0495 0.0312,-0.0625 0.092,-0.095 0.198,-0.21375 0.25,-0.34375 l 5.09375,-13.3124996 0,8.0937496 c 0,0.492 0.395,0.9015 0.875,0.9375 0.418,0.058 0.842,-0.17875 1,-0.59375 l 2.125,-5.0937496 7.3125,0.21875 c 0.38742,0 0.729515,-0.21494 0.906255,-0.53125 l 0,-1 c -0.17774,-0.31248 -0.521515,-0.53057 -0.906255,-0.53125 l -7.875,0.0312 c -0.399,-0.03 -0.7855,0.20175 -0.9375,0.59375 l -0.625,1.46875 0,-8.53125 c 0,-0.459 -0.34525,-0.83125 -0.78125,-0.90625 -0.1105,-0.023 -0.20544,-0.0474 -0.3125,-0.0312 z"
       id="rect5671"
       inkscape:connector-curvature="0"
       sodipodi:nodetypes="cccsccccccscssccccsscccccccsccccccccccsccc" />
  </g>
</svg>
