<?xml version="1.0" encoding="UTF-8" standalone="no"?>
<svg
   xmlns:dc="http://purl.org/dc/elements/1.1/"
   xmlns:cc="http://creativecommons.org/ns#"
   xmlns:rdf="http://www.w3.org/1999/02/22-rdf-syntax-ns#"
   xmlns:svg="http://www.w3.org/2000/svg"
   xmlns="http://www.w3.org/2000/svg"
   xmlns:sodipodi="http://sodipodi.sourceforge.net/DTD/sodipodi-0.dtd"
   xmlns:inkscape="http://www.inkscape.org/namespaces/inkscape"
   version="1.1"
   id="Your_Icon"
   x="0px"
   y="0px"
   width="21.59375"
   height="23"
   viewBox="0 0 21.59375 23"
   enable-background="new 0 0 100 100"
   xml:space="preserve"
   inkscape:version="0.48.2 r9819"
   sodipodi:docname="iconChange.svg"><metadata
   id="metadata13"><rdf:RDF><cc:Work
       rdf:about=""><dc:format>image/svg+xml</dc:format><dc:type
         rdf:resource="http://purl.org/dc/dcmitype/StillImage" /></cc:Work></rdf:RDF></metadata><defs
   id="defs11" /><sodipodi:namedview
   pagecolor="#ffffff"
   bordercolor="#666666"
   borderopacity="1"
   objecttolerance="10"
   gridtolerance="10"
   guidetolerance="10"
   inkscape:pageopacity="0"
   inkscape:pageshadow="2"
   inkscape:window-width="1920"
   inkscape:window-height="1028"
   id="namedview9"
   showgrid="false"
   fit-margin-top="0"
   fit-margin-left="0"
   fit-margin-right="0"
   fit-margin-bottom="0"
   inkscape:zoom="6.675088"
   inkscape:cx="40.26"
   inkscape:cy="-8.130873"
   inkscape:window-x="-8"
   inkscape:window-y="-8"
   inkscape:window-maximized="1"
   inkscape:current-layer="Your_Icon" />
<g
   id="g3"
   transform="matrix(0.25108622,0,0,0.25108622,-2.4455798,-1.054311)">
	<path
   d="M 11.5,0 C 10.123545,0 9,1.1240475 9,2.5 9,3.8754503 10.123545,5 11.5,5 12.311762,5 13.063476,4.5758969 13.53125,3.90625 L 13.625,3.8125 13.75,3.84375 c 3.37485,0.993046 5.71875,4.1438049 5.71875,7.65625 0,1.222539 -0.289352,2.412159 -0.84375,3.53125 l -0.125,0.25 -0.15625,-0.21875 -1.15625,-1.40625 -1.8125,6 6.21875,-0.5625 -1.625,-2 -0.09375,-0.125 0.09375,-0.09375 c 1.023678,-1.612727 1.5625,-3.474277 1.5625,-5.375 0,-4.5765484 -3.117772,-8.5505816 -7.5625,-9.6875 L 13.875,1.78125 13.84375,1.6875 C 13.49474,0.68240188 12.554813,0 11.5,0 z M 6.21875,3.34375 0,3.90625 l 1.625,2 0.09375,0.125 -0.0625,0.09375 c -1.02418067,1.6112202 -1.5625,3.4740263 -1.5625,5.375 0,4.5768 3.0862707,8.550582 7.53125,9.6875 L 7.71875,21.21875 7.75,21.3125 C 8.099512,22.317598 9.0391879,23 10.09375,23 c 1.376455,0 2.5,-1.123545 2.5,-2.5 0,-1.37545 -1.123545,-2.5 -2.5,-2.5 -0.8122639,0 -1.5634764,0.424103 -2.03125,1.09375 L 8,19.1875 7.875,19.15625 C 4.5004013,18.163957 2.125,15.013449 2.125,11.5 c 0,-1.222037 0.2898538,-2.4114055 0.84375,-3.53125 l 0.125,-0.25 0.1875,0.21875 1.125,1.40625 1.8125,-6 z"
   transform="matrix(3.9826958,0,0,3.9826958,9.7400001,4.1989988)"
   id="path5"
   inkscape:connector-curvature="0" />
	
</g>
</svg>