<?xml version="1.0" encoding="UTF-8" standalone="no"?>
<!-- Created with Inkscape (http://www.inkscape.org/) -->

<svg
   xmlns:dc="http://purl.org/dc/elements/1.1/"
   xmlns:cc="http://creativecommons.org/ns#"
   xmlns:rdf="http://www.w3.org/1999/02/22-rdf-syntax-ns#"
   xmlns:svg="http://www.w3.org/2000/svg"
   xmlns="http://www.w3.org/2000/svg"
   xmlns:sodipodi="http://sodipodi.sourceforge.net/DTD/sodipodi-0.dtd"
   xmlns:inkscape="http://www.inkscape.org/namespaces/inkscape"
   width="11.15625"
   height="30.75"
   id="svg3284"
   version="1.1"
   inkscape:version="0.48.4 r"
   sodipodi:docname="iconClampWidth2.svg">
  <defs
     id="defs3286" />
  <sodipodi:namedview
     id="base"
     pagecolor="#ffffff"
     bordercolor="#666666"
     borderopacity="1.0"
     inkscape:pageopacity="0.0"
     inkscape:pageshadow="2"
     inkscape:zoom="22.4"
     inkscape:cx="20.397347"
     inkscape:cy="17.757128"
     inkscape:document-units="px"
     inkscape:current-layer="layer1"
     showgrid="false"
     inkscape:window-width="1920"
     inkscape:window-height="1027"
     inkscape:window-x="-8"
     inkscape:window-y="-8"
     inkscape:window-maximized="1"
     fit-margin-top="0"
     fit-margin-left="0"
     fit-margin-right="0"
     fit-margin-bottom="0" />
  <metadata
     id="metadata3289">
    <rdf:RDF>
      <cc:Work
         rdf:about="">
        <dc:format>image/svg+xml</dc:format>
        <dc:type
           rdf:resource="http://purl.org/dc/dcmitype/StillImage" />
        <dc:title />
      </cc:Work>
    </rdf:RDF>
  </metadata>
  <g
     inkscape:label="Layer 1"
     inkscape:groupmode="layer"
     id="layer1"
     transform="translate(-9.7968757,9.7968751)">
    <g
       id="arrow_x5F_right"
       transform="matrix(0.21875,0,0,0.21875,0.01128628,2.0763793)" />
    <g
       id="arrow_x5F_right-7"
       transform="matrix(0,0.21875,0.21875,0,11.873255,-9.8081605)">
      <path
         style="fill:#4e4e50"
         d="M 4.6875 0 L 4.6875 3.625 L 3.3125 2.25 L 2.0625 3.5 L 5.5625 7 L 9.0625 3.5 L 7.84375 2.25 L 6.46875 3.625 L 6.46875 0 L 4.6875 0 z M 5.5625 7 L 4 7 L 4 23.75 L 5.5625 23.75 L 11.15625 23.75 L 11.15625 7 L 5.5625 7 z M 5.5625 23.75 L 2.0625 27.25 L 3.3125 28.46875 L 4.6875 27.09375 L 4.6875 30.75 L 6.46875 30.75 L 6.46875 27.09375 L 7.84375 28.46875 L 9.0625 27.25 L 5.5625 23.75 z M 0 7 L 0 23.75 L 2 23.75 L 2 7 L 0 7 z "
         transform="matrix(0,4.5714286,4.5714286,0,0.0515904,-9.4920197)"
         id="path6364-4" />
    </g>
  </g>
</svg>
