<?xml version="1.0" encoding="UTF-8" standalone="no"?>
<!-- Created with Inkscape (http://www.inkscape.org/) -->

<svg
   xmlns:dc="http://purl.org/dc/elements/1.1/"
   xmlns:cc="http://creativecommons.org/ns#"
   xmlns:rdf="http://www.w3.org/1999/02/22-rdf-syntax-ns#"
   xmlns:svg="http://www.w3.org/2000/svg"
   xmlns="http://www.w3.org/2000/svg"
   xmlns:sodipodi="http://sodipodi.sourceforge.net/DTD/sodipodi-0.dtd"
   xmlns:inkscape="http://www.inkscape.org/namespaces/inkscape"
   width="16.75"
   height="25.15625"
   id="svg6459"
   version="1.1"
   inkscape:version="0.48.4 r"
   sodipodi:docname="iconClampLength2.svg">
  <defs
     id="defs6461" />
  <sodipodi:namedview
     id="base"
     pagecolor="#ffffff"
     bordercolor="#666666"
     borderopacity="1.0"
     inkscape:pageopacity="0.0"
     inkscape:pageshadow="2"
     inkscape:zoom="11.2"
     inkscape:cx="22.587062"
     inkscape:cy="4.4524569"
     inkscape:document-units="px"
     inkscape:current-layer="layer1"
     showgrid="false"
     inkscape:window-width="1920"
     inkscape:window-height="1027"
     inkscape:window-x="-8"
     inkscape:window-y="-8"
     inkscape:window-maximized="1"
     fit-margin-top="0"
     fit-margin-left="0"
     fit-margin-right="0"
     fit-margin-bottom="0" />
  <metadata
     id="metadata6464">
    <rdf:RDF>
      <cc:Work
         rdf:about="">
        <dc:format>image/svg+xml</dc:format>
        <dc:type
           rdf:resource="http://purl.org/dc/dcmitype/StillImage" />
        <dc:title></dc:title>
      </cc:Work>
    </rdf:RDF>
  </metadata>
  <g
     inkscape:label="Layer 1"
     inkscape:groupmode="layer"
     id="layer1"
     transform="translate(-4.1718753,4.203125)">
    <g
       id="arrow_x5F_right"
       transform="matrix(0.21875,0,0,0.21875,0.06725453,5.07734)" />
    <g
       id="arrow_x5F_right-7"
       transform="matrix(0,0.21875,0.21875,0,9.2492153,-4.3016295)">
      <path
         style="fill:#4e4e50"
         d="M 7.5 0 L 7.5 3.625 L 6.125 2.25 L 4.875 3.5 L 8.375 7 L 11.875 3.5 L 10.65625 2.25 L 9.28125 3.625 L 9.28125 0 L 7.5 0 z M 8.375 7 L 0 7 L 0 14.15625 L 16.75 14.15625 L 16.75 7 L 8.375 7 z M 0 16.15625 L 0 18.15625 L 8.375 18.15625 L 16.75 18.15625 L 16.75 16.15625 L 0 16.15625 z M 8.375 18.15625 L 4.875 21.65625 L 6.125 22.875 L 7.5 21.5 L 7.5 25.15625 L 9.28125 25.15625 L 9.28125 21.5 L 10.65625 22.875 L 11.875 21.65625 L 8.375 18.15625 z "
         transform="matrix(0,4.5714286,4.5714286,0,0.45030629,-23.210697)"
         id="path6364-4" />
    </g>
  </g>
</svg>
