<?xml version="1.0" encoding="UTF-8" standalone="no"?>
<!-- Created with Inkscape (http://www.inkscape.org/) -->

<svg
   xmlns:dc="http://purl.org/dc/elements/1.1/"
   xmlns:cc="http://creativecommons.org/ns#"
   xmlns:rdf="http://www.w3.org/1999/02/22-rdf-syntax-ns#"
   xmlns:svg="http://www.w3.org/2000/svg"
   xmlns="http://www.w3.org/2000/svg"
   xmlns:sodipodi="http://sodipodi.sourceforge.net/DTD/sodipodi-0.dtd"
   xmlns:inkscape="http://www.inkscape.org/namespaces/inkscape"
   width="744.09448819"
   height="1052.3622047"
   id="svg6459"
   version="1.1"
   inkscape:version="0.48.2 r9819"
   sodipodi:docname="iconClampLength.svg">
  <defs
     id="defs6461" />
  <sodipodi:namedview
     id="base"
     pagecolor="#ffffff"
     bordercolor="#666666"
     borderopacity="1.0"
     inkscape:pageopacity="0.0"
     inkscape:pageshadow="2"
     inkscape:zoom="11.2"
     inkscape:cx="26.758937"
     inkscape:cy="1021.5758"
     inkscape:document-units="px"
     inkscape:current-layer="layer1"
     showgrid="false"
     inkscape:window-width="1920"
     inkscape:window-height="1028"
     inkscape:window-x="-8"
     inkscape:window-y="-8"
     inkscape:window-maximized="1" />
  <metadata
     id="metadata6464">
    <rdf:RDF>
      <cc:Work
         rdf:about="">
        <dc:format>image/svg+xml</dc:format>
        <dc:type
           rdf:resource="http://purl.org/dc/dcmitype/StillImage" />
        <dc:title></dc:title>
      </cc:Work>
    </rdf:RDF>
  </metadata>
  <g
     inkscape:label="Layer 1"
     inkscape:groupmode="layer"
     id="layer1">
    <g
       id="arrow_x5F_right"
       transform="matrix(0.21875,0,0,0.21875,0.06725453,5.07734)" />
    <g
       id="arrow_x5F_right-7"
       transform="matrix(-0.21875,0,0,0.21875,25.223505,5.07734)">
      <path
         style="fill:#4e4e50"
         d="M 6.96875 0 L 6.96875 2 L 18.125 2 L 18.125 0 L 6.96875 0 z M 6.96875 4 L 6.96875 8.375 L 6.96875 16.75 L 18.125 16.75 L 18.125 8.375 L 18.125 4 L 6.96875 4 z M 18.125 8.375 L 21.625 11.875 L 22.875 10.65625 L 21.5 9.28125 L 25.125 9.28125 L 25.125 7.5 L 21.5 7.5 L 22.875 6.125 L 21.625 4.875 L 18.125 8.375 z M 6.96875 8.375 L 3.46875 4.875 L 2.25 6.125 L 3.625 7.5 L -0.03125 7.5 L -0.03125 9.28125 L 3.625 9.28125 L 2.25 10.65625 L 3.46875 11.875 L 6.96875 8.375 z "
         transform="matrix(-4.5714286,0,0,4.5714286,115.30745,-23.210697)"
         id="path6364-4" />
    </g>
  </g>
</svg>
