<?xml version="1.0" encoding="UTF-8" standalone="no"?>
<!-- Generator: Adobe Illustrator 15.1.0, SVG Export Plug-In . SVG Version: 6.00 Build 0)  -->

<svg
   xmlns:dc="http://purl.org/dc/elements/1.1/"
   xmlns:cc="http://creativecommons.org/ns#"
   xmlns:rdf="http://www.w3.org/1999/02/22-rdf-syntax-ns#"
   xmlns:svg="http://www.w3.org/2000/svg"
   xmlns="http://www.w3.org/2000/svg"
   xmlns:sodipodi="http://sodipodi.sourceforge.net/DTD/sodipodi-0.dtd"
   xmlns:inkscape="http://www.inkscape.org/namespaces/inkscape"
   version="1.1"
   x="0px"
   y="0px"
   width="31.996px"
   height="32px"
   viewBox="0 0 31.996 32"
   style="enable-background:new 0 0 31.996 32;"
   xml:space="preserve"
   id="svg4425"
   inkscape:version="0.48.2 r9819"
   sodipodi:docname="loading-sun.svg"><metadata
   id="metadata4453"><rdf:RDF><cc:Work
       rdf:about=""><dc:format>image/svg+xml</dc:format><dc:type
         rdf:resource="http://purl.org/dc/dcmitype/StillImage" /><dc:title /></cc:Work></rdf:RDF></metadata><defs
   id="defs4451" /><sodipodi:namedview
   pagecolor="#ffffff"
   bordercolor="#666666"
   borderopacity="1"
   objecttolerance="10"
   gridtolerance="10"
   guidetolerance="10"
   inkscape:pageopacity="0"
   inkscape:pageshadow="2"
   inkscape:window-width="1920"
   inkscape:window-height="1028"
   id="namedview4449"
   showgrid="false"
   inkscape:zoom="7.375"
   inkscape:cx="15.998"
   inkscape:cy="16"
   inkscape:window-x="-8"
   inkscape:window-y="-8"
   inkscape:window-maximized="1"
   inkscape:current-layer="svg4425" />
<g
   id="Layer_1">
</g>
<g
   id="sun_x5F_fill"
   transform="matrix(1.874993,0,0,1.874993,1.4495742e-7,-0.07022231)">
	<g
   id="g4429">
		<path
   style="fill:#4e4e50"
   d="M 17.5 -0.03125 C 16.287045 -0.03125 15.3125 0.94766962 15.3125 2.15625 C 15.3125 3.3648304 16.287045 4.34375 17.5 4.34375 C 18.705299 4.34375 19.6875 3.3648304 19.6875 2.15625 C 19.6875 0.94766962 18.705299 -0.03125 17.5 -0.03125 z M 6.5625 4.34375 C 5.3543904 4.34375 4.375 5.3231395 4.375 6.53125 C 4.375 7.7393586 5.3543904 8.71875 6.5625 8.71875 C 7.7706094 8.71875 8.75 7.7393586 8.75 6.53125 C 8.75 5.3231395 7.7706094 4.34375 6.5625 4.34375 z M 28.4375 4.34375 C 27.877779 4.34375 27.333355 4.5739885 26.90625 5 C 26.052041 5.8563974 26.052041 7.2039163 26.90625 8.0625 C 27.760461 8.9145212 29.145791 8.9145212 30 8.0625 C 30.86296 7.2104788 30.86296 5.8542093 30 5 C 29.572895 4.5718003 28.997221 4.34375 28.4375 4.34375 z M 17.5 8.71875 C 12.663491 8.71875 8.75 12.636617 8.75 17.46875 C 8.75 22.300884 12.663491 26.21875 17.5 26.21875 C 22.327757 26.21875 26.25 22.300884 26.25 17.46875 C 26.25 12.636617 22.327757 8.71875 17.5 8.71875 z M 2.1875 15.28125 C 0.97454455 15.28125 1.4456029e-019 16.260169 0 17.46875 C 0 18.679517 0.97454455 19.65625 2.1875 19.65625 C 3.3927991 19.65625 4.375 18.679517 4.375 17.46875 C 4.375 16.260171 3.3927991 15.28125 2.1875 15.28125 z M 32.8125 15.28125 C 31.59845 15.28125 30.625 16.255795 30.625 17.46875 C 30.625 18.676235 31.611574 19.65625 32.8125 19.65625 C 34.025454 19.6585 35.013125 18.679517 35 17.46875 C 35.013125 16.260171 34.013422 15.28125 32.8125 15.28125 z M 6.5625 26.21875 C 5.3543904 26.21875 4.375 27.198138 4.375 28.40625 C 4.375 29.614359 5.3543904 30.59375 6.5625 30.59375 C 7.7706094 30.59375 8.75 29.614359 8.75 28.40625 C 8.75 27.198138 7.7706094 26.21875 6.5625 26.21875 z M 28.4375 26.21875 C 27.877779 26.21875 27.333355 26.447897 26.90625 26.875 C 26.052041 27.729209 26.052041 29.083293 26.90625 29.9375 C 27.760461 30.791711 29.145791 30.791711 30 29.9375 C 30.86296 29.083293 30.86296 27.729209 30 26.875 C 29.572895 26.447897 28.997221 26.21875 28.4375 26.21875 z M 17.5 30.59375 C 16.287045 30.59375 15.3125 31.568295 15.3125 32.78125 C 15.3125 33.989831 16.287045 34.96875 17.5 34.96875 C 18.712953 34.96875 19.6875 33.989831 19.6875 32.78125 C 19.6875 31.568295 18.712953 30.59375 17.5 30.59375 z "
   transform="matrix(0.53333532,0,0,0.53333532,-1.546224e-7,0.03745204)"
   id="path4431" />
		
		
		
		
		
		
		
		
	</g>
</g>
</svg>