<?xml version="1.0" encoding="UTF-8" standalone="no"?>
<!-- Created with Inkscape (http://www.inkscape.org/) -->

<svg
   xmlns:dc="http://purl.org/dc/elements/1.1/"
   xmlns:cc="http://creativecommons.org/ns#"
   xmlns:rdf="http://www.w3.org/1999/02/22-rdf-syntax-ns#"
   xmlns:svg="http://www.w3.org/2000/svg"
   xmlns="http://www.w3.org/2000/svg"
   xmlns:sodipodi="http://sodipodi.sourceforge.net/DTD/sodipodi-0.dtd"
   xmlns:inkscape="http://www.inkscape.org/namespaces/inkscape"
   width="20"
   height="20"
   id="svg2999"
   version="1.1"
   inkscape:version="0.48.2 r9819"
   sodipodi:docname="New document 2">
  <defs
     id="defs3001" />
  <sodipodi:namedview
     id="base"
     pagecolor="#ffffff"
     bordercolor="#666666"
     borderopacity="1.0"
     inkscape:pageopacity="0.0"
     inkscape:pageshadow="2"
     inkscape:zoom="3.959798"
     inkscape:cx="-144.28781"
     inkscape:cy="62.902503"
     inkscape:document-units="px"
     inkscape:current-layer="layer1"
     showgrid="false"
     fit-margin-top="0"
     fit-margin-left="0"
     fit-margin-right="0"
     fit-margin-bottom="0"
     inkscape:window-width="1920"
     inkscape:window-height="1028"
     inkscape:window-x="-8"
     inkscape:window-y="-8"
     inkscape:window-maximized="1" />
  <metadata
     id="metadata3004">
    <rdf:RDF>
      <cc:Work
         rdf:about="">
        <dc:format>image/svg+xml</dc:format>
        <dc:type
           rdf:resource="http://purl.org/dc/dcmitype/StillImage" />
        <dc:title></dc:title>
      </cc:Work>
    </rdf:RDF>
  </metadata>
  <g
     inkscape:label="Layer 1"
     inkscape:groupmode="layer"
     id="layer1"
     transform="translate(-489.1095,-289.5504)">
    <path
       d="M 9.78125 0 C 6.80264 0 4.40625 2.52069 4.40625 5.5 L 4.40625 7.90625 C 4.05894 8.00555 3.75 8.09375 3.75 8.09375 C 3.6724 8.11965 2.8125 8.37272 2.8125 8.90625 L 2.8125 19.3125 C 2.8125 19.75537 3.21949 20 3.75 20 L 16.25 20 C 16.77957 20 17.1875 19.75537 17.1875 19.3125 L 17.1875 8.90625 C 17.1875 8.46409 16.76162 8.2935 16.25 8.09375 C 16.25 8.09375 16.0203 8.01791 15.59375 7.90625 L 15.59375 5.5 C 15.59375 2.52069 13.19713 0 10.21875 0 L 9.78125 0 z M 10 1.96875 C 11.9218 1.96875 13.1875 3.54696 13.1875 5.46875 L 13.1875 7.46875 C 12.3125 7.36783 11.26263 7.3125 10 7.3125 C 8.7383 7.3125 7.61245 7.36787 6.8125 7.46875 L 6.8125 5.46875 C 6.8125 3.54765 8.07936 1.96875 10 1.96875 z M 10 10.28125 C 10.96404 10.28125 11.75 11.06721 11.75 12.03125 C 11.75 12.54871 11.51357 13.08716 11.15625 13.40625 L 11.75 16.90625 C 11.75 16.90625 11.23442 17.3125 10 17.3125 C 8.7665 17.3125 8.25 16.90625 8.25 16.90625 L 8.84375 13.40625 C 8.48503 13.08762 8.25 12.54941 8.25 12.03125 C 8.25 11.06698 9.03688 10.28125 10 10.28125 z "
       transform="translate(489.1095,289.5504)"
       id="path5" />
  </g>
</svg>
