<?xml version="1.0" encoding="UTF-8" standalone="no"?>
<svg
   xmlns:dc="http://purl.org/dc/elements/1.1/"
   xmlns:cc="http://creativecommons.org/ns#"
   xmlns:rdf="http://www.w3.org/1999/02/22-rdf-syntax-ns#"
   xmlns:svg="http://www.w3.org/2000/svg"
   xmlns="http://www.w3.org/2000/svg"
   xmlns:sodipodi="http://sodipodi.sourceforge.net/DTD/sodipodi-0.dtd"
   xmlns:inkscape="http://www.inkscape.org/namespaces/inkscape"
   version="1.1"
   id="Layer_1"
   x="0px"
   y="0px"
   width="20"
   height="20"
   viewBox="0 0 20 20"
   enable-background="new 0 0 100 99.987"
   xml:space="preserve"
   inkscape:version="0.48.2 r9819"
   sodipodi:docname="rotating2.svg"><metadata
   id="metadata15"><rdf:RDF><cc:Work
       rdf:about=""><dc:format>image/svg+xml</dc:format><dc:type
         rdf:resource="http://purl.org/dc/dcmitype/StillImage" /><dc:title></dc:title></cc:Work></rdf:RDF></metadata><defs
   id="defs13" /><sodipodi:namedview
   pagecolor="#ffffff"
   bordercolor="#666666"
   borderopacity="1"
   objecttolerance="10"
   gridtolerance="10"
   guidetolerance="10"
   inkscape:pageopacity="0"
   inkscape:pageshadow="2"
   inkscape:window-width="1920"
   inkscape:window-height="1028"
   id="namedview11"
   showgrid="false"
   inkscape:zoom="13.351912"
   inkscape:cx="18.752904"
   inkscape:cy="15.179666"
   inkscape:window-x="-8"
   inkscape:window-y="-8"
   inkscape:window-maximized="1"
   inkscape:current-layer="Layer_1"
   fit-margin-top="0"
   fit-margin-left="0"
   fit-margin-right="0"
   fit-margin-bottom="0" />




<path
   style="fill:#000000;fill-opacity:1;fill-rule:nonzero;stroke:none"
   d="M 10 0 C 4.4771526 0 0 4.477153 0 10 C 0 15.522847 4.4771526 20 10 20 C 15.522847 20 20 15.522847 20 10 C 20 4.477153 15.522847 0 10 0 z M 10 2.5 C 14.142136 2.5 17.5 5.857864 17.5 10 C 17.5 14.142136 14.142136 17.5 10 17.5 C 5.8578645 17.5 2.5 14.142136 2.5 10 C 2.5 5.857864 5.8578645 2.5 10 2.5 z M 5.84375 5.6875 L 5.84375 14.3125 L 7.53125 14.3125 L 7.53125 7.09375 L 9.125 14.3125 L 10.90625 14.3125 L 12.5 7.09375 L 12.5 14.3125 L 14.1875 14.3125 L 14.1875 5.6875 L 11.5625 5.6875 L 10.0625 12.4375 L 8.46875 5.6875 L 5.84375 5.6875 z "
   id="path3018" /></svg>