<?xml version="1.0" encoding="UTF-8" standalone="no"?>
<svg
   xmlns:dc="http://purl.org/dc/elements/1.1/"
   xmlns:cc="http://creativecommons.org/ns#"
   xmlns:rdf="http://www.w3.org/1999/02/22-rdf-syntax-ns#"
   xmlns:svg="http://www.w3.org/2000/svg"
   xmlns="http://www.w3.org/2000/svg"
   xmlns:sodipodi="http://sodipodi.sourceforge.net/DTD/sodipodi-0.dtd"
   xmlns:inkscape="http://www.inkscape.org/namespaces/inkscape"
   version="1.1"
   x="0px"
   y="0px"
   width="20"
   height="20"
   viewBox="0 0 20 20"
   xml:space="preserve"
   id="svg2"
   inkscape:version="0.48.2 r9819"
   sodipodi:docname="nearby.svg"><metadata
   id="metadata12"><rdf:RDF><cc:Work
       rdf:about=""><dc:format>image/svg+xml</dc:format><dc:type
         rdf:resource="http://purl.org/dc/dcmitype/StillImage" /><dc:title></dc:title></cc:Work></rdf:RDF></metadata><defs
   id="defs10" /><sodipodi:namedview
   pagecolor="#ffffff"
   bordercolor="#666666"
   borderopacity="1"
   objecttolerance="10"
   gridtolerance="10"
   guidetolerance="10"
   inkscape:pageopacity="0"
   inkscape:pageshadow="2"
   inkscape:window-width="1920"
   inkscape:window-height="1028"
   id="namedview8"
   showgrid="false"
   inkscape:zoom="4.72"
   inkscape:cx="15.131414"
   inkscape:cy="4.0302766"
   inkscape:window-x="-8"
   inkscape:window-y="-8"
   inkscape:window-maximized="1"
   inkscape:current-layer="svg2"
   fit-margin-top="0"
   fit-margin-left="0"
   fit-margin-right="0"
   fit-margin-bottom="0" />
<path
   style="fill:#5f0000;fill-opacity:1;fill-rule:nonzero;stroke:none"
   d="M 14.567901,0 12.888889,1.6790123 C 15.004695,3.8197474 16.320988,6.7523235 16.320988,10 c 0,3.247677 -1.316293,6.180252 -3.432099,8.320988 L 14.567901,20 c 2.544762,-2.569711 4.123457,-6.097751 4.123457,-10 0,-3.9022489 -1.578695,-7.4302893 -4.123457,-10 z M 10.666667,3.9012346 8.9876543,5.5802469 C 10.102866,6.7200183 10.790124,8.279423 10.790124,10 c 0,1.720578 -0.687258,3.279982 -1.8024697,4.419753 l 1.6790127,1.679012 C 12.210749,14.529986 13.160494,12.375095 13.160494,10 c 0,-2.375095 -0.949745,-4.5299853 -2.493827,-6.0987654 z M 4.4691358,6.8395062 C 2.7236434,6.8395062 1.308642,8.254507 1.308642,10 c 0,1.745493 1.4150014,3.160494 3.1604938,3.160494 1.7454926,0 3.1604939,-1.415001 3.1604939,-3.160494 0,-1.745493 -1.4150013,-3.1604938 -3.1604939,-3.1604938 z"
   id="path3864-0"
   inkscape:connector-curvature="0" /><g
   id="Captions"
   transform="translate(-10,-58)">
</g>

</svg>