<?xml version="1.0" encoding="UTF-8" standalone="no"?>
<!-- Created with Inkscape (http://www.inkscape.org/) -->

<svg
   xmlns:dc="http://purl.org/dc/elements/1.1/"
   xmlns:cc="http://creativecommons.org/ns#"
   xmlns:rdf="http://www.w3.org/1999/02/22-rdf-syntax-ns#"
   xmlns:svg="http://www.w3.org/2000/svg"
   xmlns="http://www.w3.org/2000/svg"
   xmlns:sodipodi="http://sodipodi.sourceforge.net/DTD/sodipodi-0.dtd"
   xmlns:inkscape="http://www.inkscape.org/namespaces/inkscape"
   width="744.09448819"
   height="1052.3622047"
   id="svg6524"
   version="1.1"
   inkscape:version="0.48.2 r9819"
   sodipodi:docname="pause-left.svg">
  <defs
     id="defs6526" />
  <sodipodi:namedview
     id="base"
     pagecolor="#ffffff"
     bordercolor="#666666"
     borderopacity="1.0"
     inkscape:pageopacity="0.0"
     inkscape:pageshadow="2"
     inkscape:zoom="2.8"
     inkscape:cx="53.112926"
     inkscape:cy="934.28571"
     inkscape:document-units="px"
     inkscape:current-layer="layer1"
     showgrid="false"
     inkscape:window-width="1920"
     inkscape:window-height="1028"
     inkscape:window-x="-8"
     inkscape:window-y="-8"
     inkscape:window-maximized="1" />
  <metadata
     id="metadata6529">
    <rdf:RDF>
      <cc:Work
         rdf:about="">
        <dc:format>image/svg+xml</dc:format>
        <dc:type
           rdf:resource="http://purl.org/dc/dcmitype/StillImage" />
        <dc:title></dc:title>
      </cc:Work>
    </rdf:RDF>
  </metadata>
  <g
     inkscape:label="Layer 1"
     inkscape:groupmode="layer"
     id="layer1">
    <g
       id="arrow_x5F_down_x5F_alt1"
       transform="matrix(1.1082813,0,0,1.1082813,5.358,5.1064905)">
      <path
         style="fill:#4e4e50"
         d="M 19.53125 5.09375 C 11.697031 5.09375 5.34375 11.445258 5.34375 19.28125 C 5.34375 27.113696 11.697031 33.46875 19.53125 33.46875 C 27.365469 33.46875 33.71875 27.113696 33.71875 19.28125 C 33.71875 11.445258 27.365469 5.09375 19.53125 5.09375 z M 14.75 12.90625 L 17.9375 12.90625 L 17.9375 25.6875 L 14.75 25.6875 L 14.75 12.90625 z M 21.125 12.90625 L 24.34375 12.90625 L 24.34375 25.6875 L 21.125 25.6875 L 21.125 12.90625 z "
         transform="matrix(0.902298,0,0,0.902298,-4.8345127,-4.6075762)"
         id="path3063" />
    </g>
  </g>
</svg>
