<?xml version="1.0" encoding="UTF-8" standalone="no"?>
<!-- Generator: Adobe Illustrator 15.1.0, SVG Export Plug-In . SVG Version: 6.00 Build 0)  -->

<svg
   xmlns:dc="http://purl.org/dc/elements/1.1/"
   xmlns:cc="http://creativecommons.org/ns#"
   xmlns:rdf="http://www.w3.org/1999/02/22-rdf-syntax-ns#"
   xmlns:svg="http://www.w3.org/2000/svg"
   xmlns="http://www.w3.org/2000/svg"
   xmlns:sodipodi="http://sodipodi.sourceforge.net/DTD/sodipodi-0.dtd"
   xmlns:inkscape="http://www.inkscape.org/namespaces/inkscape"
   version="1.1"
   x="0px"
   y="0px"
   width="32px"
   height="32px"
   viewBox="0 0 32 32"
   style="enable-background:new 0 0 32 32;"
   xml:space="preserve"
   id="svg3132"
   inkscape:version="0.48.2 r9819"
   sodipodi:docname="pause-icon.svg"><metadata
   id="metadata3142"><rdf:RDF><cc:Work
       rdf:about=""><dc:format>image/svg+xml</dc:format><dc:type
         rdf:resource="http://purl.org/dc/dcmitype/StillImage" /><dc:title></dc:title></cc:Work></rdf:RDF></metadata><defs
   id="defs3140" /><sodipodi:namedview
   pagecolor="#ffffff"
   bordercolor="#666666"
   borderopacity="1"
   objecttolerance="10"
   gridtolerance="10"
   guidetolerance="10"
   inkscape:pageopacity="0"
   inkscape:pageshadow="2"
   inkscape:window-width="1920"
   inkscape:window-height="1028"
   id="namedview3138"
   showgrid="false"
   inkscape:zoom="26.21875"
   inkscape:cx="11.442193"
   inkscape:cy="16"
   inkscape:window-x="-8"
   inkscape:window-y="-8"
   inkscape:window-maximized="1"
   inkscape:current-layer="svg3132" />
<g
   id="Layer_1">
</g>
<g
   id="play_x5F_alt"
   transform="matrix(0.9375,0,0,0.9375,0,0.01668653)">
	<path
   style="fill:#4e4e50"
   d="M 15 0.03125 C 6.7162491 0.03125 0 6.7474991 0 15.03125 C 0 23.315 6.7162491 30.03125 15 30.03125 C 23.28375 30.03125 30 23.315 30 15.03125 C 30 6.7474991 23.28375 0.03125 15 0.03125 z M 9 7.03125 L 13 7.03125 L 13 23.03125 L 9 23.03125 L 9 7.03125 z M 17 7.03125 L 21 7.03125 L 21 23.03125 L 17 23.03125 L 17 7.03125 z "
   transform="matrix(1.0666667,0,0,1.0666667,0,-0.01779897)"
   id="path3136" />
</g>
<g
   id="pause"
   transform="matrix(0.5,0,0,0.5,9.0000005,7.0312505)"><g
     id="g3490" /></g></svg>