<?xml version="1.0" encoding="UTF-8" standalone="no"?>
<!-- Generator: Adobe Illustrator 15.1.0, SVG Export Plug-In . SVG Version: 6.00 Build 0)  -->

<svg
   xmlns:dc="http://purl.org/dc/elements/1.1/"
   xmlns:cc="http://creativecommons.org/ns#"
   xmlns:rdf="http://www.w3.org/1999/02/22-rdf-syntax-ns#"
   xmlns:svg="http://www.w3.org/2000/svg"
   xmlns="http://www.w3.org/2000/svg"
   xmlns:sodipodi="http://sodipodi.sourceforge.net/DTD/sodipodi-0.dtd"
   xmlns:inkscape="http://www.inkscape.org/namespaces/inkscape"
   version="1.1"
   x="0px"
   y="0px"
   width="32px"
   height="32px"
   viewBox="0 0 32 32"
   style="enable-background:new 0 0 32 32;"
   xml:space="preserve"
   id="svg3059"
   inkscape:version="0.48.2 r9819"
   sodipodi:docname="pause.svg"><metadata
   id="metadata3069"><rdf:RDF><cc:Work
       rdf:about=""><dc:format>image/svg+xml</dc:format><dc:type
         rdf:resource="http://purl.org/dc/dcmitype/StillImage" /><dc:title /></cc:Work></rdf:RDF></metadata><defs
   id="defs3067" /><sodipodi:namedview
   pagecolor="#ffffff"
   bordercolor="#666666"
   borderopacity="1"
   objecttolerance="10"
   gridtolerance="10"
   guidetolerance="10"
   inkscape:pageopacity="0"
   inkscape:pageshadow="2"
   inkscape:window-width="1920"
   inkscape:window-height="1028"
   id="namedview3065"
   showgrid="false"
   inkscape:zoom="13.109375"
   inkscape:cx="4.1001192"
   inkscape:cy="13.511533"
   inkscape:window-x="-8"
   inkscape:window-y="-8"
   inkscape:window-maximized="1"
   inkscape:current-layer="svg3059" />
<g
   id="Layer_1">
</g>
<g
   id="arrow_x5F_down_x5F_alt1"
   transform="matrix(0.78125,0,0,0.78125,0,-0.0011919)">
	<path
   style="fill:#4e4e50"
   d="M 10 0 C 4.4775 0 0 4.4762499 0 10 C 0 15.52125 4.4775 20 10 20 C 15.5225 20 20 15.52125 20 10 C 20 4.4762499 15.5225 -5.7824116e-019 10 0 z M 6.625 5.5 L 8.875 5.5 L 8.875 14.5 L 6.625 14.5 L 6.625 5.5 z M 11.125 5.5 L 13.375 5.5 L 13.375 14.5 L 11.125 14.5 L 11.125 5.5 z "
   transform="matrix(1.28,0,0,1.28,0,0.00152563)"
   id="path3063" />
</g>
<g
   id="pause"
   transform="matrix(0.28125,0,0,0.28125,6.625,5.5)"
   style="fill:#ff0000;fill-opacity:1"><g
     id="g6"
     style="fill:#ff0000;fill-opacity:1" /></g></svg>