<?xml version="1.0" encoding="UTF-8" standalone="no"?>
<!-- Created with Inkscape (http://www.inkscape.org/) -->

<svg
   xmlns:dc="http://purl.org/dc/elements/1.1/"
   xmlns:cc="http://creativecommons.org/ns#"
   xmlns:rdf="http://www.w3.org/1999/02/22-rdf-syntax-ns#"
   xmlns:svg="http://www.w3.org/2000/svg"
   xmlns="http://www.w3.org/2000/svg"
   xmlns:sodipodi="http://sodipodi.sourceforge.net/DTD/sodipodi-0.dtd"
   xmlns:inkscape="http://www.inkscape.org/namespaces/inkscape"
   width="744.09448819"
   height="1052.3622047"
   id="svg3901"
   version="1.1"
   inkscape:version="0.48.2 r9819"
   sodipodi:docname="pause-right-icon.svg">
  <defs
     id="defs3903" />
  <sodipodi:namedview
     id="base"
     pagecolor="#ffffff"
     bordercolor="#666666"
     borderopacity="1.0"
     inkscape:pageopacity="0.0"
     inkscape:pageshadow="2"
     inkscape:zoom="7.9195959"
     inkscape:cx="-9.8885559"
     inkscape:cy="1017.549"
     inkscape:document-units="px"
     inkscape:current-layer="layer1"
     showgrid="false"
     inkscape:window-width="1920"
     inkscape:window-height="1028"
     inkscape:window-x="-8"
     inkscape:window-y="-8"
     inkscape:window-maximized="1" />
  <metadata
     id="metadata3906">
    <rdf:RDF>
      <cc:Work
         rdf:about="">
        <dc:format>image/svg+xml</dc:format>
        <dc:type
           rdf:resource="http://purl.org/dc/dcmitype/StillImage" />
        <dc:title></dc:title>
      </cc:Work>
    </rdf:RDF>
  </metadata>
  <g
     inkscape:label="Layer 1"
     inkscape:groupmode="layer"
     id="layer1">
    <path
       style="fill:#000000;fill-opacity:1;fill-rule:evenodd;stroke:#000000;stroke-width:0.1009682;stroke-linecap:butt;stroke-linejoin:miter;stroke-miterlimit:4;stroke-opacity:1;stroke-dasharray:none"
       d="M 30.34375 0.03125 C 25.33388 0.03125 21.208284 3.790937 20.5625 8.625 L 9.65625 8.625 L 4.8125 4.1875 L 0.125 4.1875 L 4.1875 8.0625 L 6.21875 9.9375 L 6.21875 10 L 0.0625 15.71875 L 4.8125 15.71875 L 9.71875 11.25 L 20.5625 11.25 C 21.208284 16.082494 25.33388 19.78125 30.34375 19.78125 C 35.801573 19.78125 40.25 15.394087 40.25 9.9375 C 40.25 4.4784419 35.801573 0.03125 30.34375 0.03125 z M 27.03125 5.5 L 29.21875 5.5 L 29.21875 14.40625 L 27.03125 14.40625 L 27.03125 5.5 z M 31.46875 5.5 L 33.65625 5.5 L 33.65625 14.40625 L 31.46875 14.40625 L 31.46875 5.5 z "
       id="rect5671-1" />
    <g
       id="arrow_x5F_down_x5F_alt1"
       transform="matrix(0.38484375,0,0,0.38484375,10.23174,0.1599386)" />
  </g>
</svg>
