<?xml version="1.0" encoding="UTF-8" standalone="no"?>
<!-- Generator: Adobe Illustrator 15.1.0, SVG Export Plug-In . SVG Version: 6.00 Build 0)  -->

<svg
   xmlns:dc="http://purl.org/dc/elements/1.1/"
   xmlns:cc="http://creativecommons.org/ns#"
   xmlns:rdf="http://www.w3.org/1999/02/22-rdf-syntax-ns#"
   xmlns:svg="http://www.w3.org/2000/svg"
   xmlns="http://www.w3.org/2000/svg"
   xmlns:sodipodi="http://sodipodi.sourceforge.net/DTD/sodipodi-0.dtd"
   xmlns:inkscape="http://www.inkscape.org/namespaces/inkscape"
   version="1.1"
   x="0px"
   y="0px"
   width="32px"
   height="32px"
   viewBox="0 0 32 32"
   style="enable-background:new 0 0 32 32;"
   xml:space="preserve"
   id="svg3861"
   inkscape:version="0.48.2 r9819"
   sodipodi:docname="plus_alt.svg"><metadata
   id="metadata3871"><rdf:RDF><cc:Work
       rdf:about=""><dc:format>image/svg+xml</dc:format><dc:type
         rdf:resource="http://purl.org/dc/dcmitype/StillImage" /><dc:title></dc:title></cc:Work></rdf:RDF></metadata><defs
   id="defs3869" /><sodipodi:namedview
   pagecolor="#ffffff"
   bordercolor="#666666"
   borderopacity="1"
   objecttolerance="10"
   gridtolerance="10"
   guidetolerance="10"
   inkscape:pageopacity="0"
   inkscape:pageshadow="2"
   inkscape:window-width="1920"
   inkscape:window-height="1028"
   id="namedview3867"
   showgrid="false"
   inkscape:zoom="14.75"
   inkscape:cx="16"
   inkscape:cy="16"
   inkscape:window-x="-8"
   inkscape:window-y="-8"
   inkscape:window-maximized="1"
   inkscape:current-layer="svg3861" />
<g
   id="Layer_1">
</g>
<g
   id="plus_x5F_alt"
   transform="scale(0.625,0.625)">
	<path
   style="fill:#4e4e50"
   d="M 10 0 C 4.4775 0 0 4.4775 0 10 C 0 15.5225 4.4775 20 10 20 C 15.5225 20 20 15.5225 20 10 C 20 4.4775 15.5225 0 10 0 z M 8.75 5 L 11.25 5 L 11.25 8.75 L 15 8.75 L 15 11.25 L 11.25 11.25 L 11.25 15 L 8.75 15 L 8.75 11.25 L 5 11.25 L 5 8.75 L 8.75 8.75 L 8.75 5 z "
   transform="scale(1.6,1.6)"
   id="path3865" />
</g>
</svg>