<?xml version="1.0" encoding="UTF-8" standalone="no"?>
<svg
   xmlns:dc="http://purl.org/dc/elements/1.1/"
   xmlns:cc="http://creativecommons.org/ns#"
   xmlns:rdf="http://www.w3.org/1999/02/22-rdf-syntax-ns#"
   xmlns:svg="http://www.w3.org/2000/svg"
   xmlns="http://www.w3.org/2000/svg"
   xmlns:sodipodi="http://sodipodi.sourceforge.net/DTD/sodipodi-0.dtd"
   xmlns:inkscape="http://www.inkscape.org/namespaces/inkscape"
   version="1.1"
   id="Calque_1"
   x="0px"
   y="0px"
   width="43.313px"
   height="46.021px"
   viewBox="0 0 43.313 46.021"
   enable-background="new 0 0 43.313 46.021"
   xml:space="preserve"
   inkscape:version="0.48.2 r9819"
   sodipodi:docname="noun_project_2216.svg"><metadata
   id="metadata11"><rdf:RDF><cc:Work
       rdf:about=""><dc:format>image/svg+xml</dc:format><dc:type
         rdf:resource="http://purl.org/dc/dcmitype/StillImage" /><dc:title></dc:title></cc:Work></rdf:RDF></metadata><defs
   id="defs9" /><sodipodi:namedview
   pagecolor="#ffffff"
   bordercolor="#666666"
   borderopacity="1"
   objecttolerance="10"
   gridtolerance="10"
   guidetolerance="10"
   inkscape:pageopacity="0"
   inkscape:pageshadow="2"
   inkscape:window-width="1920"
   inkscape:window-height="1028"
   id="namedview7"
   showgrid="false"
   inkscape:zoom="10.256187"
   inkscape:cx="60.351771"
   inkscape:cy="28.656497"
   inkscape:window-x="-8"
   inkscape:window-y="-8"
   inkscape:window-maximized="1"
   inkscape:current-layer="Calque_1" />
<path
   d="M 10.09375 -0.03125 L 10.09375 9.21875 L 13.78125 9.21875 L 13.78125 -0.03125 L 10.09375 -0.03125 z M 5.78125 3.0625 C 2.2233412 5.174109 0 9.0862313 0 13.21875 C 0 19.704561 5.2641886 24.96875 11.75 24.96875 C 18.235268 24.96875 23.530706 19.704561 23.53125 13.21875 C 23.53125 9.1014373 21.319607 5.208075 17.78125 3.09375 L 16.125 5.90625 C 18.684675 7.435646 20.25 10.241968 20.25 13.21875 C 20.25 17.907956 16.439206 21.71875 11.75 21.71875 C 7.0607943 21.71875 3.25 17.907956 3.25 13.21875 C 3.25 10.231106 4.863705 7.402223 7.4375 5.875 L 5.78125 3.0625 z "
   id="path3" />

</svg>