<?xml version="1.0" encoding="UTF-8" standalone="no"?>
<!-- Created with Inkscape (http://www.inkscape.org/) -->

<svg
   xmlns:dc="http://purl.org/dc/elements/1.1/"
   xmlns:cc="http://creativecommons.org/ns#"
   xmlns:rdf="http://www.w3.org/1999/02/22-rdf-syntax-ns#"
   xmlns:svg="http://www.w3.org/2000/svg"
   xmlns="http://www.w3.org/2000/svg"
   xmlns:sodipodi="http://sodipodi.sourceforge.net/DTD/sodipodi-0.dtd"
   xmlns:inkscape="http://www.inkscape.org/namespaces/inkscape"
   width="744.09448819"
   height="1052.3622047"
   id="svg6524"
   version="1.1"
   inkscape:version="0.48.2 r9819"
   sodipodi:docname="heartBeat.svg">
  <defs
     id="defs6526" />
  <sodipodi:namedview
     id="base"
     pagecolor="#ffffff"
     bordercolor="#666666"
     borderopacity="1.0"
     inkscape:pageopacity="0.0"
     inkscape:pageshadow="2"
     inkscape:zoom="2.8"
     inkscape:cx="53.112926"
     inkscape:cy="934.28571"
     inkscape:document-units="px"
     inkscape:current-layer="layer1"
     showgrid="false"
     inkscape:window-width="1920"
     inkscape:window-height="1028"
     inkscape:window-x="-8"
     inkscape:window-y="-8"
     inkscape:window-maximized="1" />
  <metadata
     id="metadata6529">
    <rdf:RDF>
      <cc:Work
         rdf:about="">
        <dc:format>image/svg+xml</dc:format>
        <dc:type
           rdf:resource="http://purl.org/dc/dcmitype/StillImage" />
        <dc:title></dc:title>
      </cc:Work>
    </rdf:RDF>
  </metadata>
  <g
     inkscape:label="Layer 1"
     inkscape:groupmode="layer"
     id="layer1">
    <path
       style="fill:#000000;fill-opacity:1;fill-rule:evenodd;stroke:#000000;stroke-width:0.2;stroke-linecap:butt;stroke-linejoin:miter;stroke-miterlimit:4;stroke-opacity:1;stroke-dasharray:none"
       d="M122.714,5.208c-7.78,0-14.087,6.306-14.087,14.086c0,7.78,6.307,14.086,14.087,14.086 S136.8,27.074,136.8,19.294C136.8,11.514,130.494,5.208,122.714,5.208z M122.377,27.095c-1.047,0-1.759-0.771-1.759-1.799 c0-1.068,0.731-1.799,1.759-1.799c1.069,0,1.76,0.731,1.78,1.799C124.157,26.324,123.465,27.095,122.377,27.095z M124.77,19.72 c-0.711,0.811-1.028,1.583-1.009,2.472v0.356h-2.629l-0.02-0.514c-0.059-1.008,0.277-2.036,1.167-3.084 c0.632-0.771,1.146-1.423,1.146-2.076c0-0.692-0.454-1.167-1.444-1.186c-0.651,0-1.443,0.237-1.957,0.593l-0.672-2.155 c0.731-0.415,1.898-0.81,3.301-0.81c2.61,0,3.816,1.443,3.816,3.084C126.471,17.901,125.521,18.89,124.77,19.72z"
       id="rect5671"
       inkscape:connector-curvature="0"
       sodipodi:nodetypes="cccsccccccscssccccsscccccccsccccccccccsccc" />
  </g>
</svg>
