<?xml version="1.0" encoding="UTF-8" standalone="no"?>
<svg
   xmlns:dc="http://purl.org/dc/elements/1.1/"
   xmlns:cc="http://creativecommons.org/ns#"
   xmlns:rdf="http://www.w3.org/1999/02/22-rdf-syntax-ns#"
   xmlns:svg="http://www.w3.org/2000/svg"
   xmlns="http://www.w3.org/2000/svg"
   xmlns:sodipodi="http://sodipodi.sourceforge.net/DTD/sodipodi-0.dtd"
   xmlns:inkscape="http://www.inkscape.org/namespaces/inkscape"
   version="1.1"
   id="Layer_1"
   x="0px"
   y="0px"
   width="20"
   height="20"
   viewBox="0 0 20 20"
   enable-background="new 0 0 100 99.987"
   xml:space="preserve"
   inkscape:version="0.48.2 r9819"
   sodipodi:docname="rotating.svg"><metadata
   id="metadata15"><rdf:RDF><cc:Work
       rdf:about=""><dc:format>image/svg+xml</dc:format><dc:type
         rdf:resource="http://purl.org/dc/dcmitype/StillImage" /><dc:title></dc:title></cc:Work></rdf:RDF></metadata><defs
   id="defs13" /><sodipodi:namedview
   pagecolor="#ffffff"
   bordercolor="#666666"
   borderopacity="1"
   objecttolerance="10"
   gridtolerance="10"
   guidetolerance="10"
   inkscape:pageopacity="0"
   inkscape:pageshadow="2"
   inkscape:window-width="1920"
   inkscape:window-height="1028"
   id="namedview11"
   showgrid="false"
   inkscape:zoom="2.3603069"
   inkscape:cx="50"
   inkscape:cy="50.0065"
   inkscape:window-x="-8"
   inkscape:window-y="-8"
   inkscape:window-maximized="1"
   inkscape:current-layer="Layer_1"
   fit-margin-top="0"
   fit-margin-left="0"
   fit-margin-right="0"
   fit-margin-bottom="0" />
<path
   d="M 10.78125 0 L 6.09375 2.71875 L 10.78125 5.4375 L 10.78125 3.84375 C 12.50005 4.06635 14.08595 4.9975 15.09375 6.4375 L 16.875 5.1875 C 15.4584 3.1627 13.21105 1.88945 10.78125 1.65625 L 10.78125 0 z M 5.1875 3.125 C 3.1641 4.5442 1.89065 6.79035 1.65625 9.21875 L 0 9.21875 L 2.71875 13.90625 L 5.4375 9.21875 L 3.84375 9.21875 C 4.06775 7.50255 4.9973 5.91525 6.4375 4.90625 L 5.1875 3.125 z M 17.28125 6.09375 L 14.5625 10.78125 L 16.15625 10.78125 C 15.93225 12.49885 15.0025 14.08715 13.5625 15.09375 L 14.8125 16.875 C 16.8385 15.4584 18.11195 13.21085 18.34375 10.78125 L 20 10.78125 L 17.28125 6.09375 z M 4.90625 13.5625 L 3.125 14.8125 C 4.5416 16.8345 6.7603 18.11075 9.1875 18.34375 L 9.1875 20 L 13.90625 17.28125 L 9.21875 14.5625 L 9.21875 16.15625 C 7.50515 15.93225 5.91405 15.0013 4.90625 13.5625 z "
   id="path3" />



</svg>