<?xml version="1.0" encoding="UTF-8" standalone="no"?>
<!-- Generator: Adobe Illustrator 15.1.0, SVG Export Plug-In . SVG Version: 6.00 Build 0)  -->

<svg
   xmlns:dc="http://purl.org/dc/elements/1.1/"
   xmlns:cc="http://creativecommons.org/ns#"
   xmlns:rdf="http://www.w3.org/1999/02/22-rdf-syntax-ns#"
   xmlns:svg="http://www.w3.org/2000/svg"
   xmlns="http://www.w3.org/2000/svg"
   xmlns:sodipodi="http://sodipodi.sourceforge.net/DTD/sodipodi-0.dtd"
   xmlns:inkscape="http://www.inkscape.org/namespaces/inkscape"
   version="1.1"
   x="0px"
   y="0px"
   width="20"
   height="20"
   viewBox="0 0 20 20"
   xml:space="preserve"
   id="svg3059"
   inkscape:version="0.48.2 r9819"
   sodipodi:docname="save3.svg"><metadata
   id="metadata3069"><rdf:RDF><cc:Work
       rdf:about=""><dc:format>image/svg+xml</dc:format><dc:type
         rdf:resource="http://purl.org/dc/dcmitype/StillImage" /><dc:title></dc:title></cc:Work></rdf:RDF></metadata><defs
   id="defs3067" /><sodipodi:namedview
   pagecolor="#ffffff"
   bordercolor="#666666"
   borderopacity="1"
   objecttolerance="10"
   gridtolerance="10"
   guidetolerance="10"
   inkscape:pageopacity="0"
   inkscape:pageshadow="2"
   inkscape:window-width="1920"
   inkscape:window-height="1028"
   id="namedview3065"
   showgrid="false"
   inkscape:zoom="26.21875"
   inkscape:cx="16"
   inkscape:cy="5.8298388"
   inkscape:window-x="-8"
   inkscape:window-y="-8"
   inkscape:window-maximized="1"
   inkscape:current-layer="svg3059"
   fit-margin-top="0"
   fit-margin-left="0"
   fit-margin-right="0"
   fit-margin-bottom="0" />
<g
   id="Layer_1"
   transform="translate(0,7.4999999)">
</g>
<g
   id="arrow_x5F_down_x5F_alt1"
   transform="matrix(0.48828125,0,0,0.48828125,0,7.4855482)">
	<g
   id="g5658"
   transform="matrix(1.6,0,0,1.6,0,-15.377758)"><path
     style="fill:#4e4e50"
     d="M 10 0 C 4.4775 0 0 4.4787498 0 10 C 0 15.52375 4.4775 20 10 20 C 15.5225 20 20 15.52375 20 10 C 20 4.4787498 15.5225 0 10 0 z M 8.75 5 L 11.25 5 L 11.25 10 L 14.9375 10 L 10 15 L 5 10 L 8.75 10 L 8.75 5 z "
     transform="matrix(1.28,0,0,1.28,0,0.02959706)"
     id="path3063" /></g>
</g>
</svg>