<?xml version="1.0" encoding="UTF-8" standalone="no"?>
<svg
   xmlns:dc="http://purl.org/dc/elements/1.1/"
   xmlns:cc="http://creativecommons.org/ns#"
   xmlns:rdf="http://www.w3.org/1999/02/22-rdf-syntax-ns#"
   xmlns:svg="http://www.w3.org/2000/svg"
   xmlns="http://www.w3.org/2000/svg"
   xmlns:sodipodi="http://sodipodi.sourceforge.net/DTD/sodipodi-0.dtd"
   xmlns:inkscape="http://www.inkscape.org/namespaces/inkscape"
   version="1.1"
   id="Layer_1"
   x="0px"
   y="0px"
   width="20"
   height="20"
   viewBox="0 0 20 20"
   enable-background="new 0 0 100 99.987"
   xml:space="preserve"
   inkscape:version="0.48.2 r9819"
   sodipodi:docname="sensor1.svg"><metadata
   id="metadata15"><rdf:RDF><cc:Work
       rdf:about=""><dc:format>image/svg+xml</dc:format><dc:type
         rdf:resource="http://purl.org/dc/dcmitype/StillImage" /><dc:title></dc:title></cc:Work></rdf:RDF></metadata><defs
   id="defs13" /><sodipodi:namedview
   pagecolor="#ffffff"
   bordercolor="#666666"
   borderopacity="1"
   objecttolerance="10"
   gridtolerance="10"
   guidetolerance="10"
   inkscape:pageopacity="0"
   inkscape:pageshadow="2"
   inkscape:window-width="1920"
   inkscape:window-height="1028"
   id="namedview11"
   showgrid="false"
   inkscape:zoom="13.351912"
   inkscape:cx="7.0691841"
   inkscape:cy="15.179666"
   inkscape:window-x="-8"
   inkscape:window-y="-8"
   inkscape:window-maximized="1"
   inkscape:current-layer="Layer_1"
   fit-margin-top="0"
   fit-margin-left="0"
   fit-margin-right="0"
   fit-margin-bottom="0" />




<g
   style="font-size:40px;font-style:normal;font-variant:normal;font-weight:normal;font-stretch:normal;line-height:125%;letter-spacing:0px;word-spacing:0px;fill:#000000;fill-opacity:1;stroke:none;font-family:Riesling;-inkscape-font-specification:Riesling"
   id="text2995"
   transform="translate(0,-5.999437)"><path
     style="font-size:12px;font-weight:bold;text-align:center;text-anchor:middle;font-family:Helvetica;-inkscape-font-specification:Helvetica Bold"
     d="M 7.15625 0 L 6.25 0.90625 L 8.28125 2.9375 L 9.1875 2.03125 L 7.15625 0 z M 12.84375 0 L 10.8125 2.03125 L 11.71875 2.9375 L 13.75 0.90625 L 12.84375 0 z M 0 4 L 0 6 L 8.6875 6 L 8.6875 4 L 0 4 z M 11.3125 4 L 11.3125 6 L 20 6 L 20 4 L 11.3125 4 z M 8.28125 7.0625 L 6.25 9.09375 L 7.15625 10 L 9.1875 7.96875 L 8.28125 7.0625 z M 11.71875 7.0625 L 10.8125 7.96875 L 12.84375 10 L 13.75 9.09375 L 11.71875 7.0625 z M 10.15625 12.9375 C 9.3424457 12.937507 8.7376288 13.166022 8.34375 13.625 C 7.9498691 14.08399 7.7499995 14.688807 7.75 15.4375 L 8.625 15.4375 C 8.6575507 14.874354 8.7818996 14.442714 9 14.15625 C 9.2213523 13.866542 9.5742161 13.750006 10.0625 13.75 C 10.498694 13.750006 10.83984 13.856126 11.09375 14.09375 C 11.350907 14.331386 11.499996 14.655604 11.5 15.0625 C 11.499996 15.358728 11.414709 15.604171 11.28125 15.8125 C 11.147782 16.017582 10.919267 16.214196 10.59375 16.40625 L 9.15625 17.25 C 8.6874986 17.520185 8.3326813 17.86784 8.0625 18.28125 C 7.7923173 18.691407 7.611328 19.267579 7.5625 20 L 12.40625 20 L 12.40625 19.1875 L 8.5625 19.1875 C 8.6601549 18.878256 8.8164048 18.61784 9.03125 18.40625 C 9.2493471 18.191408 9.5800759 17.934898 10 17.6875 L 11.1875 17 C 11.607418 16.765628 11.923172 16.496749 12.125 16.1875 C 12.326818 15.875004 12.406245 15.501957 12.40625 15.0625 C 12.406245 14.408208 12.207677 13.87761 11.78125 13.5 C 11.358068 13.119147 10.813798 12.937507 10.15625 12.9375 z "
     transform="translate(0,5.999437)"
     id="path3812" /></g><g
   style="font-size:40px;font-style:normal;font-variant:normal;font-weight:normal;font-stretch:normal;line-height:125%;letter-spacing:0px;word-spacing:0px;fill:#000000;fill-opacity:1;stroke:none;font-family:Riesling;-inkscape-font-specification:Riesling"
   id="text3931" /><g
   style="font-size:40px;font-style:normal;font-variant:normal;font-weight:normal;font-stretch:normal;line-height:125%;letter-spacing:0px;word-spacing:0px;fill:#000000;fill-opacity:1;stroke:none;font-family:Riesling;-inkscape-font-specification:Riesling"
   id="text3943" /></svg>