<?xml version="1.0" encoding="UTF-8" standalone="no"?>
<!-- Generator: Adobe Illustrator 15.1.0, SVG Export Plug-In . SVG Version: 6.00 Build 0)  -->

<svg
   xmlns:dc="http://purl.org/dc/elements/1.1/"
   xmlns:cc="http://creativecommons.org/ns#"
   xmlns:rdf="http://www.w3.org/1999/02/22-rdf-syntax-ns#"
   xmlns:svg="http://www.w3.org/2000/svg"
   xmlns="http://www.w3.org/2000/svg"
   xmlns:sodipodi="http://sodipodi.sourceforge.net/DTD/sodipodi-0.dtd"
   xmlns:inkscape="http://www.inkscape.org/namespaces/inkscape"
   version="1.1"
   id="Layer_1"
   x="0px"
   y="0px"
   width="20.000006"
   height="12.829389"
   viewBox="0 0 20.000006 12.829389"
   enable-background="new 0 0 99.908 64.088"
   xml:space="preserve"
   inkscape:version="0.48.2 r9819"
   sodipodi:docname="icon_8390.svg"><metadata
   id="metadata9"><rdf:RDF><cc:Work
       rdf:about=""><dc:format>image/svg+xml</dc:format><dc:type
         rdf:resource="http://purl.org/dc/dcmitype/StillImage" /><dc:title></dc:title></cc:Work></rdf:RDF></metadata><defs
   id="defs7" /><sodipodi:namedview
   pagecolor="#ffffff"
   bordercolor="#666666"
   borderopacity="1"
   objecttolerance="10"
   gridtolerance="10"
   guidetolerance="10"
   inkscape:pageopacity="0"
   inkscape:pageshadow="2"
   inkscape:window-width="1920"
   inkscape:window-height="1028"
   id="namedview5"
   showgrid="false"
   fit-margin-top="0"
   fit-margin-left="0"
   fit-margin-right="0"
   fit-margin-bottom="0"
   inkscape:zoom="3.2229652"
   inkscape:cx="49.953998"
   inkscape:cy="32.044003"
   inkscape:window-x="-8"
   inkscape:window-y="-8"
   inkscape:window-maximized="1"
   inkscape:current-layer="Layer_1" />
<path
   d="m 11.370035,0.12552558 c 0.648996,-0.105297 1.309402,-0.15254 1.966004,-0.109901 0.92605,0.02142 1.822473,0.325299 2.643427,0.737877 0.395763,0.204988 0.765903,0.45481802 1.123631,0.71926002 0.67562,0.526083 1.255552,1.184287 1.650315,1.946387 0.393761,0.738878 0.571524,1.589459 0.514872,2.423825 -0.02302,0.365535 -0.09308,0.73067 -0.05985,1.098208 0.02262,0.197781 0.07747,0.39216 0.16295,0.571925 0.09068,0.19718 0.2178,0.375344 0.319893,0.56732 0.04224,0.07747 0.06526,0.165352 0.120911,0.235016 0.06686,0.08888 0.149538,0.170957 0.18457,0.279056 0.01962,0.07947 -0.05425,0.133923 -0.09849,0.188974 -0.255634,0.250229 -0.60015,0.376145 -0.889016,0.580132 0.05825,0.364735 0.106498,0.7316724 0.171558,1.0956064 0.100492,0.475836 0.138527,0.966086 0.29407,1.429512 0.09108,0.271649 0.04504,0.604154 -0.158746,0.813947 -0.113304,0.106698 -0.282659,0.07006 -0.423789,0.08368 -0.263842,0.02202 -0.530487,0.01241 -0.794129,0.04304 h -0.579532 c -0.212995,-0.0042 -0.42539,-0.02622 -0.639186,-0.02162 -0.118109,0.0048 -0.258838,-0.01882 -0.329903,-0.124514 -0.06586,-0.102294 -0.03363,-0.231012 -0.0094,-0.341313 -0.136525,0.02923 -0.270648,0.06606 -0.404971,0.100091 -0.1083,0.02783 -0.213597,-0.02002 -0.312687,-0.05825 -0.118309,-0.04804 -0.256035,-0.107899 -0.299876,-0.238419 -0.04544,-0.198782 0.05966,-0.383952 0.14093,-0.557512 0.06926,-0.15334 0.172958,-0.307882 0.136525,-0.484845 -0.01241,-0.118909 -0.142931,-0.156944 -0.241021,-0.180365 -0.35893,-0.04965 -0.706449,0.08067 -1.039955,0.19638 -0.313488,0.1091 -0.63198,0.220803 -0.965686,0.247828 -0.23942,0.01481 -0.47904,-0.02082 -0.718259,-0.02082 -0.578331,-0.03643 -1.157263,-0.08248 -1.728987,-0.182368 -0.536092,-0.115706 -1.07819,-0.237218 -1.5704413,-0.487047 -0.080074,0.247027 0.00861,0.500059 0.099691,0.73027 0.056051,0.142331 0.1247144,0.284261 0.1367255,0.439404 0.00921,0.19658 0.048645,0.40397 -0.031629,0.592343 -0.02142,0.05965 -0.083477,0.08408 -0.1393278,0.100092 -0.4936531,0.16335 -1.0125294,0.249029 -1.5320062,0.266645 -0.2632416,-0.0016 -0.5268836,0.01281 -0.7885237,-0.01842 -0.084878,-0.0094 -0.1751608,0.0026 -0.2548339,-0.03363 -0.1076989,-0.102894 -0.1571442,-0.249028 -0.2232049,-0.379348 -0.03263,-0.06005 -0.09789,-0.111903 -0.1701562,-0.09369 -0.1004922,0.02783 -0.2013848,0.07387 -0.3080827,0.05205 C 6.1424372,12.301301 5.9458567,12.313513 5.7799044,12.221228 5.671605,12.153966 5.6744076,12.001226 5.7012322,11.891725 5.8093314,11.593852 6.0509532,11.349828 6.0933921,11.027933 6.0955942,10.783308 5.9880955,10.557701 5.9192323,10.32809 5.8521707,10.113693 5.7388668,9.8824806 5.8237447,9.6562736 5.9168301,9.4831146 6.1144114,9.3908296 6.1968871,9.2098636 6.2239119,9.1221826 6.1668596,9.0439116 6.1328283,8.9680416 6.0207255,8.7386306 5.9580679,8.4880006 5.837157,8.2625936 5.780505,8.1558956 5.7270559,8.0413906 5.6283653,7.9663216 5.2876526,7.6988766 4.8982952,7.5034976 4.5087377,7.3189276 4.3375806,7.2360516 4.1628202,7.1601826 3.9856576,7.0905186 3.6873838,6.9736106 3.3903112,6.8522996 3.0836297,6.7578126 2.9280869,6.7105696 2.7689408,6.6326976 2.6015872,6.6699326 2.4090105,6.7105696 2.2286449,6.7926446 2.043475,6.8573046 1.9047477,6.9063496 1.7582132,6.9624006 1.6084757,6.9335746 1.3316216,6.8759216 1.0581706,6.7804336 0.82335515,6.6202866 0.50226043,6.3946796 0.29547063,6.0395536 0.17055598,5.6738176 0.08247514,5.3961636 0.03943564,5.1072976 -5.6379999e-7,4.8196336 v -0.0014 C 0.01381212,4.4338796 0.2466258,4.0983716 0.5186755,3.8435376 c 0.31468883,-0.296672 0.7018441,-0.502661 1.0918021,-0.682826 0.371541,-0.165352 0.770307,-0.262641 1.1724761,-0.313288 0.4095759,-0.03683 0.8385697,0.0018 1.2089096,0.191976 0.2820589,0.139929 0.4834437,0.399767 0.625374,0.674019 0.1441323,0.290266 0.1959799,0.613763 0.2714491,0.92565 0.077671,0.267245 0.1279174,0.561915 0.3264997,0.771508 0.1038954,0.113904 0.2684464,0.118709 0.4109772,0.135924 0.1647512,0.0034 0.3417136,0.02142 0.4934529,-0.05645 0.069464,-0.04264 0.057052,-0.133723 0.070064,-0.203587 0.055451,-0.682226 0.2358165,-1.354043 0.5328891,-1.971009 0.2214032,-0.443607 0.4844447,-0.871 0.8229554,-1.235534 0.2238054,-0.247427 0.4754363,-0.469231 0.7396789,-0.672417 0.5847367,-0.44560902 1.2565533,-0.76670402 1.9529924,-0.99511402 0.37094,-0.121111 0.747086,-0.226207 1.131839,-0.286863 l 0,0 z"
   id="path3"
   inkscape:connector-curvature="0"
   style="fill:#010101" />
</svg>