<?xml version="1.0" encoding="UTF-8" standalone="no"?>
<svg
   xmlns:dc="http://purl.org/dc/elements/1.1/"
   xmlns:cc="http://creativecommons.org/ns#"
   xmlns:rdf="http://www.w3.org/1999/02/22-rdf-syntax-ns#"
   xmlns:svg="http://www.w3.org/2000/svg"
   xmlns="http://www.w3.org/2000/svg"
   xmlns:sodipodi="http://sodipodi.sourceforge.net/DTD/sodipodi-0.dtd"
   xmlns:inkscape="http://www.inkscape.org/namespaces/inkscape"
   version="1.1"
   id="Layer_1"
   x="0px"
   y="0px"
   width="40.400002"
   height="50"
   viewBox="0 0 40.400001 50"
   enable-background="new 0 0 32 32"
   xml:space="preserve"
   inkscape:version="0.48.2 r9819"
   sodipodi:docname="timeTillFinished.svg"><metadata
   id="metadata8"><rdf:RDF><cc:Work
       rdf:about=""><dc:format>image/svg+xml</dc:format><dc:type
         rdf:resource="http://purl.org/dc/dcmitype/StillImage" /><dc:title></dc:title></cc:Work></rdf:RDF></metadata><defs
   id="defs6" /><sodipodi:namedview
   pagecolor="#ffffff"
   bordercolor="#666666"
   borderopacity="1"
   objecttolerance="10"
   gridtolerance="10"
   guidetolerance="10"
   inkscape:pageopacity="0"
   inkscape:pageshadow="2"
   inkscape:window-width="1920"
   inkscape:window-height="1028"
   id="namedview4"
   showgrid="false"
   inkscape:zoom="7.375"
   inkscape:cx="-6.1827086"
   inkscape:cy="16.000002"
   inkscape:window-x="-8"
   inkscape:window-y="-8"
   inkscape:window-maximized="1"
   inkscape:current-layer="Layer_1"
   fit-margin-top="0"
   fit-margin-left="0"
   fit-margin-right="0"
   fit-margin-bottom="0" />
<g
   transform="matrix(0.23967242,0,0,0.24847078,11.923046,21.778113)"
   id="Your_Icon"
   style="fill:#003eff;fill-opacity:1"><path
     style="fill:#003eff;fill-opacity:1;fill-rule:evenodd"
     d="M 14.3125 7.75 C 6.9318243 7.8691726 0.71124938 13.765453 0.0625 21.5625 C -0.62509862 29.87821 5.2934497 37.220097 13.3125 37.9375 C 21.33595 38.65034 28.3705 32.439569 29.0625 24.125 C 29.143911 23.136148 29.159315 22.198932 29.0625 21.25 L 25.4375 19.875 C 25.757646 21.135302 25.923617 22.470535 25.8125 23.84375 C 25.271223 30.27528 19.76849 35.074149 13.5625 34.53125 C 7.3587101 33.96668 2.7888248 28.276421 3.3125 21.84375 C 3.855978 15.409939 9.2638601 10.67471 15.46875 11.21875 C 18.139934 11.461686 20.522544 12.649126 22.3125 14.4375 L 20.53125 16.03125 L 28.25 18.90625 L 26.8125 10.5625 L 24.84375 12.25 C 22.497113 9.7966887 19.333214 8.1006026 15.75 7.78125 C 15.249222 7.7366261 14.804546 7.7420554 14.3125 7.75 z M 14.53125 12.75 C 13.923963 12.75 13.40625 13.24542 13.40625 13.875 L 12.90625 22.25 L 9.625 24.53125 C 9.0991249 24.847182 8.9140063 25.489492 9.21875 26.03125 C 9.5212938 26.577571 10.195075 26.784682 10.71875 26.46875 L 14.34375 24.53125 C 14.403153 24.540348 14.468541 24.5625 14.53125 24.5625 C 15.44328 24.563648 16.1875 23.821652 16.1875 22.875 L 15.625 13.875 C 15.625 13.24542 15.138537 12.75 14.53125 12.75 z M 10.0625 13.9375 C 9.9206826 13.955714 9.7877196 14.015048 9.65625 14.09375 C 9.1303749 14.40854 8.9463563 15.11107 9.25 15.65625 C 9.5558437 16.202571 10.224125 16.379571 10.75 16.0625 C 11.276975 15.74771 11.459894 15.045181 11.15625 14.5 C 10.928517 14.091115 10.487952 13.882861 10.0625 13.9375 z M 18.6875 13.9375 C 18.384392 13.999225 18.132123 14.193978 17.96875 14.5 C 17.670608 15.047461 17.804228 15.74771 18.3125 16.0625 C 18.839476 16.37729 19.539005 16.20143 19.84375 15.65625 C 20.148495 15.11221 19.965576 14.40854 19.4375 14.09375 C 19.306306 14.015048 19.141559 13.955624 19 13.9375 C 18.89383 13.923906 18.788536 13.916928 18.6875 13.9375 z M 6.84375 17.21875 C 6.5269169 17.280237 6.2020494 17.505837 6.03125 17.8125 C 5.7276063 18.35768 5.9450748 19.06021 6.46875 19.375 C 6.9968258 19.690932 7.6651063 19.484961 7.96875 18.9375 C 8.2712929 18.392319 8.1185251 17.690932 7.59375 17.375 C 7.462006 17.296298 7.2981185 17.236963 7.15625 17.21875 C 7.0498486 17.205094 6.9493607 17.198257 6.84375 17.21875 z M 21.875 17.21875 C 21.733579 17.236964 21.628994 17.296298 21.5 17.375 C 20.973024 17.692071 20.789005 18.39346 21.09375 18.9375 C 21.398495 19.48154 22.067875 19.692071 22.59375 19.375 C 23.119625 19.06135 23.274594 18.35768 22.96875 17.8125 C 22.742667 17.403614 22.299266 17.164111 21.875 17.21875 z M 5.84375 21.71875 C 5.2342625 21.71875 4.78125 22.24656 4.78125 22.875 C 4.78125 23.505721 5.2375631 24 5.84375 24 C 6.4510371 24 6.96765 23.504581 6.96875 22.875 C 6.9676424 22.245419 6.4521374 21.71989 5.84375 21.71875 z M 23.1875 21.71875 C 22.578013 21.721047 22.09375 22.247701 22.09375 22.875 C 22.094858 23.504581 22.579113 24 23.1875 24 C 23.794787 24.001148 24.3125 23.505721 24.3125 22.875 C 24.3125 22.24656 23.794787 21.71875 23.1875 21.71875 z M 6.90625 26.21875 C 6.7642784 26.238739 6.6004939 26.355666 6.46875 26.4375 C 5.9428747 26.746588 5.7265063 27.408288 6.03125 27.9375 C 6.3326931 28.48382 7.0700749 28.6574 7.59375 28.34375 C 8.1207259 28.034662 8.3036437 27.32757 8 26.78125 C 7.7722672 26.373221 7.3321658 26.158765 6.90625 26.21875 z M 21.875 26.25 C 21.56825 26.300463 21.263311 26.485493 21.09375 26.78125 C 20.792306 27.324149 20.973024 28.02896 21.5 28.34375 C 22.024775 28.65626 22.666206 28.48154 22.96875 27.9375 C 23.266892 27.391179 23.108625 26.736323 22.59375 26.4375 C 22.461731 26.360229 22.298446 26.267714 22.15625 26.25 C 22.049603 26.236715 21.97725 26.233182 21.875 26.25 z M 10.15625 29.5 C 10.086699 29.502473 9.9741843 29.512303 9.90625 29.53125 C 9.6345111 29.606958 9.4029227 29.78991 9.25 30.0625 C 8.9474571 30.608821 9.1314749 31.31135 9.65625 31.625 C 10.182125 31.934088 10.854806 31.722416 11.15625 31.1875 C 11.460995 30.641179 11.275875 29.972182 10.75 29.65625 C 10.552797 29.538632 10.364902 29.492696 10.15625 29.5 z M 18.71875 29.53125 C 18.577122 29.549305 18.44397 29.577831 18.3125 29.65625 C 17.785525 29.972182 17.598206 30.64232 17.90625 31.1875 C 18.207694 31.73154 18.911624 31.942071 19.4375 31.625 C 19.963375 31.31135 20.148495 30.597416 19.84375 30.0625 C 19.615193 29.653614 19.143635 29.477092 18.71875 29.53125 z M 14.53125 30.71875 C 13.923963 30.71875 13.40625 31.21303 13.40625 31.84375 C 13.40625 32.474471 13.923963 33 14.53125 33 C 15.138537 33 15.625 32.474471 15.625 31.84375 C 15.625 31.21303 15.138537 30.71875 14.53125 30.71875 z M 36.75 31.1875 L 26 42.46875 L 21.96875 38.28125 L 18.3125 42.09375 L 25.8125 50 L 40.34375 34.96875 L 36.75 31.1875 z "
     transform="matrix(4.1723616,0,0,4.0246181,-49.74726,-87.648588)"
     id="path6" /></g>
</svg>