<?xml version="1.0" encoding="UTF-8" standalone="no"?>
<svg
   xmlns:dc="http://purl.org/dc/elements/1.1/"
   xmlns:cc="http://creativecommons.org/ns#"
   xmlns:rdf="http://www.w3.org/1999/02/22-rdf-syntax-ns#"
   xmlns:svg="http://www.w3.org/2000/svg"
   xmlns="http://www.w3.org/2000/svg"
   xmlns:sodipodi="http://sodipodi.sourceforge.net/DTD/sodipodi-0.dtd"
   xmlns:inkscape="http://www.inkscape.org/namespaces/inkscape"
   version="1.1"
   x="0px"
   y="0px"
   width="25.006311"
   height="19.57892"
   viewBox="0 0 25.006311 19.57892"
   enable-background="new 0 0 100 100"
   xml:space="preserve"
   id="svg2"
   inkscape:version="0.48.2 r9819"
   sodipodi:docname="warning_icon.svg"><metadata
   id="metadata12"><rdf:RDF><cc:Work
       rdf:about=""><dc:format>image/svg+xml</dc:format><dc:type
         rdf:resource="http://purl.org/dc/dcmitype/StillImage" /><dc:title></dc:title></cc:Work></rdf:RDF></metadata><defs
   id="defs10" /><sodipodi:namedview
   pagecolor="#ffffff"
   bordercolor="#666666"
   borderopacity="1"
   objecttolerance="10"
   gridtolerance="10"
   guidetolerance="10"
   inkscape:pageopacity="0"
   inkscape:pageshadow="2"
   inkscape:window-width="1920"
   inkscape:window-height="1028"
   id="namedview8"
   showgrid="false"
   fit-margin-top="0"
   fit-margin-left="0"
   fit-margin-right="0"
   fit-margin-bottom="0"
   inkscape:zoom="2.36"
   inkscape:cx="48.02528"
   inkscape:cy="43.254095"
   inkscape:window-x="-8"
   inkscape:window-y="-8"
   inkscape:window-maximized="1"
   inkscape:current-layer="svg2" />
<g
   id="Captions"
   transform="translate(-1.9747202,-73.675173)">
</g>
<g
   id="Your_Icon"
   transform="matrix(0.31223297,0,0,0.34182413,-0.60473592,-12.317869)">
	<path
   style="fill:#000000"
   d="M 12.53125 0 C 12.024848 -0.00011109284 11.509368 0.28555607 11.125 0.875 L 0.3125 17.40625 C -0.45649646 18.585582 0.23029693 19.59375 1.8125 19.59375 L 23.1875 19.59375 C 24.769964 19.59375 25.455456 18.586026 24.6875 17.40625 L 13.90625 0.875 C 13.522402 0.28511238 13.037652 0.00011075102 12.53125 0 z M 10.90625 5.21875 L 14.09375 5.21875 L 14.09375 7.40625 L 13.40625 13.375 L 11.59375 13.375 L 10.90625 7.40625 L 10.90625 5.21875 z M 11.0625 14.71875 L 13.9375 14.71875 L 13.9375 17.1875 L 11.0625 17.1875 L 11.0625 14.71875 z "
   transform="matrix(3.2027367,0,0,2.925481,1.9368099,36.035692)"
   id="path6" />
</g>
</svg>