<?xml version="1.0" encoding="UTF-8" standalone="no"?>
<!-- Created with Inkscape (http://www.inkscape.org/) -->

<svg
   xmlns:dc="http://purl.org/dc/elements/1.1/"
   xmlns:cc="http://creativecommons.org/ns#"
   xmlns:rdf="http://www.w3.org/1999/02/22-rdf-syntax-ns#"
   xmlns:svg="http://www.w3.org/2000/svg"
   xmlns="http://www.w3.org/2000/svg"
   xmlns:sodipodi="http://sodipodi.sourceforge.net/DTD/sodipodi-0.dtd"
   xmlns:inkscape="http://www.inkscape.org/namespaces/inkscape"
   width="744.09448819"
   height="1052.3622047"
   id="svg3171"
   version="1.1"
   inkscape:version="0.48.2 r9819"
   sodipodi:docname="New document 9">
  <defs
     id="defs3173">
    <inkscape:perspective
       sodipodi:type="inkscape:persp3d"
       inkscape:vp_x="-223.22834 : 105.23622 : 0"
       inkscape:vp_y="3.6738191e-014 : 600 : 0"
       inkscape:vp_z="223.22834 : 105.23622 : 0"
       inkscape:persp3d-origin="321.94541 : 686.78875 : 1"
       id="perspective2985-5-17" />
  </defs>
  <sodipodi:namedview
     id="base"
     pagecolor="#ffffff"
     bordercolor="#666666"
     borderopacity="1.0"
     inkscape:pageopacity="0.0"
     inkscape:pageshadow="2"
     inkscape:zoom="2.8"
     inkscape:cx="204.28571"
     inkscape:cy="975.70707"
     inkscape:document-units="px"
     inkscape:current-layer="layer1"
     showgrid="false"
     inkscape:window-width="1920"
     inkscape:window-height="1028"
     inkscape:window-x="-8"
     inkscape:window-y="-8"
     inkscape:window-maximized="1" />
  <metadata
     id="metadata3176">
    <rdf:RDF>
      <cc:Work
         rdf:about="">
        <dc:format>image/svg+xml</dc:format>
        <dc:type
           rdf:resource="http://purl.org/dc/dcmitype/StillImage" />
        <dc:title></dc:title>
      </cc:Work>
    </rdf:RDF>
  </metadata>
  <g
     inkscape:label="Layer 1"
     inkscape:groupmode="layer"
     id="layer1">
    <path
       style="fill:#000000;fill-opacity:1;fill-rule:evenodd;stroke:#ffffff;stroke-width:0;stroke-miterlimit:4;stroke-opacity:1;stroke-dasharray:none"
       d="M 41.9375 -0.28125 A 0.30003 0.30003 0 0 0 41.90625 -0.25 A 0.30003 0.30003 0 0 0 41.875 -0.21875 A 0.30003 0.30003 0 0 0 41.75 -0.0625 A 0.30003 0.30003 0 0 0 41.71875 0.03125 L 41.71875 2.65625 L 40.625 2.78125 L 35.71875 3.4375 L 34.40625 3.625 L 35.625 4.09375 L 36.71875 4.53125 L 14.40625 15.0625 L 14.84375 13.84375 L 15.3125 12.625 L 14.3125 13.46875 L 10.5 16.625 L 9.875 17.125 L 9.875 15.21875 A 0.3750375 0.3750375 0 0 0 9.8125 15 A 0.3750375 0.3750375 0 0 0 9.4375 14.84375 A 0.3750375 0.3750375 0 0 0 9.125 15.21875 L 9.125 24.78125 A 0.3750375 0.3750375 0 0 0 9.875 24.78125 L 9.875 17.375 L 10.75 17.21875 L 11.25 17.15625 A 0.30189829 0.30189829 0 0 0 11.34375 17.15625 L 11.375 17.125 A 0.30189829 0.30189829 0 0 0 11.40625 17.125 L 15.6875 16.5625 L 17 16.375 L 15.75 15.90625 L 14.8125 15.53125 L 36.96875 5.0625 L 36.5625 6.15625 L 36.0625 7.40625 L 37.0625 6.5625 L 40.90625 3.375 L 41.71875 2.71875 L 41.71875 9.59375 A 0.30003 0.30003 0 0 0 41.71875 9.65625 A 0.30003 0.30003 0 0 0 41.78125 9.8125 L 10 24.78125 L 24.65625 31.78125 L 56.84375 16.5625 L 42.28125 9.71875 A 0.30003 0.30003 0 0 0 42.3125 9.65625 A 0.30003 0.30003 0 0 0 42.3125 9.59375 L 42.3125 0.03125 A 0.30003 0.30003 0 0 0 42.28125 -0.09375 A 0.30003 0.30003 0 0 0 42.28125 -0.125 A 0.30003 0.30003 0 0 0 42 -0.28125 A 0.30003 0.30003 0 0 0 41.9375 -0.28125 z M 57.28125 17.03125 L 25 32.28125 L 25 48.25 L 57.28125 33.0625 L 57.28125 17.03125 z M 9.59375 25.25 L 9.59375 41.28125 L 24.40625 48.25 L 24.40625 32.3125 L 9.59375 25.25 z "
       id="path2991-7-2-7" />
  </g>
</svg>
