<?xml version="1.0" encoding="UTF-8" standalone="no"?>
<!-- Created with Inkscape (http://www.inkscape.org/) -->

<svg
   xmlns:dc="http://purl.org/dc/elements/1.1/"
   xmlns:cc="http://creativecommons.org/ns#"
   xmlns:rdf="http://www.w3.org/1999/02/22-rdf-syntax-ns#"
   xmlns:svg="http://www.w3.org/2000/svg"
   xmlns="http://www.w3.org/2000/svg"
   xmlns:sodipodi="http://sodipodi.sourceforge.net/DTD/sodipodi-0.dtd"
   xmlns:inkscape="http://www.inkscape.org/namespaces/inkscape"
   width="744.09448819"
   height="1052.3622047"
   id="svg3171"
   version="1.1"
   inkscape:version="0.48.2 r9819"
   sodipodi:docname="workpieceWidth.svg">
  <defs
     id="defs3173">
    <inkscape:perspective
       sodipodi:type="inkscape:persp3d"
       inkscape:vp_x="-223.22834 : 105.23622 : 0"
       inkscape:vp_y="3.6738191e-014 : 600 : 0"
       inkscape:vp_z="223.22834 : 105.23622 : 0"
       inkscape:persp3d-origin="321.94541 : 686.78875 : 1"
       id="perspective2985-5-17" />
  </defs>
  <sodipodi:namedview
     id="base"
     pagecolor="#ffffff"
     bordercolor="#666666"
     borderopacity="1.0"
     inkscape:pageopacity="0.0"
     inkscape:pageshadow="2"
     inkscape:zoom="2.8"
     inkscape:cx="204.28571"
     inkscape:cy="975.70707"
     inkscape:document-units="px"
     inkscape:current-layer="layer1"
     showgrid="false"
     inkscape:window-width="1920"
     inkscape:window-height="1028"
     inkscape:window-x="-8"
     inkscape:window-y="-8"
     inkscape:window-maximized="1" />
  <metadata
     id="metadata3176">
    <rdf:RDF>
      <cc:Work
         rdf:about="">
        <dc:format>image/svg+xml</dc:format>
        <dc:type
           rdf:resource="http://purl.org/dc/dcmitype/StillImage" />
        <dc:title></dc:title>
      </cc:Work>
    </rdf:RDF>
  </metadata>
  <g
     inkscape:label="Layer 1"
     inkscape:groupmode="layer"
     id="layer1">
    <path
       style="fill:#000000;fill-opacity:1;fill-rule:evenodd;stroke:#ffffff;stroke-width:0;stroke-miterlimit:4;stroke-opacity:1;stroke-dasharray:none"
       d="M 42.15625 9.625 L 10 24.75 L 24.65625 31.78125 L 56.875 16.53125 L 42.15625 9.625 z M 57.28125 17 L 25 32.25 L 25 48.25 L 57.28125 33.0625 L 57.28125 17 z M 0.3125 20.78125 A 0.3750375 0.3750375 0 0 0 0.15625 20.90625 A 0.3750375 0.3750375 0 0 0 0.34375 21.5 L 1.96875 22.25 L 1.75 23 L 0.5625 26.8125 L 0.25 27.78125 L 1.03125 27.0625 L 1.59375 26.53125 L 1.59375 32.5 L 1.03125 31.90625 L 0.3125 31.15625 L 0.59375 32.1875 L 1.59375 36.03125 L 1.78125 36.75 L 1.09375 36.40625 A 0.3750375 0.3750375 0 0 0 0.90625 36.375 A 0.38305158 0.38305158 0 0 0 0.75 37.125 L 9.4375 41.15625 A 0.37791833 0.37791833 0 0 0 9.625 41.1875 L 9.625 41.25 L 24.40625 48.21875 L 24.40625 32.28125 L 9.625 25.25 L 9.625 40.40625 L 1.875 36.78125 L 2.125 36.03125 L 3.28125 32.25 L 3.625 31.21875 L 2.84375 31.96875 L 2.21875 32.5625 L 2.21875 26.46875 L 2.8125 27.125 L 3.5625 27.875 L 3.28125 26.84375 L 2.28125 23 L 2.09375 22.3125 L 8.96875 25.53125 A 0.38173637 0.38173637 0 0 0 9.4375 24.96875 A 0.38173637 0.38173637 0 0 0 9.28125 24.84375 L 0.65625 20.8125 A 0.3750375 0.3750375 0 0 0 0.4375 20.78125 A 0.3750375 0.3750375 0 0 0 0.375 20.78125 A 0.3750375 0.3750375 0 0 0 0.34375 20.78125 A 0.3750375 0.3750375 0 0 0 0.3125 20.78125 z "
       id="path2991-7-2-7-4" />
  </g>
</svg>
