<?xml version="1.0" encoding="UTF-8" standalone="no"?>
<!-- Created with Inkscape (http://www.inkscape.org/) -->

<svg
   xmlns:dc="http://purl.org/dc/elements/1.1/"
   xmlns:cc="http://creativecommons.org/ns#"
   xmlns:rdf="http://www.w3.org/1999/02/22-rdf-syntax-ns#"
   xmlns:svg="http://www.w3.org/2000/svg"
   xmlns="http://www.w3.org/2000/svg"
   xmlns:sodipodi="http://sodipodi.sourceforge.net/DTD/sodipodi-0.dtd"
   xmlns:inkscape="http://www.inkscape.org/namespaces/inkscape"
   width="744.09448819"
   height="1052.3622047"
   id="svg6524"
   version="1.1"
   inkscape:version="0.48.2 r9819"
   sodipodi:docname="wrench.svg">
  <defs
     id="defs6526" />
  <sodipodi:namedview
     id="base"
     pagecolor="#ffffff"
     bordercolor="#666666"
     borderopacity="1.0"
     inkscape:pageopacity="0.0"
     inkscape:pageshadow="2"
     inkscape:zoom="2.8"
     inkscape:cx="53.112926"
     inkscape:cy="943.83032"
     inkscape:document-units="px"
     inkscape:current-layer="layer1"
     showgrid="false"
     inkscape:window-width="1920"
     inkscape:window-height="1028"
     inkscape:window-x="-8"
     inkscape:window-y="-8"
     inkscape:window-maximized="1" />
  <metadata
     id="metadata6529">
    <rdf:RDF>
      <cc:Work
         rdf:about="">
        <dc:format>image/svg+xml</dc:format>
        <dc:type
           rdf:resource="http://purl.org/dc/dcmitype/StillImage" />
        <dc:title></dc:title>
      </cc:Work>
    </rdf:RDF>
  </metadata>
  <g
     inkscape:label="Layer 1"
     inkscape:groupmode="layer"
     id="layer1">
    <g
       id="wrench"
       transform="matrix(0.625,0,0,0.625,4.7142859,-0.20924765)">
      <path
         style="fill:#4e4e50"
         d="M 19.71875 -0.21875 C 16.9575 -0.21875 14.71875 2.02125 14.71875 4.78125 C 14.71875 5.55125 14.90625 6.284375 15.21875 6.9375 L 5.1875 16.9375 C 4.8875 17.240625 4.71875 17.66125 4.71875 18.125 C 4.71875 19.043125 5.451875 19.78125 6.375 19.78125 C 6.83625 19.78125 7.264375 19.615 7.5625 19.3125 L 17.5625 9.28125 C 18.211875 9.59125 18.95 9.78125 19.71875 9.78125 C 22.48 9.78125 24.71875 7.54125 24.71875 4.78125 C 24.71875 4.265 24.615625 3.78125 24.46875 3.3125 L 21.3125 6.46875 L 18.03125 6.46875 L 18.03125 3.125 L 21.15625 0.03125 C 20.699375 -0.106875 20.219375 -0.21875 19.71875 -0.21875 z "
         transform="matrix(1.6,0,0,1.6,-7.5428574,0.33479624)"
         id="path6" />
    </g>
  </g>
</svg>
