<?xml version="1.0" encoding="UTF-8" standalone="no"?>
<!-- Created with Inkscape (http://www.inkscape.org/) -->

<svg
   xmlns:dc="http://purl.org/dc/elements/1.1/"
   xmlns:cc="http://creativecommons.org/ns#"
   xmlns:rdf="http://www.w3.org/1999/02/22-rdf-syntax-ns#"
   xmlns:svg="http://www.w3.org/2000/svg"
   xmlns="http://www.w3.org/2000/svg"
   xmlns:sodipodi="http://sodipodi.sourceforge.net/DTD/sodipodi-0.dtd"
   xmlns:inkscape="http://www.inkscape.org/namespaces/inkscape"
   width="45"
   height="45"
   id="svg4387"
   version="1.1"
   inkscape:version="0.48.2 r9819"
   sodipodi:docname="conveyorFromIcon2.svg">
  <defs
     id="defs4389" />
  <sodipodi:namedview
     id="base"
     pagecolor="#ffffff"
     bordercolor="#666666"
     borderopacity="1.0"
     inkscape:pageopacity="0.0"
     inkscape:pageshadow="2"
     inkscape:zoom="3.6390148"
     inkscape:cx="2.4915187"
     inkscape:cy="4.53888"
     inkscape:document-units="px"
     inkscape:current-layer="layer1"
     showgrid="false"
     fit-margin-top="0"
     fit-margin-left="0"
     fit-margin-right="0"
     fit-margin-bottom="0"
     inkscape:window-width="1920"
     inkscape:window-height="1028"
     inkscape:window-x="-8"
     inkscape:window-y="-8"
     inkscape:window-maximized="1"
     showguides="true"
     inkscape:guide-bbox="true" />
  <metadata
     id="metadata4392">
    <rdf:RDF>
      <cc:Work
         rdf:about="">
        <dc:format>image/svg+xml</dc:format>
        <dc:type
           rdf:resource="http://purl.org/dc/dcmitype/StillImage" />
        <dc:title></dc:title>
      </cc:Work>
    </rdf:RDF>
  </metadata>
  <g
     inkscape:label="Layer 1"
     inkscape:groupmode="layer"
     id="layer1"
     transform="translate(-307.06344,-304.88808)">
    <path
       style="font-size:medium;font-style:normal;font-variant:normal;font-weight:normal;font-stretch:normal;text-indent:0;text-align:start;text-decoration:none;line-height:normal;letter-spacing:normal;word-spacing:normal;text-transform:none;direction:ltr;block-progression:tb;writing-mode:lr-tb;text-anchor:start;baseline-shift:baseline;color:#000000;fill:#000000;fill-opacity:1;stroke:#000000;stroke-width:1;stroke-miterlimit:4;stroke-opacity:1;stroke-dasharray:none;marker:none;visibility:visible;display:inline;overflow:visible;enable-background:accumulate;font-family:Sans;-inkscape-font-specification:Sans"
       d="m 309.40719,312.88808 c 0,1.66667 0,3.33333 0,5 2.89583,0 5.79167,0 8.6875,0 0,-1.66667 0,-3.33333 0,-5 -2.89583,0 -5.79167,0 -8.6875,0 z m 11.375,0 c 0,1.66667 0,3.33333 0,5 3.15625,0 6.3125,0 9.46875,0 0,-1.66667 0,-3.33333 0,-5 -3.15625,0 -6.3125,0 -9.46875,0 z m 12.15625,0 c 0,1.66667 0,3.33333 0,5 2.15978,0.075 4.35273,-0.1958 6.47974,0.24548 0.7101,0.48729 0.98117,-0.4946 1.42912,-0.86926 0.83368,-0.97852 1.64974,-1.9722 2.49739,-2.93872 -2.27051,-1.24208 -4.87849,-1.55224 -7.4273,-1.4375 -0.99298,0 -1.98597,0 -2.97895,0 z m 12.5625,2.96875 c -1.03143,1.2979 -2.11009,2.55767 -3.15625,3.84375 1.66628,1.65665 2.1765,4.07869 2.3125,6.34375 1.67708,0 3.35417,0 5.03125,0 -0.18788,-3.72285 -1.4203,-7.57288 -4.1875,-10.1875 z m -11.46875,6.09375 c -3.43962,0.25079 -5.81795,4.20011 -4.54759,7.37864 1.02865,3.15556 5.17685,4.56414 7.94819,2.77691 2.90671,-1.6143 3.51042,-5.96819 1.21183,-8.34889 -1.14321,-1.30202 -2.90022,-1.93123 -4.61243,-1.80666 z m 10.65625,6.78125 c -0.19916,2.2244 -0.80216,4.60713 -2.59375,6.09375 1.06244,1.27088 2.1201,2.54579 3.1875,3.8125 2.76158,-2.52416 4.16593,-6.22631 4.40625,-9.90625 -1.66667,0 -3.33333,0 -5,0 z m -4.90625,7.5625 c -1.34734,0.53692 -2.77918,0.7062 -4.21907,0.625 -0.87489,0 -1.74979,0 -2.62468,0 0,1.66667 0,3.33333 0,5 2.78706,-0.0328 5.66474,0.25454 8.30794,-0.85388 0.48128,-0.37811 2.48633,-0.54209 1.44206,-1.33362 -0.9701,-1.14466 -1.92851,-2.2994 -2.90625,-3.4375 z m -30.375,0.625 c 0,1.66667 0,3.33333 0,5 2.89583,0 5.79167,0 8.6875,0 0,-1.66667 0,-3.33333 0,-5 -2.89583,0 -5.79167,0 -8.6875,0 z m 11.375,0 c 0,1.66667 0,3.33333 0,5 3.15625,0 6.3125,0 9.46875,0 0,-1.66667 0,-3.33333 0,-5 -3.15625,0 -6.3125,0 -9.46875,0 z"
       id="path5979"
       inkscape:connector-curvature="0" />
    <g
       id="g6711"
       transform="translate(-0.53435272,0.1943127)" />
    <g
       id="g6707"
       transform="translate(-1.3601889,0.1943127)" />
    <g
       id="g6795"
       transform="translate(0,-0.22807865)" />
  </g>
</svg>
