<?xml version="1.0" encoding="UTF-8" standalone="no"?>
<!-- Created with Inkscape (http://www.inkscape.org/) -->

<svg
   xmlns:dc="http://purl.org/dc/elements/1.1/"
   xmlns:cc="http://creativecommons.org/ns#"
   xmlns:rdf="http://www.w3.org/1999/02/22-rdf-syntax-ns#"
   xmlns:svg="http://www.w3.org/2000/svg"
   xmlns="http://www.w3.org/2000/svg"
   xmlns:sodipodi="http://sodipodi.sourceforge.net/DTD/sodipodi-0.dtd"
   xmlns:inkscape="http://www.inkscape.org/namespaces/inkscape"
   width="744.09448819"
   height="1052.3622047"
   id="svg3865"
   version="1.1"
   inkscape:version="0.48.2 r9819"
   sodipodi:docname="corner-piece.svg">
  <defs
     id="defs3867" />
  <sodipodi:namedview
     id="base"
     pagecolor="#ffffff"
     bordercolor="#666666"
     borderopacity="1.0"
     inkscape:pageopacity="0.0"
     inkscape:pageshadow="2"
     inkscape:zoom="11.2"
     inkscape:cx="19.461654"
     inkscape:cy="1027.7086"
     inkscape:document-units="px"
     inkscape:current-layer="layer1"
     showgrid="false"
     inkscape:window-width="1920"
     inkscape:window-height="1028"
     inkscape:window-x="-8"
     inkscape:window-y="-8"
     inkscape:window-maximized="1" />
  <metadata
     id="metadata3870">
    <rdf:RDF>
      <cc:Work
         rdf:about="">
        <dc:format>image/svg+xml</dc:format>
        <dc:type
           rdf:resource="http://purl.org/dc/dcmitype/StillImage" />
        <dc:title />
      </cc:Work>
    </rdf:RDF>
  </metadata>
  <g
     inkscape:label="Layer 1"
     inkscape:groupmode="layer"
     id="layer1">
    <g
       id="g3066"
       transform="matrix(1.25,0,0,-1.25,318.90631,-72.786797)">
      <path
         id="path3068"
         transform="matrix(0.8,0,0,-0.8,-255.12505,-58.229438)"
         style="fill:#0000c0;fill-opacity:1;fill-rule:evenodd;stroke:none"
         d="m 2.75,0 -0.09375,0.03125 -0.125,0 L 2.40625,0.0625 2.3125,0.09375 2.1875,0.125 2.09375,0.15625 1.96875,0.1875 1.875,0.21875 1.75,0.25 1.65625,0.3125 1.5625,0.375 1.46875,0.40625 1.34375,0.46875 1.25,0.5625 1.1875,0.625 1.0625,0.6875 1,0.75 0.90625,0.84375 0.84375,0.9375 0.75,1 0.65625,1.09375 0.59375,1.1875 0.53125,1.28125 0.46875,1.375 0.40625,1.46875 0.34375,1.5625 0.3125,1.6875 0.25,1.78125 0.1875,1.875 0.15625,2 0.125,2.09375 0.09375,2.21875 0.0625,2.3125 l -0.03125,0.125 0,0.09375 L 0,2.65625 0,2.78125 0,2.875 0,3 l 0,38 0,0.28125 0,0.25 0.03125,0.28125 0.03125,0.25 0.0625,0.28125 0.03125,0.25 0.09375,0.28125 0.0625,0.25 0.09375,0.25 0.09375,0.25 0.09375,0.25 0.125,0.25 0.125,0.21875 0.125,0.25 0.15625,0.21875 0.125,0.21875 0.15625,0.21875 0.1875,0.21875 0.15625,0.1875 0.1875,0.21875 0.1875,0.1875 0.21875,0.15625 0.1875,0.1875 0.21875,0.15625 0.21875,0.1875 0.21875,0.125 0.21875,0.15625 0.25,0.125 0.21875,0.125 0.25,0.125 0.25,0.09375 0.25,0.09375 0.25,0.09375 0.25,0.0625 0.25,0.0625 0.28125,0.0625 0.25,0.0625 L 6.1875,47.96875 6.46875,48 6.71875,48 7,48 l 54.5,0 0.125,0 0.09375,0 0.125,0 0.125,-0.03125 0.09375,-0.03125 0.125,0 0.09375,-0.03125 0.125,-0.03125 0.09375,-0.03125 0.125,-0.0625 0.09375,-0.03125 0.09375,-0.0625 0.125,-0.03125 0.09375,-0.0625 0.09375,-0.0625 0.09375,-0.0625 0.09375,-0.0625 L 63.40625,47.3125 63.5,47.25 63.5625,47.15625 63.65625,47.09375 63.75,47 63.8125,46.90625 63.875,46.8125 63.9375,46.75 64,46.625 l 0.0625,-0.09375 0.0625,-0.09375 0.0625,-0.09375 0.03125,-0.125 0.0625,-0.09375 0.03125,-0.09375 0.03125,-0.125 0.03125,-0.09375 0.03125,-0.125 0.03125,-0.09375 0.03125,-0.125 0,-0.125 L 64.5,45.25 l 0,-0.125 0,-0.125 0,-11 0,-0.03125 0,-0.03125 0,-0.03125 0,-0.0625 -0.03125,-0.03125 0,-0.03125 0,-0.03125 -0.03125,-0.03125 0,-0.0625 0,-0.03125 -0.03125,-0.03125 -0.03125,-0.03125 0,-0.03125 -0.03125,-0.03125 0,-0.03125 L 64.3125,33.4375 64.28125,33.40625 64.25,33.375 64.25,33.34375 64.21875,33.3125 64.1875,33.28125 64.15625,33.25 64.125,33.21875 l -0.03125,0 -0.03125,-0.03125 -0.03125,-0.03125 -0.03125,0 -0.03125,-0.03125 -0.03125,-0.03125 -0.03125,0 -0.03125,0 -0.03125,-0.03125 -0.03125,0 -0.0625,-0.03125 -0.03125,0 -0.03125,0 -0.03125,0 L 63.625,33 63.5625,33 63.53125,33 63.5,33 l -47,0 0,0.09375 -0.03125,0.0625 0,0.09375 0,0.0625 -0.03125,0.09375 -0.03125,0.0625 -0.03125,0.09375 -0.03125,0.0625 -0.03125,0.0625 -0.03125,0.09375 -0.03125,0.0625 -0.0625,0.0625 -0.03125,0.0625 -0.0625,0.0625 -0.0625,0.0625 -0.0625,0.03125 -0.0625,0.0625 -0.0625,0.0625 -0.0625,0.03125 -0.0625,0.03125 -0.09375,0.0625 -0.0625,0.03125 -0.0625,0 -0.09375,0.03125 -0.0625,0.03125 -0.09375,0 -0.0625,0.03125 -0.09375,0 -0.09375,0 -0.0625,0 -0.09375,0 -0.0625,0 -0.09375,-0.03125 -0.0625,0 L 14.53125,34.4375 14.46875,34.40625 14.375,34.375 14.3125,34.34375 14.25,34.3125 14.1875,34.25 14.125,34.21875 14.0625,34.1875 14,34.125 13.9375,34.0625 13.875,34 13.8125,33.9375 13.78125,33.875 13.71875,33.8125 13.6875,33.75 13.65625,33.6875 13.625,33.59375 13.59375,33.53125 13.5625,33.4375 13.53125,33.375 l 0,-0.0625 -0.03125,-0.09375 0,-0.0625 0,-0.09375 0,-0.09375 0,-0.0625 0,-0.09375 0,-0.0625 0.03125,-0.09375 0.03125,-0.09375 0,-0.0625 0.03125,-0.0625 0.03125,-0.09375 0.0625,-0.0625 0.03125,-0.0625 0.03125,-0.0625 0.0625,-0.0625 0.03125,-0.0625 0.0625,-0.0625 0.0625,-0.0625 0.0625,-0.0625 0.0625,-0.03125 0.0625,-0.0625 0.0625,-0.03125 0.09375,-0.03125 0.0625,-0.03125 0.0625,-0.0625 0.09375,0 0.0625,-0.03125 0.0625,-0.03125 0.09375,0 0.0625,-0.03125 0.09375,0 L 15,31.5 15,1 15,0.96875 15,0.90625 15,0.875 14.96875,0.84375 l 0,-0.03125 0,-0.03125 L 14.9375,0.75 l 0,-0.0625 0,-0.03125 -0.03125,-0.03125 0,-0.03125 L 14.875,0.5625 14.875,0.53125 14.84375,0.5 14.8125,0.46875 14.8125,0.4375 14.78125,0.40625 14.75,0.375 14.75,0.34375 14.71875,0.3125 14.6875,0.28125 14.65625,0.25 14.625,0.21875 l -0.03125,0 L 14.5625,0.1875 14.53125,0.15625 14.5,0.15625 14.46875,0.125 14.4375,0.09375 l -0.03125,0 -0.03125,-0.03125 -0.0625,0 -0.03125,0 -0.03125,-0.03125 -0.03125,0 -0.03125,0 L 14.125,0 14.09375,0 14.0625,0 14.03125,0 14,0 3,0 2.875,0 2.75,0 z m 4.59375,10.75 0.28125,0 0.25,0.03125 0.28125,0.03125 0.25,0.03125 0.25,0.0625 0.28125,0.0625 0.25,0.09375 0.25,0.09375 0.25,0.09375 0.21875,0.125 0.25,0.125 0.21875,0.15625 0.1875,0.15625 0.21875,0.1875 0.1875,0.15625 0.1875,0.21875 0.1875,0.1875 L 11.5,12.78125 11.65625,13 l 0.125,0.21875 0.15625,0.21875 0.09375,0.25 0.125,0.25 0.0625,0.25 0.09375,0.25 0.0625,0.25 0.0625,0.28125 0.03125,0.25 0,0.28125 0.03125,0.25 -0.03125,0.28125 0,0.25 -0.03125,0.28125 -0.0625,0.25 -0.0625,0.25 -0.09375,0.25 -0.0625,0.25 -0.125,0.25 -0.09375,0.25 -0.15625,0.21875 -0.125,0.25 L 11.5,18.75 l -0.15625,0.1875 -0.1875,0.21875 -0.1875,0.1875 L 10.78125,19.5 10.5625,19.6875 10.375,19.84375 10.15625,20 l -0.25,0.125 -0.21875,0.125 -0.25,0.125 -0.25,0.09375 -0.25,0.0625 -0.28125,0.0625 -0.25,0.0625 -0.25,0.0625 L 7.875,20.75 l -0.25,0 -0.28125,0 -0.25,0 -0.28125,-0.03125 -0.25,-0.0625 -0.25,-0.0625 -0.28125,-0.0625 -0.25,-0.0625 L 5.5625,20.375 5.3125,20.25 5.0625,20.125 4.84375,20 4.625,19.84375 4.40625,19.6875 4.1875,19.5 4,19.34375 3.8125,19.15625 3.65625,18.9375 3.46875,18.75 3.3125,18.53125 l -0.125,-0.25 -0.125,-0.21875 -0.125,-0.25 -0.09375,-0.25 -0.09375,-0.25 -0.09375,-0.25 -0.0625,-0.25 -0.03125,-0.25 -0.0625,-0.28125 0,-0.25 0,-0.28125 0,-0.25 0,-0.28125 0.0625,-0.25 0.03125,-0.28125 0.0625,-0.25 0.09375,-0.25 0.09375,-0.25 0.09375,-0.25 0.125,-0.25 0.125,-0.21875 L 3.3125,13 3.46875,12.78125 3.65625,12.5625 3.8125,12.375 4,12.15625 4.1875,12 4.40625,11.8125 4.625,11.65625 4.84375,11.5 5.0625,11.375 l 0.25,-0.125 0.25,-0.09375 0.21875,-0.09375 0.25,-0.09375 0.28125,-0.0625 0.25,-0.0625 0.25,-0.03125 0.28125,-0.03125 0.25,-0.03125 z m 0,24.75 0.28125,0 0.25,0.03125 0.28125,0.03125 0.25,0.03125 0.25,0.0625 0.28125,0.0625 0.25,0.09375 0.25,0.09375 0.25,0.09375 0.21875,0.125 0.25,0.125 0.21875,0.15625 0.1875,0.15625 0.21875,0.1875 0.1875,0.1875 0.1875,0.1875 0.1875,0.1875 0.15625,0.21875 0.15625,0.21875 0.125,0.21875 0.15625,0.21875 0.09375,0.25 0.125,0.25 0.0625,0.25 0.09375,0.25 0.0625,0.25 0.0625,0.28125 0.03125,0.25 0,0.28125 0.03125,0.25 -0.03125,0.28125 0,0.25 -0.03125,0.28125 -0.0625,0.25 -0.0625,0.25 -0.09375,0.25 -0.0625,0.25 -0.125,0.25 -0.09375,0.25 -0.15625,0.25 -0.125,0.21875 L 11.5,43.5 l -0.15625,0.1875 -0.1875,0.21875 -0.1875,0.1875 L 10.78125,44.25 10.5625,44.4375 10.375,44.59375 10.15625,44.75 9.90625,44.875 9.6875,45 l -0.25,0.125 -0.25,0.09375 -0.25,0.09375 -0.28125,0.0625 -0.25,0.03125 -0.25,0.0625 L 7.875,45.5 l -0.25,0 -0.28125,0 -0.25,0 L 6.8125,45.46875 6.5625,45.40625 6.3125,45.375 6.03125,45.3125 5.78125,45.21875 5.5625,45.125 5.3125,45 5.0625,44.875 4.84375,44.75 4.625,44.59375 4.40625,44.4375 4.1875,44.25 4,44.09375 3.8125,43.90625 3.65625,43.6875 3.46875,43.5 3.3125,43.28125 3.1875,43.0625 l -0.125,-0.25 -0.125,-0.25 -0.09375,-0.25 -0.09375,-0.25 -0.09375,-0.25 -0.0625,-0.25 -0.03125,-0.25 -0.0625,-0.28125 0,-0.25 0,-0.28125 0,-0.25 0,-0.28125 0.0625,-0.25 0.03125,-0.28125 0.0625,-0.25 0.09375,-0.25 0.09375,-0.25 0.09375,-0.25 0.125,-0.25 0.125,-0.21875 L 3.3125,37.75 3.46875,37.53125 3.65625,37.3125 3.8125,37.125 4,36.9375 4.1875,36.75 4.40625,36.5625 4.625,36.40625 4.84375,36.25 5.0625,36.125 5.3125,36 l 0.25,-0.09375 0.21875,-0.09375 0.25,-0.09375 0.28125,-0.0625 0.25,-0.0625 0.25,-0.03125 0.28125,-0.03125 0.25,-0.03125 z m 24.6875,0 0.25,0 0.28125,0 0.25,0.03125 0.25,0.03125 0.25,0.0625 0.28125,0.0625 0.21875,0.0625 0.25,0.09375 0.25,0.125 0.21875,0.09375 0.25,0.125 0.21875,0.125 0.1875,0.15625 0.21875,0.15625 0.1875,0.1875 0.1875,0.15625 0.1875,0.21875 0.03125,0 0,0.03125 0.03125,0.03125 0.03125,0 0,0.03125 0.03125,0 0.03125,0.03125 0.03125,0.03125 0.03125,0 0.03125,0.03125 0.03125,0 0,0.03125 0.03125,0 0.03125,0 0.03125,0.03125 0.03125,0 0.03125,0.03125 0.03125,0 0.03125,0 0.03125,0 0.03125,0.03125 0.03125,0 0.03125,0 0.03125,0 0.03125,0 0.03125,0 0.03125,0 1.3125,0 0.03125,0 0.03125,0 0.03125,0 0.03125,0 0.03125,0 0.03125,-0.03125 0.03125,0 0.03125,0 0.03125,0 0.03125,0 0.03125,-0.03125 0.03125,-0.03125 0.03125,0 0.03125,0 L 38.5,37.375 l 0.03125,0 0,-0.03125 0.03125,0 0.03125,-0.03125 0.03125,0 0.03125,-0.03125 0.03125,-0.03125 0.03125,0 0,-0.03125 0.03125,-0.03125 0.03125,0 0.15625,-0.21875 0.1875,-0.15625 0.21875,-0.1875 0.1875,-0.15625 0.21875,-0.15625 0.21875,-0.125 0.21875,-0.125 0.25,-0.09375 0.21875,-0.125 0.25,-0.09375 0.25,-0.0625 0.25,-0.0625 0.25,-0.0625 0.25,-0.03125 0.28125,-0.03125 0.25,0 0.25,0 0.28125,0.03125 0.25,0.03125 0.25,0.03125 0.25,0.0625 0.25,0.0625 0.25,0.09375 0.25,0.09375 0.21875,0.125 0.25,0.09375 0.21875,0.125 0.21875,0.15625 0.1875,0.15625 0.21875,0.15625 0.1875,0.1875 0.15625,0.1875 0.1875,0.1875 0.15625,0.1875 0.15625,0.21875 0.15625,0.21875 0.125,0.25 L 47,38.375 l 0.125,0.25 0.09375,0.21875 0.0625,0.25 0.0625,0.25 0.0625,0.25 0.0625,0.25 0,0.28125 0.03125,0.25 0,0.25 -0.03125,0.28125 0,0.25 -0.0625,0.25 -0.0625,0.25 -0.0625,0.25 -0.0625,0.25 -0.09375,0.25 -0.125,0.25 -0.09375,0.21875 -0.125,0.21875 -0.15625,0.21875 -0.15625,0.21875 -0.15625,0.1875 -0.1875,0.1875 -0.15625,0.1875 -0.1875,0.1875 -0.21875,0.15625 -0.1875,0.15625 -0.21875,0.15625 -0.21875,0.125 -0.25,0.125 -0.21875,0.09375 -0.25,0.09375 -0.25,0.09375 -0.25,0.0625 -0.25,0.0625 -0.25,0.0625 -0.25,0 -0.28125,0.03125 -0.25,0 -0.25,0 -0.28125,-0.03125 -0.25,-0.03125 -0.25,-0.0625 -0.25,-0.0625 -0.25,-0.0625 -0.25,-0.09375 -0.21875,-0.09375 -0.25,-0.125 -0.21875,-0.125 L 39.75,44.6875 39.53125,44.53125 39.34375,44.375 39.125,44.21875 38.9375,44.03125 38.78125,43.84375 38.75,43.8125 l -0.03125,0 0,-0.03125 -0.03125,-0.03125 -0.03125,0 0,-0.03125 -0.03125,-0.03125 -0.03125,0 -0.03125,0 -0.03125,-0.03125 0,-0.03125 -0.03125,0 -0.03125,0 -0.03125,-0.03125 -0.03125,0 -0.03125,-0.03125 -0.03125,0 -0.03125,0 -0.03125,-0.03125 -0.03125,0 -0.03125,0 -0.03125,0 -0.03125,-0.03125 -0.03125,0 -0.03125,0 -0.03125,0 -0.03125,0 -1.3125,0 -0.03125,0 -0.03125,0 -0.03125,0 -0.03125,0 -0.03125,0 -0.03125,0.03125 -0.03125,0 -0.03125,0 -0.03125,0.03125 -0.03125,0 -0.03125,0 -0.03125,0 -0.03125,0.03125 -0.03125,0 -0.03125,0.03125 -0.03125,0 -0.03125,0.03125 -0.03125,0.03125 -0.03125,0 -0.03125,0.03125 L 36.0625,43.75 36.03125,43.78125 36,43.8125 l -0.03125,0.03125 -0.1875,0.1875 -0.1875,0.1875 L 35.40625,44.375 35.1875,44.53125 35,44.6875 l -0.21875,0.125 -0.25,0.125 -0.21875,0.125 -0.25,0.09375 -0.25,0.09375 -0.21875,0.0625 -0.28125,0.0625 -0.25,0.0625 -0.25,0.03125 -0.25,0.03125 -0.28125,0 -0.25,0 -0.25,-0.03125 -0.25,0 -0.25,-0.0625 L 31,45.34375 30.75,45.28125 30.53125,45.1875 30.28125,45.09375 30.03125,45 29.8125,44.875 29.59375,44.75 29.375,44.59375 29.15625,44.4375 l -0.1875,-0.15625 -0.1875,-0.1875 -0.1875,-0.1875 -0.1875,-0.1875 -0.15625,-0.1875 -0.15625,-0.21875 -0.125,-0.21875 -0.125,-0.21875 -0.125,-0.21875 -0.09375,-0.25 -0.09375,-0.25 -0.09375,-0.25 -0.0625,-0.25 -0.0625,-0.25 -0.03125,-0.25 -0.03125,-0.25 0,-0.28125 0,-0.25 0,-0.25 0.03125,-0.28125 0.03125,-0.25 0.0625,-0.25 0.0625,-0.25 0.09375,-0.25 0.09375,-0.21875 0.09375,-0.25 0.125,-0.21875 0.125,-0.25 0.125,-0.21875 0.15625,-0.21875 0.15625,-0.1875 0.1875,-0.1875 0.1875,-0.1875 0.1875,-0.1875 0.1875,-0.15625 0.21875,-0.15625 0.21875,-0.15625 0.21875,-0.125 0.21875,-0.09375 0.25,-0.125 0.25,-0.09375 0.21875,-0.09375 0.25,-0.0625 0.28125,-0.0625 0.25,-0.03125 0.25,-0.03125 0.25,-0.03125 z" />
    </g>
  </g>
</svg>
