<?xml version="1.0" encoding="UTF-8" standalone="no"?>
<!-- Created with Inkscape (http://www.inkscape.org/) -->

<svg
   xmlns:dc="http://purl.org/dc/elements/1.1/"
   xmlns:cc="http://creativecommons.org/ns#"
   xmlns:rdf="http://www.w3.org/1999/02/22-rdf-syntax-ns#"
   xmlns:svg="http://www.w3.org/2000/svg"
   xmlns="http://www.w3.org/2000/svg"
   xmlns:sodipodi="http://sodipodi.sourceforge.net/DTD/sodipodi-0.dtd"
   xmlns:inkscape="http://www.inkscape.org/namespaces/inkscape"
   width="744.09448819"
   height="1052.3622047"
   id="svg3361"
   version="1.1"
   inkscape:version="0.48.2 r9819"
   sodipodi:docname="New document 16">
  <defs
     id="defs3363" />
  <sodipodi:namedview
     id="base"
     pagecolor="#ffffff"
     bordercolor="#666666"
     borderopacity="1.0"
     inkscape:pageopacity="0.0"
     inkscape:pageshadow="2"
     inkscape:zoom="2.8"
     inkscape:cx="204.42737"
     inkscape:cy="1048.5714"
     inkscape:document-units="px"
     inkscape:current-layer="layer1"
     showgrid="false"
     inkscape:window-width="1920"
     inkscape:window-height="1028"
     inkscape:window-x="-8"
     inkscape:window-y="-8"
     inkscape:window-maximized="1" />
  <metadata
     id="metadata3366">
    <rdf:RDF>
      <cc:Work
         rdf:about="">
        <dc:format>image/svg+xml</dc:format>
        <dc:type
           rdf:resource="http://purl.org/dc/dcmitype/StillImage" />
        <dc:title></dc:title>
      </cc:Work>
    </rdf:RDF>
  </metadata>
  <g
     inkscape:label="Layer 1"
     inkscape:groupmode="layer"
     id="layer1">
    <path
       style="fill:#282a1f"
       d="M 35.40625 -0.125 C 35.18451 0.369965 34.971527 0.88553897 34.8125 1.40625 C 34.50338 1.42127 34.212143 1.41202 33.90625 1.46875 C 33.598443 1.51 33.299107 1.56994 33 1.65625 C 32.703287 1.2108788 32.35322 0.755266 32 0.34375 C 31.281753 0.588728 30.58076 0.88010797 29.9375 1.28125 C 30.02441 1.8278298 30.13283 2.351066 30.28125 2.875 C 30.03627 3.064187 29.787327 3.255364 29.5625 3.46875 C 29.333493 3.677248 29.076587 3.857595 28.875 4.09375 C 28.383854 3.878572 27.870426 3.693854 27.34375 3.53125 C 26.875968 4.125396 26.451996 4.751803 26.125 5.4375 C 26.491933 5.850807 26.880818 6.235519 27.28125 6.59375 C 27.176578 6.885577 27.050528 7.169532 26.96875 7.46875 C 26.89734 7.770475 26.786716 8.066485 26.75 8.375 C 26.221062 8.4606 25.691027 8.569736 25.15625 8.71875 C 25.07411 9.470852 25.07399 10.247898 25.15625 11 C 25.691147 11.148894 26.221062 11.258158 26.75 11.34375 C 26.78671 11.65215 26.897341 11.94828 26.96875 12.25 C 27.05077 12.549218 27.176583 12.833053 27.28125 13.125 C 26.880823 13.483351 26.491929 13.867947 26.125 14.28125 C 26.451996 14.966832 26.875968 15.593353 27.34375 16.1875 C 27.870426 16.024895 28.383734 15.840294 28.875 15.625 C 29.076347 15.861036 29.333493 16.072868 29.5625 16.28125 C 29.787327 16.494757 30.03639 16.654559 30.28125 16.84375 C 30.13283 17.367799 30.024527 17.890922 29.9375 18.4375 C 30.58088 18.838647 31.281633 19.130023 32 19.375 C 32.35322 18.963365 32.703287 18.507869 33 18.0625 C 33.2991 18.14881 33.598563 18.208991 33.90625 18.25 C 34.212263 18.30686 34.50338 18.32885 34.8125 18.34375 C 34.97164 18.864581 35.18439 19.380155 35.40625 19.875 C 36.158823 19.84962 36.924177 19.735099 37.65625 19.53125 C 37.72825 18.982522 37.745347 18.455934 37.75 17.90625 C 38.03932 17.794552 38.34974 17.706984 38.625 17.5625 C 38.905387 17.428984 39.20851 17.2944 39.46875 17.125 C 39.87979 17.469044 40.322763 17.823871 40.78125 18.125 C 41.39757 17.686302 41.964483 17.189462 42.46875 16.625 C 42.231996 16.125266 41.97456 15.646935 41.6875 15.1875 C 41.869533 14.937273 42.091807 14.704291 42.25 14.4375 C 42.40938 14.17166 42.561613 13.90956 42.6875 13.625 C 43.220253 13.69319 43.78787 13.741058 44.34375 13.75 C 44.625324 13.045227 44.847277 12.31174 44.96875 11.5625 C 44.499543 11.270193 44.01239 11.010734 43.53125 10.78125 C 43.56045 10.47321 43.57895 10.183755 43.59375 9.875 C 43.57895 9.566245 43.56032 9.245425 43.53125 8.9375 C 44.01239 8.7079 44.499543 8.448552 44.96875 8.15625 C 44.847277 7.40701 44.625444 6.673524 44.34375 5.96875 C 43.78787 5.97755 43.220253 6.025323 42.6875 6.09375 C 42.561613 5.809195 42.409386 5.54709 42.25 5.28125 C 42.091693 5.014455 41.869773 4.781472 41.6875 4.53125 C 41.97456 4.07181 42.231996 3.593484 42.46875 3.09375 C 41.96437 2.529287 41.36632 2.0323229 40.75 1.59375 C 40.291394 1.8949939 39.84842 2.249589 39.4375 2.59375 C 39.17714 2.424229 38.905147 2.289766 38.625 2.15625 C 38.34962 2.011766 38.039447 1.924083 37.75 1.8125 C 37.7453 1.2628204 37.728253 0.736224 37.65625 0.1875 C 36.924057 -0.016589 36.158943 -0.099609 35.40625 -0.125 z M 35.09375 4.96875 C 35.792495 4.9680862 36.49592 5.1518618 37.125 5.4375 C 37.970206 5.819571 38.715684 6.437323 39.21875 7.21875 C 39.728377 8.001012 39.986767 8.93943 40 9.875 C 39.98673 10.810444 39.728257 11.717502 39.21875 12.5 C 38.715564 13.281666 37.970086 13.930429 37.125 14.3125 C 36.286226 14.693496 35.32835 14.83365 34.40625 14.6875 C 33.485943 14.564828 32.61007 14.171788 31.90625 13.5625 C 31.19933 12.953691 30.700246 12.137644 30.4375 11.25 C 30.175954 10.361524 30.176074 9.38848 30.4375 8.5 C 30.700246 7.612596 31.19945 6.796544 31.90625 6.1875 C 32.61007 5.578451 33.485943 5.153917 34.40625 5.03125 C 34.636803 4.9946823 34.860835 4.9689713 35.09375 4.96875 z M 15.59375 8.0625 C 15.26114 8.804947 14.98854 9.5939343 14.75 10.375 C 14.28632 10.39753 13.80259 10.414897 13.34375 10.5 C 12.88204 10.56187 12.44866 10.620533 12 10.75 C 11.55493 10.081941 11.02983 9.429773 10.5 8.8125 C 9.4226297 9.179966 8.3711396 9.6170363 7.40625 10.21875 C 7.53661 11.038622 7.71487 11.8391 7.9375 12.625 C 7.57003 12.90878 7.18099 13.14867 6.84375 13.46875 C 6.500239 13.781496 6.146131 14.083267 5.84375 14.4375 C 5.107031 14.114733 4.321263 13.806407 3.53125 13.5625 C 2.829576 14.453719 2.177994 15.408954 1.6875 16.4375 C 2.2379 17.05746 2.805603 17.650154 3.40625 18.1875 C 3.249243 18.625241 3.091417 19.051173 2.96875 19.5 C 2.861636 19.952587 2.711324 20.380977 2.65625 20.84375 C 1.862844 20.972144 1.052166 21.151479 0.25 21.375 C 0.126793 22.503153 0.126613 23.653097 0.25 24.78125 C 1.052346 25.004591 1.862844 25.184113 2.65625 25.3125 C 2.71131 25.7751 2.861636 26.20367 2.96875 26.65625 C 3.091777 27.105077 3.24925 27.530829 3.40625 27.96875 C 2.80561 28.506276 2.237893 29.098796 1.6875 29.71875 C 2.177994 30.747123 2.829576 31.67128 3.53125 32.5625 C 4.321263 32.318593 5.106851 32.041691 5.84375 31.71875 C 6.145771 32.072804 6.500239 32.374928 6.84375 32.6875 C 7.18099 33.007761 7.57021 33.247463 7.9375 33.53125 C 7.71487 34.317323 7.53679 35.117634 7.40625 35.9375 C 8.3713196 36.539221 9.4224497 36.976284 10.5 37.34375 C 11.02983 36.726297 11.55493 36.043053 12 35.375 C 12.44865 35.504461 12.88222 35.594737 13.34375 35.65625 C 13.80277 35.74154 14.28632 35.758897 14.75 35.78125 C 14.98871 36.562496 15.26096 37.320233 15.59375 38.0625 C 16.72261 38.02443 17.87064 37.899523 18.96875 37.59375 C 19.07675 36.770657 19.14927 35.980777 19.15625 35.15625 C 19.59023 34.988703 20.02461 34.872976 20.4375 34.65625 C 20.85808 34.455976 21.29714 34.2541 21.6875 34 C 22.30406 34.516066 22.96852 35.017057 23.65625 35.46875 C 24.58073 34.810703 25.46235 34.065444 26.21875 33.21875 C 25.86362 32.46915 25.46184 31.782903 25.03125 31.09375 C 25.3043 30.718409 25.63771 30.368936 25.875 29.96875 C 26.11407 29.56999 26.34242 29.17684 26.53125 28.75 C 27.33038 28.852286 28.16618 28.892838 29 28.90625 C 29.42236 27.849091 29.75529 26.78011 29.9375 25.65625 C 29.23369 25.21779 28.53421 24.812976 27.8125 24.46875 C 27.8563 24.00669 27.8528 23.525633 27.875 23.0625 C 27.8528 22.599367 27.8561 22.149387 27.8125 21.6875 C 28.53421 21.3431 29.23369 20.938453 29.9375 20.5 C 29.75529 19.37614 29.42254 18.30716 29 17.25 C 28.16618 17.2632 27.33038 17.30361 26.53125 17.40625 C 26.34242 16.979417 26.11408 16.58626 25.875 16.1875 C 25.63754 15.787307 25.30466 15.437834 25.03125 15.0625 C 25.46184 14.37334 25.86362 13.6871 26.21875 12.9375 C 25.46218 12.090806 24.58073 11.34536 23.65625 10.6875 C 22.96834 11.139366 22.30388 11.64001 21.6875 12.15625 C 21.29696 11.90197 20.85772 11.700274 20.4375 11.5 C 20.02443 11.283274 19.59042 11.167374 19.15625 11 C 19.14925 10.17548 19.07676 9.385587 18.96875 8.5625 C 17.87046 8.256367 16.72279 8.100586 15.59375 8.0625 z M 15.15625 15.75 C 16.204368 15.749002 17.24388 15.977786 18.1875 16.40625 C 19.45531 16.979357 20.5579 17.952859 21.3125 19.125 C 22.07694 20.298393 22.48015 21.659146 22.5 23.0625 C 22.4801 24.465667 22.07676 25.857504 21.3125 27.03125 C 20.55772 28.20375 19.45513 29.176893 18.1875 29.75 C 16.92934 30.321494 15.50815 30.531726 14.125 30.3125 C 12.74454 30.128493 11.43073 29.507683 10.375 28.59375 C 9.3146197 27.680537 8.5191196 26.487716 8.125 25.15625 C 7.73268 23.823536 7.73286 22.33272 8.125 21 C 8.5191196 19.668894 9.3147997 18.444816 10.375 17.53125 C 11.43073 16.617677 12.74454 16.02775 14.125 15.84375 C 14.47083 15.788899 14.806877 15.750333 15.15625 15.75 z "
       id="path3107" />
  </g>
</svg>
