<?xml version="1.0" encoding="UTF-8" standalone="no"?>
<!-- Created with Inkscape (http://www.inkscape.org/) -->

<svg
   xmlns:dc="http://purl.org/dc/elements/1.1/"
   xmlns:cc="http://creativecommons.org/ns#"
   xmlns:rdf="http://www.w3.org/1999/02/22-rdf-syntax-ns#"
   xmlns:svg="http://www.w3.org/2000/svg"
   xmlns="http://www.w3.org/2000/svg"
   xmlns:sodipodi="http://sodipodi.sourceforge.net/DTD/sodipodi-0.dtd"
   xmlns:inkscape="http://www.inkscape.org/namespaces/inkscape"
   width="744.09448819"
   height="1052.3622047"
   id="svg3181"
   version="1.1"
   inkscape:version="0.48.2 r9819"
   sodipodi:docname="gearIcon.svg">
  <defs
     id="defs3183" />
  <sodipodi:namedview
     id="base"
     pagecolor="#ffffff"
     bordercolor="#666666"
     borderopacity="1.0"
     inkscape:pageopacity="0.0"
     inkscape:pageshadow="2"
     inkscape:zoom="7.919596"
     inkscape:cx="44.67676"
     inkscape:cy="1018.8234"
     inkscape:document-units="px"
     inkscape:current-layer="layer1"
     showgrid="false"
     inkscape:window-width="1920"
     inkscape:window-height="1028"
     inkscape:window-x="-8"
     inkscape:window-y="-8"
     inkscape:window-maximized="1" />
  <metadata
     id="metadata3186">
    <rdf:RDF>
      <cc:Work
         rdf:about="">
        <dc:format>image/svg+xml</dc:format>
        <dc:type
           rdf:resource="http://purl.org/dc/dcmitype/StillImage" />
        <dc:title></dc:title>
      </cc:Work>
    </rdf:RDF>
  </metadata>
  <g
     inkscape:label="Layer 1"
     inkscape:groupmode="layer"
     id="layer1">
    <g
       transform="matrix(0.11921082,0,0,0.11921082,-45.357423,0.02655041)"
       id="g3101">
      <path
         style="fill:none"
         inkscape:connector-curvature="0"
         d="m 489.683,67.696 c -3.093,-4.802 -7.617,-8.756 -12.796,-11.088 -5.117,-2.315 -11.037,-3.304 -16.733,-2.373 -5.645,0.738 -10.978,3.241 -15.323,6.99 -4.362,3.754 -7.548,8.776 -9.16,14.196 -1.604,5.419 -1.603,11.508 0,16.926 1.613,5.421 4.799,10.443 9.161,14.197 4.347,3.75 9.68,6.252 15.324,6.991 5.695,0.931 11.614,-0.058 16.73,-2.374 5.179,-2.332 9.703,-6.287 12.797,-11.09 3.14,-4.818 4.666,-10.395 4.786,-16.188 -0.12,-5.793 -1.645,-11.367 -4.786,-16.187 z"
         id="path3103" />
      <path
         style="fill:none"
         inkscape:connector-curvature="0"
         d="m 498.893,61.766 c -4.22,-6.555 -10.36,-11.914 -17.45,-15.119 -7.036,-3.195 -15.1,-4.482 -22.836,-3.256 -7.72,1.028 -15.05,4.449 -20.954,9.559 -5.929,5.108 -10.291,11.946 -12.495,19.391 -2.193,7.453 -2.193,15.637 10e-4,23.09 2.204,7.445 6.566,14.283 12.496,19.391 5.904,5.11 13.234,8.531 20.954,9.561 7.735,1.227 15.798,-0.061 22.834,-3.257 7.089,-3.205 13.229,-8.565 17.45,-15.12 4.274,-6.564 6.42,-14.272 6.531,-22.119 -0.111,-7.85 -2.256,-15.559 -6.531,-22.121 z m -2.84,42.409 c -3.873,6.015 -9.516,10.941 -16.016,13.878 -6.444,2.924 -13.846,4.119 -20.952,2.984 -7.079,-0.939 -13.794,-4.078 -19.218,-8.768 -5.446,-4.691 -9.445,-10.97 -11.468,-17.79 -2.012,-6.825 -2.012,-14.363 0,-21.188 2.021,-6.821 6.021,-13.1 11.466,-17.789 5.424,-4.69 12.139,-7.828 19.219,-8.768 7.107,-1.135 14.509,0.06 20.954,2.983 6.5,2.937 12.142,7.862 16.015,13.876 3.925,6.025 5.879,13.076 5.993,20.291 -0.114,7.214 -2.068,14.264 -5.993,20.291 z"
         id="path3105" />
      <path
         style="fill:#002a1f;fill-opacity:1"
         d="M 10.3125,0.03125 C 10.090768,0.52621332 9.8777772,1.0417871 9.71875,1.5625 9.4096363,1.5775206 9.118395,1.5682556 8.8125,1.625 8.5046977,1.6662469 8.2053499,1.7261914 7.90625,1.8125 7.6095343,1.3671284 7.2594717,0.91151575 6.90625,0.5 6.1880048,0.74497824 5.4870116,1.0676056 4.84375,1.46875 4.9306547,2.0153316 5.0390825,2.5073184 5.1875,3.03125 4.9425218,3.2204376 4.6935816,3.4116126 4.46875,3.625 4.239746,3.8334997 3.9828355,4.0138434 3.78125,4.25 3.2901014,4.0348245 2.7766734,3.8501036 2.25,3.6875 1.7822167,4.2816467 1.3582453,4.9080494 1.03125,5.59375 1.3981809,6.0070539 1.7870709,6.3917715 2.1875,6.75 2.0828329,7.0418281 1.9567786,7.3257808 1.875,7.625 1.8035927,7.9267226 1.6929669,8.2227324 1.65625,8.53125 1.1273116,8.616843 0.59727974,8.7572365 0.0625,8.90625 c -0.0821363,0.7521011 -0.0822555,1.497899 0,2.25 0.53489895,0.148894 1.0648116,0.258157 1.59375,0.34375 0.036717,0.308398 0.1473427,0.604527 0.21875,0.90625 0.082017,0.299219 0.2078329,0.583053 0.3125,0.875 -0.4004291,0.358348 -0.7893191,0.742946 -1.15625,1.15625 0.3269953,0.685581 0.7509667,1.312103 1.21875,1.90625 0.5266734,-0.162604 1.0399822,-0.347205 1.53125,-0.5625 0.2013471,0.236037 0.458496,0.447869 0.6875,0.65625 0.2248316,0.213507 0.473891,0.373312 0.71875,0.5625 -0.1484175,0.524051 -0.2567261,1.047168 -0.34375,1.59375 0.6433808,0.401144 1.3441356,0.692522 2.0625,0.9375 0.3532217,-0.411635 0.7032843,-0.867128 1,-1.3125 0.2990999,0.08631 0.5985669,0.146491 0.90625,0.1875 0.3060142,0.05686 0.5971363,0.07885 0.90625,0.09375 0.1591464,0.520832 0.371899,1.036406 0.59375,1.53125 0.752578,-0.02539 1.486676,-0.139899 2.21875,-0.34375 0.072,-0.548727 0.120351,-1.075319 0.125,-1.625 0.289325,-0.111701 0.599742,-0.168016 0.875,-0.3125 0.280384,-0.133516 0.552263,-0.268101 0.8125,-0.4375 0.411039,0.344042 0.854015,0.667623 1.3125,0.96875 0.61632,-0.438696 1.214488,-0.935537 1.71875,-1.5 -0.236753,-0.499732 -0.49419,-0.946811 -0.78125,-1.40625 0.182035,-0.250224 0.373057,-0.514456 0.53125,-0.78125 0.159385,-0.26584 0.342863,-0.496694 0.46875,-0.78125 0.532753,0.06819 1.06912,0.08481 1.625,0.09375 0.281576,-0.704774 0.534774,-1.43826 0.65625,-2.1875 C 19.405786,11.426445 18.918635,11.166981 18.4375,10.9375 18.46671,10.629459 18.48522,10.340006 18.5,10.03125 18.485218,9.722494 18.466587,9.4016715 18.4375,9.09375 18.918635,8.86415 19.405786,8.6048049 19.875,8.3125 19.753524,7.56326 19.500445,6.8297744 19.21875,6.125 18.66287,6.1338216 18.126503,6.181573 17.59375,6.25 17.467863,5.9654438 17.284385,5.7033401 17.125,5.4375 16.966688,5.1707062 16.776023,4.9377235 16.59375,4.6875 16.88081,4.2280615 17.138247,3.7497318 17.375,3.25 16.870619,2.6855368 16.27257,2.2198266 15.65625,1.78125 15.197646,2.0824957 14.75467,2.4058384 14.34375,2.75 14.083394,2.5804822 13.811395,2.4460161 13.53125,2.3125 13.255873,2.1680165 12.945694,2.0803313 12.65625,1.96875 12.65165,1.4190689 12.60325,0.8924774 12.53125,0.34375 11.799057,0.13966108 11.065197,0.0566419 10.3125,0.03125 z m -0.40625,6.5 c 1.932997,0 3.5,1.567003 3.5,3.5 0,1.932997 -1.567003,3.5 -3.5,3.5 -0.6593574,0 -1.2859787,-0.183014 -1.8125,-0.5 C 8.0753954,13.019413 8.049401,13.012173 8.03125,13 7.9547977,12.951855 7.8848134,12.897496 7.8125,12.84375 7.7624,12.804835 7.7043834,12.760282 7.65625,12.71875 7.5735231,12.647554 7.5129398,12.57843 7.4375,12.5 7.3954618,12.457962 7.3523655,12.419123 7.3125,12.375 7.2688856,12.324586 7.2281751,12.271453 7.1875,12.21875 7.1207916,12.135796 7.0590481,12.057664 7,11.96875 6.9080065,11.825555 6.8207721,11.653996 6.75,11.5 6.6792279,11.346004 6.6418218,11.19281 6.59375,11.03125 6.4504288,10.546837 6.3970726,10.006961 6.46875,9.5 c 0.023892,-0.1689869 0.077197,-0.3072491 0.125,-0.46875 0.048042,-0.1615307 0.085495,-0.3460206 0.15625,-0.5 0.0098,-0.02132 0.021034,-0.04136 0.03125,-0.0625 C 6.8463389,8.3377627 6.9196157,8.2147914 7,8.09375 7.0044454,8.0868302 6.9955068,8.0693906 7,8.0625 7.0545483,7.9817579 7.1265816,7.9195038 7.1875,7.84375 7.2643495,7.7441743 7.3502951,7.6535994 7.4375,7.5625 7.5853343,7.4146657 7.7339978,7.2758485 7.90625,7.15625 7.9377056,7.1344097 7.9678054,7.1145734 8,7.09375 c 0.030384,-0.020922 0.062781,-0.04253 0.09375,-0.0625 0.5265213,-0.3169858 1.1531426,-0.5 1.8125,-0.5 z"
         transform="matrix(8.3885003,0,0,8.3885003,380.48076,-0.22271812)"
         id="path3107"
         inkscape:connector-curvature="0" />
    </g>
  </g>
</svg>
