<?xml version="1.0" encoding="UTF-8" standalone="no"?>
<!-- Created with Inkscape (http://www.inkscape.org/) -->

<svg
   xmlns:dc="http://purl.org/dc/elements/1.1/"
   xmlns:cc="http://creativecommons.org/ns#"
   xmlns:rdf="http://www.w3.org/1999/02/22-rdf-syntax-ns#"
   xmlns:svg="http://www.w3.org/2000/svg"
   xmlns="http://www.w3.org/2000/svg"
   xmlns:sodipodi="http://sodipodi.sourceforge.net/DTD/sodipodi-0.dtd"
   xmlns:inkscape="http://www.inkscape.org/namespaces/inkscape"
   width="744.09448819"
   height="1052.3622047"
   id="svg4485"
   version="1.1"
   inkscape:version="0.48.2 r9819"
   sodipodi:docname="icongrip.svg">
  <defs
     id="defs4487" />
  <sodipodi:namedview
     id="base"
     pagecolor="#ffffff"
     bordercolor="#666666"
     borderopacity="1.0"
     inkscape:pageopacity="0.0"
     inkscape:pageshadow="2"
     inkscape:zoom="1.979899"
     inkscape:cx="375"
     inkscape:cy="966.91816"
     inkscape:document-units="px"
     inkscape:current-layer="layer1"
     showgrid="false"
     inkscape:window-width="1920"
     inkscape:window-height="1028"
     inkscape:window-x="-8"
     inkscape:window-y="-8"
     inkscape:window-maximized="1" />
  <metadata
     id="metadata4490">
    <rdf:RDF>
      <cc:Work
         rdf:about="">
        <dc:format>image/svg+xml</dc:format>
        <dc:type
           rdf:resource="http://purl.org/dc/dcmitype/StillImage" />
      </cc:Work>
    </rdf:RDF>
  </metadata>
  <g
     inkscape:label="Layer 1"
     inkscape:groupmode="layer"
     id="layer1">
    <path
       style="fill:#000000;fill-opacity:1;stroke:#000000;stroke-width:0;stroke-linecap:butt;stroke-linejoin:miter;stroke-miterlimit:4;stroke-opacity:1;stroke-dasharray:none"
       d="M 10.6875 -0.34375 L -0.125 -0.15625 L 11.21875 6.6875 L 8.875 9.9375 L 9.03125 11.5625 L 10.84375 12.09375 L 13.1875 12.28125 L 13.375 11.1875 L 12.3125 10.46875 L 13.375 7.59375 L 16.78125 6.15625 L 17.53125 8.6875 L 18.25 8.125 L 18.59375 5.0625 L 16.78125 3.46875 L 13.125 4.125 L 10.6875 -0.34375 z M 17.84375 11.1875 C 16.72967 11.1875 15.84375 12.07342 15.84375 13.1875 C 15.84375 14.301579 16.72967 15.21875 17.84375 15.21875 C 18.957829 15.21875 19.875 14.301579 19.875 13.1875 C 19.875 12.07342 18.957829 11.1875 17.84375 11.1875 z "
       id="path3945" />
  </g>
</svg>
