<?xml version="1.0" encoding="UTF-8" standalone="no"?>
<!-- Created with Inkscape (http://www.inkscape.org/) -->

<svg
   xmlns:dc="http://purl.org/dc/elements/1.1/"
   xmlns:cc="http://creativecommons.org/ns#"
   xmlns:rdf="http://www.w3.org/1999/02/22-rdf-syntax-ns#"
   xmlns:svg="http://www.w3.org/2000/svg"
   xmlns="http://www.w3.org/2000/svg"
   xmlns:sodipodi="http://sodipodi.sourceforge.net/DTD/sodipodi-0.dtd"
   xmlns:inkscape="http://www.inkscape.org/namespaces/inkscape"
   width="744.09448819"
   height="1052.3622047"
   id="svg3284"
   version="1.1"
   inkscape:version="0.48.2 r9819"
   sodipodi:docname="horizontal.svg">
  <defs
     id="defs3286" />
  <sodipodi:namedview
     id="base"
     pagecolor="#ffffff"
     bordercolor="#666666"
     borderopacity="1.0"
     inkscape:pageopacity="0.0"
     inkscape:pageshadow="2"
     inkscape:zoom="11.2"
     inkscape:cx="-1.9381887"
     inkscape:cy="1038.4519"
     inkscape:document-units="px"
     inkscape:current-layer="layer1"
     showgrid="false"
     inkscape:window-width="1920"
     inkscape:window-height="1028"
     inkscape:window-x="-8"
     inkscape:window-y="-8"
     inkscape:window-maximized="1" />
  <metadata
     id="metadata3289">
    <rdf:RDF>
      <cc:Work
         rdf:about="">
        <dc:format>image/svg+xml</dc:format>
        <dc:type
           rdf:resource="http://purl.org/dc/dcmitype/StillImage" />
        <dc:title></dc:title>
      </cc:Work>
    </rdf:RDF>
  </metadata>
  <g
     inkscape:label="Layer 1"
     inkscape:groupmode="layer"
     id="layer1">
    <g
       id="arrow_x5F_right"
       transform="matrix(0.21875,0,0,0.21875,0.01128628,2.0763793)" />
    <g
       id="arrow_x5F_right-7"
       transform="matrix(-0.21875,0,0,0.21875,30.761286,2.0763793)">
      <path
         style="fill:#4e4e50"
         d="M 7 0 L 7 5.5625 L 7 11.15625 L 9 11.15625 L 9 0 L 7 0 z M 7 5.5625 L 3.5 2.0625 L 2.28125 3.3125 L 3.65625 4.6875 L 0 4.6875 L 0 6.46875 L 3.65625 6.46875 L 2.28125 7.84375 L 3.5 9.0625 L 7 5.5625 z M 11 0 L 11 11.15625 L 23.75 11.15625 L 23.75 5.5625 L 23.75 0 L 11 0 z M 23.75 5.5625 L 27.25 9.0625 L 28.5 7.84375 L 27.125 6.46875 L 30.75 6.46875 L 30.75 4.6875 L 27.125 4.6875 L 28.5 3.3125 L 27.25 2.0625 L 23.75 5.5625 z "
         transform="matrix(-4.5714286,0,0,4.5714286,140.62302,-9.4920197)"
         id="path6364-4" />
    </g>
  </g>
</svg>
