<?xml version="1.0" encoding="UTF-8" standalone="no"?>
<svg
   xmlns:dc="http://purl.org/dc/elements/1.1/"
   xmlns:cc="http://creativecommons.org/ns#"
   xmlns:rdf="http://www.w3.org/1999/02/22-rdf-syntax-ns#"
   xmlns:svg="http://www.w3.org/2000/svg"
   xmlns="http://www.w3.org/2000/svg"
   xmlns:sodipodi="http://sodipodi.sourceforge.net/DTD/sodipodi-0.dtd"
   xmlns:inkscape="http://www.inkscape.org/namespaces/inkscape"
   version="1.1"
   x="0px"
   y="0px"
   width="25"
   height="25"
   viewBox="0 0 25 25"
   enable-background="new 0 0 100 100"
   xml:space="preserve"
   id="svg2"
   inkscape:version="0.48.2 r9819"
   sodipodi:docname="warning_icon.svg"><metadata
   id="metadata12"><rdf:RDF><cc:Work
       rdf:about=""><dc:format>image/svg+xml</dc:format><dc:type
         rdf:resource="http://purl.org/dc/dcmitype/StillImage" /><dc:title></dc:title></cc:Work></rdf:RDF></metadata><defs
   id="defs10" /><sodipodi:namedview
   pagecolor="#ffffff"
   bordercolor="#666666"
   borderopacity="1"
   objecttolerance="10"
   gridtolerance="10"
   guidetolerance="10"
   inkscape:pageopacity="0"
   inkscape:pageshadow="2"
   inkscape:window-width="1920"
   inkscape:window-height="1028"
   id="namedview8"
   showgrid="false"
   fit-margin-top="0"
   fit-margin-left="0"
   fit-margin-right="0"
   fit-margin-bottom="0"
   inkscape:zoom="4.72"
   inkscape:cx="48.02528"
   inkscape:cy="9.3706199"
   inkscape:window-x="-8"
   inkscape:window-y="-8"
   inkscape:window-maximized="1"
   inkscape:current-layer="svg2" />
<g
   id="Captions"
   transform="translate(-1.9747202,-68.268923)">
</g>

<path
   d="M 12.5,-1.9089388e-8 C 5.5964999,-1.9089388e-8 0,5.5965009 0,12.5 0,19.4035 5.5964999,25 12.5,25 19.4035,25 25,19.4035 25,12.5 25,5.5965009 19.4035,-1.9089388e-8 12.5,-1.9089388e-8 z M 14.6875,3.0625 c 0.328999,0 0.59325,0.10575 0.78125,0.3125 C 15.65675,3.58175 15.75,3.86475 15.75,4.25 15.74975,4.77625 15.59625,5.2055 15.28125,5.5625 14.966251,5.91975 14.6225,6.125 14.21875,6.125 13.88975,6.125 13.59125,6.00225 13.375,5.78125 13.15875,5.5605 13.0625,5.2605 13.0625,4.875 c 0,-0.47925 0.16225,-0.91475 0.5,-1.28125 0.3385,-0.3665 0.71125,-0.53125 1.125,-0.53125 z m -0.875,5.5 c 0.2245,0 0.40925,0.0605 0.53125,0.1875 0.1215,0.12675 0.1875,0.31825 0.1875,0.5625 0,0.592 -0.224,1.6865 -0.65625,3.3125 -1.101,4.1445 -1.65625,6.648 -1.65625,7.53125 0,0.31975 0.146,0.5 0.4375,0.5 0.3385,0 1.106,-0.435 2.28125,-1.28125 l 0.28125,0.5625 c -1.343749,1.0815 -2.4695,1.855 -3.34375,2.34375 -0.35775,0.2065 -0.69,0.3125 -1,0.3125 -0.254,0 -0.47325,-0.118 -0.65625,-0.34375 -0.18325,-0.2255 -0.25,-0.54575 -0.25,-0.96875 0,-0.61075 0.25175,-1.836 0.75,-3.6875 0.98275,-3.6275 1.46875,-5.81975 1.46875,-6.5625 0,-0.357 -0.13375,-0.53125 -0.40625,-0.53125 -0.301,0 -1.0565,0.40125 -2.25,1.21875 L 9.25,11.15625 C 11.572,9.417751 13.082,8.5625 13.8125,8.5625 z"
   id="path3"
   inkscape:connector-curvature="0" /></svg>