<?xml version="1.0" encoding="UTF-8" standalone="no"?>
<!-- Generator: Adobe Illustrator 15.1.0, SVG Export Plug-In . SVG Version: 6.00 Build 0)  -->

<svg
   xmlns:dc="http://purl.org/dc/elements/1.1/"
   xmlns:cc="http://creativecommons.org/ns#"
   xmlns:rdf="http://www.w3.org/1999/02/22-rdf-syntax-ns#"
   xmlns:svg="http://www.w3.org/2000/svg"
   xmlns="http://www.w3.org/2000/svg"
   xmlns:sodipodi="http://sodipodi.sourceforge.net/DTD/sodipodi-0.dtd"
   xmlns:inkscape="http://www.inkscape.org/namespaces/inkscape"
   version="1.1"
   x="0px"
   y="0px"
   width="32px"
   height="32px"
   viewBox="0 0 32 32"
   style="enable-background:new 0 0 32 32;"
   xml:space="preserve"
   id="svg4314"
   inkscape:version="0.48.2 r9819"
   sodipodi:docname="cog.svg"><metadata
   id="metadata4324"><rdf:RDF><cc:Work
       rdf:about=""><dc:format>image/svg+xml</dc:format><dc:type
         rdf:resource="http://purl.org/dc/dcmitype/StillImage" /><dc:title></dc:title></cc:Work></rdf:RDF></metadata><defs
   id="defs4322" /><sodipodi:namedview
   pagecolor="#ffffff"
   bordercolor="#666666"
   borderopacity="1"
   objecttolerance="10"
   gridtolerance="10"
   guidetolerance="10"
   inkscape:pageopacity="0"
   inkscape:pageshadow="2"
   inkscape:window-width="1920"
   inkscape:window-height="1028"
   id="namedview4320"
   showgrid="false"
   inkscape:zoom="7.375"
   inkscape:cx="16"
   inkscape:cy="16"
   inkscape:window-x="-8"
   inkscape:window-y="-8"
   inkscape:window-maximized="1"
   inkscape:current-layer="svg4314" />
<g
   id="Layer_1">
</g>
<g
   id="cog">
	<path
   style="fill:#4e4e50"
   d="M 26.1875 -0.0625 L 22.5 8.8125 C 21.75375 9.076875 21.023125 9.35 20.3125 9.6875 L 11.40625 6.09375 L 6.09375 11.40625 L 9.71875 20.25 C 9.36625 20.975625 9.084375 21.705625 8.8125 22.46875 L 0 26.25 L 0 33.75 L 8.8125 37.40625 C 9.084375 38.1675 9.399375 38.930625 9.75 39.65625 L 6.1875 48.53125 L 11.46875 53.84375 L 20.34375 50.1875 C 21.054375 50.525 21.75375 50.805625 22.5 51.0625 L 26.3125 59.9375 L 33.8125 59.9375 L 37.53125 51 C 38.241875 50.735625 38.920625 50.47875 39.59375 50.15625 L 48.59375 53.75 L 53.90625 48.4375 L 50.21875 39.5 C 50.53375 38.826875 50.781875 38.133125 51.03125 37.4375 L 60 33.625 L 60 26.125 L 51.03125 22.375 C 50.781875 21.671875 50.51 21.01125 50.1875 20.34375 L 53.8125 11.34375 L 48.5 6.03125 L 39.59375 9.6875 C 38.913125 9.3575 38.218125 9.100625 37.5 8.84375 L 33.6875 -0.0625 L 26.1875 -0.0625 z M 29.9375 18.6875 C 36.1475 18.6875 41.1875 23.7275 41.1875 29.9375 C 41.1875 36.1475 36.1475 41.1875 29.9375 41.1875 C 23.7275 41.1875 18.6875 36.1475 18.6875 29.9375 C 18.6875 23.7275 23.7275 18.6875 29.9375 18.6875 z "
   id="path4318" />
</g>
</svg>