<?xml version="1.0" encoding="UTF-8" standalone="no"?>
<!-- Created with Inkscape (http://www.inkscape.org/) -->

<svg
   xmlns:dc="http://purl.org/dc/elements/1.1/"
   xmlns:cc="http://creativecommons.org/ns#"
   xmlns:rdf="http://www.w3.org/1999/02/22-rdf-syntax-ns#"
   xmlns:svg="http://www.w3.org/2000/svg"
   xmlns="http://www.w3.org/2000/svg"
   xmlns:sodipodi="http://sodipodi.sourceforge.net/DTD/sodipodi-0.dtd"
   xmlns:inkscape="http://www.inkscape.org/namespaces/inkscape"
   width="744.09448819"
   height="1052.3622047"
   id="svg3901"
   version="1.1"
   inkscape:version="0.48.2 r9819"
   sodipodi:docname="New document 10">
  <defs
     id="defs3903" />
  <sodipodi:namedview
     id="base"
     pagecolor="#ffffff"
     bordercolor="#666666"
     borderopacity="1.0"
     inkscape:pageopacity="0.0"
     inkscape:pageshadow="2"
     inkscape:zoom="7.9195959"
     inkscape:cx="0.90744953"
     inkscape:cy="1017.549"
     inkscape:document-units="px"
     inkscape:current-layer="layer1"
     showgrid="false"
     inkscape:window-width="1920"
     inkscape:window-height="1028"
     inkscape:window-x="-8"
     inkscape:window-y="-8"
     inkscape:window-maximized="1" />
  <metadata
     id="metadata3906">
    <rdf:RDF>
      <cc:Work
         rdf:about="">
        <dc:format>image/svg+xml</dc:format>
        <dc:type
           rdf:resource="http://purl.org/dc/dcmitype/StillImage" />
        <dc:title></dc:title>
      </cc:Work>
    </rdf:RDF>
  </metadata>
  <g
     inkscape:label="Layer 1"
     inkscape:groupmode="layer"
     id="layer1">
    <path
       style="fill:#000000;fill-opacity:1;fill-rule:evenodd;stroke:#000000;stroke-width:0.05032634;stroke-linecap:butt;stroke-linejoin:miter;stroke-miterlimit:4;stroke-opacity:1;stroke-dasharray:none"
       d="m 15.161617,0.03741328 c -2.464229,0 -4.501754,1.83791802 -4.82032,4.21483102 l -5.5044426,0 -2.4140913,-2.209641 -2.34332005,0 2.06023435,1.918692 1.0301172,0.935755 0.00785,0.0079 -0.015727,0 -0.031454,0.03145 0,0.01573 -3.05889762,2.846583 2.35118352,0 2.4534088,-2.248958 5.4651257,0 c 0.318565,2.376913 2.35609,4.214831 4.820319,4.214831 2.684658,0 4.859637,-2.182339 4.859637,-4.8675 -2.52e-4,-2.68491 -2.174979,-4.85963702 -4.859637,-4.85963702 z M 3.1619311,4.9049143 l 0.00785,-0.0079 -0.039317,0 0.031454,0.0079 z"
       id="rect5671-1"
       inkscape:connector-curvature="0" />
  </g>
</svg>
