<?xml version="1.0" encoding="UTF-8" standalone="no"?>
<!-- Created with Inkscape (http://www.inkscape.org/) -->

<svg
   xmlns:dc="http://purl.org/dc/elements/1.1/"
   xmlns:cc="http://creativecommons.org/ns#"
   xmlns:rdf="http://www.w3.org/1999/02/22-rdf-syntax-ns#"
   xmlns:svg="http://www.w3.org/2000/svg"
   xmlns="http://www.w3.org/2000/svg"
   xmlns:sodipodi="http://sodipodi.sourceforge.net/DTD/sodipodi-0.dtd"
   xmlns:inkscape="http://www.inkscape.org/namespaces/inkscape"
   width="14.90625"
   height="15"
   id="svg3024"
   version="1.1"
   inkscape:version="0.48.2 r9819"
   sodipodi:docname="reconnect.svg">
  <defs
     id="defs3026" />
  <sodipodi:namedview
     id="base"
     pagecolor="#ffffff"
     bordercolor="#666666"
     borderopacity="1.0"
     inkscape:pageopacity="0.0"
     inkscape:pageshadow="2"
     inkscape:zoom="7.9195959"
     inkscape:cx="9.9375"
     inkscape:cy="9.9999974"
     inkscape:document-units="px"
     inkscape:current-layer="layer1"
     showgrid="false"
     fit-margin-top="0"
     fit-margin-left="0"
     fit-margin-right="0"
     fit-margin-bottom="0"
     inkscape:window-width="1920"
     inkscape:window-height="1028"
     inkscape:window-x="-8"
     inkscape:window-y="-8"
     inkscape:window-maximized="1" />
  <metadata
     id="metadata3029">
    <rdf:RDF>
      <cc:Work
         rdf:about="">
        <dc:format>image/svg+xml</dc:format>
        <dc:type
           rdf:resource="http://purl.org/dc/dcmitype/StillImage" />
        <dc:title></dc:title>
      </cc:Work>
    </rdf:RDF>
  </metadata>
  <g
     inkscape:label="Layer 1"
     inkscape:groupmode="layer"
     id="layer1"
     transform="translate(-365.0625,-527.36218)">
    <path
       d="m 372.58594,527.36218 c -4.1633,0 -7.52344,3.35671 -7.52344,7.5 0,4.14204 3.38441,7.5 7.54687,7.5 3.22237,0 5.97973,-2.01836 7.05469,-4.85156 l -2.76562,-1.14844 c -0.62367,1.75512 -2.31612,3.02344 -4.28907,3.02344 -2.50552,0 -4.54687,-2.0323 -4.54687,-4.52344 0,-2.49322 2.04177,-4.52344 4.54687,-4.52344 1.49977,0 2.82768,0.73284 3.65625,1.85156 l -1.80468,1.6875 5.50781,0 0,-5.55468 -1.61719,1.71093 c -1.38068,-1.64381 -3.44525,-2.67187 -5.76562,-2.67187 z"
       id="path15"
       inkscape:connector-curvature="0" />
  </g>
</svg>
