<?xml version="1.0" encoding="UTF-8" standalone="no"?>
<!-- Created with Inkscape (http://www.inkscape.org/) -->

<svg
   xmlns:dc="http://purl.org/dc/elements/1.1/"
   xmlns:cc="http://creativecommons.org/ns#"
   xmlns:rdf="http://www.w3.org/1999/02/22-rdf-syntax-ns#"
   xmlns:svg="http://www.w3.org/2000/svg"
   xmlns="http://www.w3.org/2000/svg"
   xmlns:sodipodi="http://sodipodi.sourceforge.net/DTD/sodipodi-0.dtd"
   xmlns:inkscape="http://www.inkscape.org/namespaces/inkscape"
   width="20"
   height="25"
   id="svg6524"
   version="1.1"
   inkscape:version="0.48.2 r9819"
   sodipodi:docname="robot-icon2.svg">
  <defs
     id="defs6526" />
  <sodipodi:namedview
     id="base"
     pagecolor="#ffffff"
     bordercolor="#666666"
     borderopacity="1.0"
     inkscape:pageopacity="0.0"
     inkscape:pageshadow="2"
     inkscape:zoom="5.6"
     inkscape:cx="48.356144"
     inkscape:cy="-20.699788"
     inkscape:document-units="px"
     inkscape:current-layer="layer1"
     showgrid="false"
     inkscape:window-width="1920"
     inkscape:window-height="1028"
     inkscape:window-x="-8"
     inkscape:window-y="-8"
     inkscape:window-maximized="1"
     fit-margin-top="0"
     fit-margin-left="0"
     fit-margin-right="0"
     fit-margin-bottom="0" />
  <metadata
     id="metadata6529">
    <rdf:RDF>
      <cc:Work
         rdf:about="">
        <dc:format>image/svg+xml</dc:format>
        <dc:type
           rdf:resource="http://purl.org/dc/dcmitype/StillImage" />
        <dc:title></dc:title>
      </cc:Work>
    </rdf:RDF>
  </metadata>
  <g
     inkscape:label="Layer 1"
     inkscape:groupmode="layer"
     id="layer1"
     transform="translate(-4.7567818,5.476851)">
    <g
       id="g3567"
       transform="matrix(0.08531416,0,0,0.08531416,-1.4993638,-27.597381)">
      <path
         style="fill:#2e2e2e"
         d="M 14.5625 0 C 14.505123 0.0096481784 14.456184 0.01730653 14.40625 0.0625 C 14.294601 0.16354353 14.203088 0.18980634 14.125 0.125 C 14.054825 0.066754317 13.992827 0.075342893 13.875 0.125 C 13.782618 0.16393397 13.543245 0.23875075 13.375 0.28125 C 13.206756 0.3237484 13.084581 0.37995901 13.0625 0.4375 C 13.033387 0.51335197 12.948764 0.53142462 12.78125 0.5 C 12.456348 0.43904815 11.856324 0.70271315 11.71875 0.96875 C 11.661334 1.0797753 11.618383 1.3515059 11.59375 1.53125 C 11.555973 1.8068429 11.497052 1.863418 11.28125 2 C 11.049926 2.1464017 11.012978 2.1657207 10.9375 2.0625 C 10.86269 1.9601878 10.826227 1.9657082 10.65625 2.125 C 10.551918 2.222782 10.408792 2.3888928 10.34375 2.5 C 10.223017 2.7062342 9.387252 3.25 9.1875 3.25 C 9.1267853 3.25 9.0030452 3.368714 8.9375 3.46875 C 8.8126803 3.6592548 8.385463 3.90625 8.1875 3.90625 C 8.123935 3.90625 7.9362798 3.9831012 7.8125 4.125 C 7.5709978 4.4018547 7.2514564 4.59375 6.96875 4.59375 C 6.8559271 4.59375 6.7790571 4.6272011 6.75 4.71875 C 6.6955508 4.8903031 6.5326703 4.9042139 6.3125 4.75 C 6.1318319 4.6234552 5.688424 4.7136069 5.5 4.875 C 5.3868896 4.9718845 5.1245081 5.0326429 4.6875 5.09375 C 4.4696819 5.124208 4.4072038 5.1754254 4.3125 5.375 C 4.2486756 5.5094995 4.1023796 5.6345583 4 5.6875 C 3.8976204 5.7404434 3.7656341 5.8507816 3.6875 5.9375 C 3.6093659 6.0242193 3.4332275 6.1220339 3.34375 6.15625 L 3.1875 6.21875 L 3.34375 6.4375 C 3.4283868 6.5519762 3.5526536 6.6685816 3.625 6.6875 C 3.6973456 6.7064193 3.8267147 6.8002736 3.875 6.90625 C 3.9671478 7.1084923 3.9369475 7.1331213 3.59375 7.34375 C 3.491431 7.4065463 3.5349637 7.4250151 3.71875 7.625 L 3.9375 7.84375 L 3.78125 8 C 3.5587353 8.209041 3.3903215 8.6371202 3.46875 8.96875 C 3.5130613 9.156117 3.6267708 9.3123882 3.875 9.5 C 4.0622322 9.6415097 4.3001061 9.876849 4.375 10 C 4.4783359 10.169922 4.5592398 10.21875 4.71875 10.21875 C 5.0053544 10.21875 5.074522 10.083654 4.8125 10.03125 C 4.572623 9.9832744 4.4581721 9.7479124 4.59375 9.5625 C 4.6776915 9.447703 4.7219299 9.4796033 5.03125 9.625 C 5.2125827 9.7102365 5.375 9.8504161 5.375 9.90625 C 5.375 9.9620821 5.4312018 10.009414 5.5 10.03125 C 5.5687982 10.053086 5.6487367 10.131515 5.6875 10.21875 C 5.7282665 10.310493 5.866714 10.412911 6.03125 10.46875 C 6.6085402 10.664664 6.7597548 10.796235 6.84375 11.0625 C 6.8882823 11.20367 7.0007806 11.424382 7.09375 11.5625 C 7.289918 11.853931 7.3875398 12.336671 7.40625 13.03125 C 7.4150561 13.357952 7.5206884 13.696777 7.65625 14.09375 C 7.7685797 14.422693 7.875 14.832874 7.875 14.96875 C 7.875 15.104627 7.8906796 15.34373 7.9375 15.5 C 8.0200278 15.775453 8.002752 15.802088 7.78125 16 C 7.5923218 16.168807 7.4622 16.17576 7.125 16.1875 C 6.4613488 16.210605 6.3510621 16.182715 6.03125 16.03125 C 4.9963048 15.540892 4.6780732 15.563727 4.25 16 C 4.0851901 16.167965 3.9293025 16.45516 3.875 16.625 C 3.7708306 16.950809 3.7293041 16.90548 4.09375 17.9375 C 4.1593583 18.123287 4.2584663 18.25 4.3125 18.25 C 4.4382804 18.25 4.4375373 18.39768 4.3125 18.5 C 4.2594346 18.543425 4.1548076 18.684766 4.09375 18.84375 C 3.9930767 19.105858 3.9927551 19.166468 4.09375 19.375 C 4.1584804 19.508651 4.3358297 19.631963 4.46875 19.6875 C 4.6181052 19.74991 4.6872426 19.843213 4.71875 19.96875 C 4.8019808 20.300369 4.7163905 20.393833 3.6875 20.53125 C 3.2681314 20.587254 3.198713 20.687948 3.5 20.84375 C 3.7100793 20.952383 3.7390189 20.961843 3.71875 21.3125 C 3.7005098 21.628081 3.6300657 21.731456 3.5 21.75 C 3.3958382 21.764851 3.3582116 21.683219 3.25 21.53125 L 3.0625 21.3125 L 2.90625 21.5 C 2.8338575 21.619042 2.7486563 21.758058 2.65625 21.78125 C 2.4944235 21.821864 2.4558027 21.881028 2.375 22.875 C 2.3288578 23.442581 2.2936515 23.938251 2.3125 23.96875 C 2.3446421 24.020763 2.9266872 24.124071 3.40625 24.1875 C 3.7657016 24.235046 5.1754539 24.611466 5.40625 24.71875 C 5.5259347 24.774382 5.7755305 24.853233 5.96875 24.90625 C 6.5187644 25.057162 6.9183199 25.004517 7.25 24.8125 C 7.409889 24.719938 7.7223778 24.645355 7.9375 24.59375 C 8.1526214 24.542149 8.3445005 24.426398 8.40625 24.375 C 8.4680047 24.323604 8.6449279 24.28125 8.75 24.28125 C 8.8550772 24.28125 9.1194395 24.243709 9.34375 24.1875 C 9.5680588 24.13129 9.8981835 24.063049 10.09375 24.03125 C 10.427537 23.976979 10.40625 23.979287 10.40625 23.78125 C 10.40625 23.591365 10.387943 23.551843 10.09375 23.46875 C 9.7627575 23.375264 9.59375 23.176209 9.59375 22.875 C 9.59375 22.801872 9.5735198 22.73284 9.53125 22.71875 C 9.4889794 22.704656 9.4642767 22.599653 9.4375 22.46875 C 9.3983493 22.27731 9.3243331 22.189428 9.125 22.125 C 8.9445179 22.06666 8.8616975 22.033445 8.84375 21.90625 C 8.8039066 21.623843 8.9931521 21.201009 9.21875 21 C 9.33407 20.897245 9.4375 20.740279 9.4375 20.6875 C 9.4375 20.563759 9.7611999 20.349248 10.125 20.25 C 10.469749 20.155949 10.539861 20.034505 10.40625 19.84375 C 10.247507 19.617114 10.294642 19.560938 10.65625 19.375 C 10.962801 19.217374 11.040885 19.140649 11.34375 18.53125 C 11.842289 17.528136 11.877269 17.434325 11.4375 16.5625 C 11.175748 16.043585 11.047708 15.711879 11 15.375 C 10.963173 15.114993 10.882002 14.759526 10.84375 14.59375 C 10.805499 14.427977 10.782339 14.176008 10.78125 14 C 10.780064 13.808032 10.663604 13.444947 10.53125 13.125 C 10.409897 12.831652 10.221807 12.277825 10.09375 11.90625 C 9.9656926 11.534674 9.6843878 10.897489 9.5 10.46875 L 9.1875 9.71875 L 9.28125 9.28125 C 9.3728493 8.9787149 9.3964497 8.6903619 9.375 8.15625 C 9.3386476 7.2512007 9.1551613 6.792492 8.5625 6.3125 C 8.3474819 6.1383584 8.1231458 5.9559182 8.09375 5.90625 C 7.9909891 5.7326331 8.1605229 5.5849556 8.78125 5.1875 C 9.1252469 4.9672376 9.464575 4.680134 9.59375 4.59375 C 9.722925 4.5073651 10.068833 4.3714166 10.3125 4.25 C 10.556167 4.1285834 10.758595 4.0054052 10.78125 3.96875 C 10.803906 3.9320939 11.012132 3.90625 11.21875 3.90625 C 11.514792 3.90625 11.627309 3.8448426 11.75 3.71875 C 12.015359 3.4460322 12.317876 3.0794477 12.40625 2.875 C 12.462806 2.7441665 12.516934 2.6877849 12.625 2.6875 C 12.713839 2.6872441 12.882661 2.608961 13 2.53125 C 13.153453 2.4296221 13.316163 2.4066058 13.625 2.40625 C 13.997535 2.4058234 14.098877 2.3388453 14.3125 2.15625 C 14.474488 2.0177902 14.626604 1.9706491 14.78125 1.96875 C 14.99663 1.9661053 15.051907 1.9269331 15.21875 1.5625 C 15.437882 1.0838517 15.389434 0.76445545 15.09375 0.34375 C 14.902738 0.071973212 14.734614 -0.028948801 14.5625 0 z M 7.71875 6.15625 C 8.2728825 6.1471231 8.5429311 6.370179 8.90625 7.0625 C 9.1123374 7.4552122 9.174997 8.2613532 9.0625 8.6875 C 9.0270596 8.821735 8.980001 8.9545844 8.9375 8.96875 C 8.8603453 8.9944688 8.4193776 8.4925806 8.25 8.15625 C 8.2007558 8.0584672 8.1208623 7.8790328 8.03125 7.78125 C 7.9416377 7.6834672 7.8271456 7.4572582 7.78125 7.28125 C 7.7353552 7.1052409 7.6286711 6.8530851 7.53125 6.75 C 7.4082261 6.6198242 7.3588253 6.5789799 7.375 6.4375 C 7.3970631 6.2444997 7.3818589 6.1617971 7.71875 6.15625 z "
         transform="matrix(11.721384,0,0,11.721384,73.330683,259.28322)"
         id="path3571" />
    </g>
  </g>
</svg>
