<?xml version="1.0" encoding="UTF-8" standalone="no"?>
<svg
   xmlns:dc="http://purl.org/dc/elements/1.1/"
   xmlns:cc="http://creativecommons.org/ns#"
   xmlns:rdf="http://www.w3.org/1999/02/22-rdf-syntax-ns#"
   xmlns:svg="http://www.w3.org/2000/svg"
   xmlns="http://www.w3.org/2000/svg"
   xmlns:sodipodi="http://sodipodi.sourceforge.net/DTD/sodipodi-0.dtd"
   xmlns:inkscape="http://www.inkscape.org/namespaces/inkscape"
   version="1.1"
   id="Layer_1"
   x="0px"
   y="0px"
   width="20"
   height="20"
   viewBox="0 0 20 20"
   enable-background="new 0 0 100 99.987"
   xml:space="preserve"
   inkscape:version="0.48.2 r9819"
   sodipodi:docname="rotating2.svg"><metadata
   id="metadata15"><rdf:RDF><cc:Work
       rdf:about=""><dc:format>image/svg+xml</dc:format><dc:type
         rdf:resource="http://purl.org/dc/dcmitype/StillImage" /><dc:title></dc:title></cc:Work></rdf:RDF></metadata><defs
   id="defs13" /><sodipodi:namedview
   pagecolor="#ffffff"
   bordercolor="#666666"
   borderopacity="1"
   objecttolerance="10"
   gridtolerance="10"
   guidetolerance="10"
   inkscape:pageopacity="0"
   inkscape:pageshadow="2"
   inkscape:window-width="1920"
   inkscape:window-height="1028"
   id="namedview11"
   showgrid="false"
   inkscape:zoom="2.3603069"
   inkscape:cx="50"
   inkscape:cy="50.0065"
   inkscape:window-x="-8"
   inkscape:window-y="-8"
   inkscape:window-maximized="1"
   inkscape:current-layer="Layer_1"
   fit-margin-top="0"
   fit-margin-left="0"
   fit-margin-right="0"
   fit-margin-bottom="0" />
<path
   d="M 9.21875 0 L 9.21875 1.65625 C 6.78895 1.88945 4.5416 3.1627 3.125 5.1875 L 4.90625 6.4375 C 5.91405 4.9975 7.49995 4.06635 9.21875 3.84375 L 9.21875 5.4375 L 13.90625 2.71875 L 9.21875 0 z M 14.8125 3.125 L 13.5625 4.90625 C 15.0027 5.91525 15.93225 7.50255 16.15625 9.21875 L 14.5625 9.21875 L 17.28125 13.90625 L 20 9.21875 L 18.34375 9.21875 C 18.10935 6.79035 16.8359 4.5442 14.8125 3.125 z M 2.71875 6.09375 L 0 10.78125 L 1.65625 10.78125 C 1.88805 13.21085 3.1615 15.4584 5.1875 16.875 L 6.4375 15.09375 C 4.9975 14.08715 4.06775 12.49885 3.84375 10.78125 L 5.4375 10.78125 L 2.71875 6.09375 z M 15.09375 13.5625 C 14.08595 15.0013 12.49485 15.93225 10.78125 16.15625 L 10.78125 14.5625 L 6.09375 17.28125 L 10.8125 20 L 10.8125 18.34375 C 13.2397 18.11075 15.4584 16.8345 16.875 14.8125 L 15.09375 13.5625 z "
   id="path3" />



</svg>