<?xml version="1.0" encoding="UTF-8" standalone="no"?>
<svg
   xmlns:dc="http://purl.org/dc/elements/1.1/"
   xmlns:cc="http://creativecommons.org/ns#"
   xmlns:rdf="http://www.w3.org/1999/02/22-rdf-syntax-ns#"
   xmlns:svg="http://www.w3.org/2000/svg"
   xmlns="http://www.w3.org/2000/svg"
   xmlns:sodipodi="http://sodipodi.sourceforge.net/DTD/sodipodi-0.dtd"
   xmlns:inkscape="http://www.inkscape.org/namespaces/inkscape"
   version="1.1"
   id="Layer_1"
   x="0px"
   y="0px"
   width="20"
   height="20"
   viewBox="0 0 20 20"
   enable-background="new 0 0 100 99.987"
   xml:space="preserve"
   inkscape:version="0.48.2 r9819"
   sodipodi:docname="sensor1.svg"><metadata
   id="metadata15"><rdf:RDF><cc:Work
       rdf:about=""><dc:format>image/svg+xml</dc:format><dc:type
         rdf:resource="http://purl.org/dc/dcmitype/StillImage" /><dc:title></dc:title></cc:Work></rdf:RDF></metadata><defs
   id="defs13" /><sodipodi:namedview
   pagecolor="#ffffff"
   bordercolor="#666666"
   borderopacity="1"
   objecttolerance="10"
   gridtolerance="10"
   guidetolerance="10"
   inkscape:pageopacity="0"
   inkscape:pageshadow="2"
   inkscape:window-width="1920"
   inkscape:window-height="1028"
   id="namedview11"
   showgrid="false"
   inkscape:zoom="13.351912"
   inkscape:cx="7.0691841"
   inkscape:cy="15.179666"
   inkscape:window-x="-8"
   inkscape:window-y="-8"
   inkscape:window-maximized="1"
   inkscape:current-layer="Layer_1"
   fit-margin-top="0"
   fit-margin-left="0"
   fit-margin-right="0"
   fit-margin-bottom="0" />




<g
   style="font-size:40px;font-style:normal;font-variant:normal;font-weight:normal;font-stretch:normal;line-height:125%;letter-spacing:0px;word-spacing:0px;fill:#000000;fill-opacity:1;stroke:none;font-family:Riesling;-inkscape-font-specification:Riesling"
   id="text2995"
   transform="translate(0,4.000438)"><path
     style="font-size:12px;font-weight:bold;text-align:center;text-anchor:middle;font-family:Helvetica;-inkscape-font-specification:Helvetica Bold"
     d="M 10.59375,0 C 10.463539,0.48828774 10.278643,0.81445927 10.03125,1 9.787107,1.1855526 9.3567692,1.286464 8.71875,1.3125 l 0,0.71875 1.625,0 0,4.9375 0.9375,0 0,-6.96875 z M 7.156125,9.999875 6.249875,10.906125 8.28125,12.9375 9.1875,12.03125 z m 5.68775,0 -2.031375,2.031375 0.90625,0.90625 2.031375,-2.031375 z M 0,14 l 0,2 8.6875,0 0,-2 z m 11.3125,0 0,2 8.6875,0 0,-2 z m -3.03125,3.0625 -2.031375,2.031375 0.90625,0.90625 L 9.1875,17.96875 z m 3.4375,0 -0.90625,0.90625 2.031375,2.031375 0.90625,-0.90625 z"
     transform="translate(0,-4.000438)"
     id="path3812"
     inkscape:connector-curvature="0"
     sodipodi:nodetypes="ccccccccccccccccccccccccccccccccccccccc" /></g><g
   style="font-size:40px;font-style:normal;font-variant:normal;font-weight:normal;font-stretch:normal;line-height:125%;letter-spacing:0px;word-spacing:0px;fill:#000000;fill-opacity:1;stroke:none;font-family:Riesling;-inkscape-font-specification:Riesling"
   id="text3931" /></svg>