<?xml version="1.0" encoding="UTF-8" standalone="no"?>
<svg
   xmlns:dc="http://purl.org/dc/elements/1.1/"
   xmlns:cc="http://creativecommons.org/ns#"
   xmlns:rdf="http://www.w3.org/1999/02/22-rdf-syntax-ns#"
   xmlns:svg="http://www.w3.org/2000/svg"
   xmlns="http://www.w3.org/2000/svg"
   xmlns:sodipodi="http://sodipodi.sourceforge.net/DTD/sodipodi-0.dtd"
   xmlns:inkscape="http://www.inkscape.org/namespaces/inkscape"
   version="1.1"
   id="Layer_1"
   x="0px"
   y="0px"
   width="35.130001"
   height="50"
   viewBox="0 0 35.130001 50"
   enable-background="new 0 0 32 32"
   xml:space="preserve"
   inkscape:version="0.48.2 r9819"
   sodipodi:docname="cyclustime.svg"><metadata
   id="metadata8"><rdf:RDF><cc:Work
       rdf:about=""><dc:format>image/svg+xml</dc:format><dc:type
         rdf:resource="http://purl.org/dc/dcmitype/StillImage" /><dc:title></dc:title></cc:Work></rdf:RDF></metadata><defs
   id="defs6" /><sodipodi:namedview
   pagecolor="#ffffff"
   bordercolor="#666666"
   borderopacity="1"
   objecttolerance="10"
   gridtolerance="10"
   guidetolerance="10"
   inkscape:pageopacity="0"
   inkscape:pageshadow="2"
   inkscape:window-width="1920"
   inkscape:window-height="1028"
   id="namedview4"
   showgrid="false"
   inkscape:zoom="7.375"
   inkscape:cx="-6.1827086"
   inkscape:cy="16.000002"
   inkscape:window-x="-8"
   inkscape:window-y="-8"
   inkscape:window-maximized="1"
   inkscape:current-layer="Layer_1"
   fit-margin-top="0"
   fit-margin-left="0"
   fit-margin-right="0"
   fit-margin-bottom="0" />
<path
   style="fill:#ff0000;fill-opacity:1"
   d="M 14.6875 7.75 C 7.1112274 7.867998 0.7284419 13.717231 0.0625 21.4375 C -0.6433206 29.671322 5.4246863 36.945911 13.65625 37.65625 C 21.892331 38.36207 29.133411 32.201443 29.84375 23.96875 C 29.92732 22.989635 29.91188 22.064588 29.8125 21.125 L 26.125 19.78125 C 26.45363 21.029142 26.61406 22.296557 26.5 23.65625 C 25.944378 30.024447 20.307955 34.787553 13.9375 34.25 C 7.5693037 33.690989 2.8686972 28.088077 3.40625 21.71875 C 3.964131 15.348294 9.5369227 10.648817 15.90625 11.1875 C 18.648223 11.428043 21.100107 12.604237 22.9375 14.375 L 21.09375 15.9375 L 29.03125 18.8125 L 27.53125 10.46875 L 25.53125 12.1875 C 23.122426 9.7583474 19.896924 8.097457 16.21875 7.78125 C 15.704701 7.73706 15.192585 7.74214 14.6875 7.75 z M 14.9375 12.6875 C 14.314118 12.6875 13.84375 13.157869 13.84375 13.78125 L 13.3125 22.125 L 9.875 24.3125 C 9.335188 24.62532 9.18718 25.338575 9.5 25.875 C 9.810561 26.41594 10.493697 26.59407 11.03125 26.28125 L 14.75 24.375 C 14.81098 24.384 14.873129 24.40625 14.9375 24.40625 C 15.8737 24.40735 16.625 23.62483 16.625 22.6875 L 16.0625 13.78125 C 16.0625 13.15787 15.56088 12.6875 14.9375 12.6875 z M 10.375 13.90625 C 10.229424 13.92428 10.072453 13.922066 9.9375 14 C 9.397689 14.31169 9.219559 15.053938 9.53125 15.59375 C 9.845199 16.134691 10.491438 16.31395 11.03125 16 C 11.572191 15.68831 11.811691 15.008561 11.5 14.46875 C 11.266232 14.063891 10.811727 13.852149 10.375 13.90625 z M 19.21875 13.90625 C 18.90216 13.9628 18.573954 14.165741 18.40625 14.46875 C 18.100207 15.01082 18.322007 15.68831 18.84375 16 C 19.384691 16.31169 20.09343 16.133562 20.40625 15.59375 C 20.71907 15.055067 20.479576 14.31169 19.9375 14 C 19.80283 13.92207 19.676562 13.924194 19.53125 13.90625 C 19.422272 13.89278 19.32428 13.88741 19.21875 13.90625 z M 7.0625 17.15625 C 6.7382336 17.21256 6.4565766 17.383856 6.28125 17.6875 C 5.9695598 18.227312 6.1499469 18.938309 6.6875 19.25 C 7.229571 19.56282 7.87581 19.385821 8.1875 18.84375 C 8.498061 18.303939 8.319932 17.59407 7.78125 17.28125 C 7.646015 17.20333 7.55188 17.174284 7.40625 17.15625 C 7.2970302 17.14272 7.1705898 17.13748 7.0625 17.15625 z M 22.46875 17.15625 C 22.323579 17.17428 22.194912 17.203333 22.0625 17.28125 C 21.521558 17.5952 21.37468 18.305067 21.6875 18.84375 C 22.00032 19.382432 22.647687 19.563949 23.1875 19.25 C 23.727312 18.939437 23.93895 18.227312 23.625 17.6875 C 23.392926 17.282641 22.904259 17.102149 22.46875 17.15625 z M 6.03125 21.59375 C 5.405611 21.59375 4.90625 22.065247 4.90625 22.6875 C 4.90625 23.31201 5.4089984 23.84375 6.03125 23.84375 C 6.6546307 23.84375 7.1863712 23.310879 7.1875 22.6875 C 7.18633 22.064118 6.6557605 21.59488 6.03125 21.59375 z M 23.84375 21.59375 C 23.218111 21.59605 22.75 22.066377 22.75 22.6875 C 22.7511 23.310879 23.219241 23.84375 23.84375 23.84375 C 24.467131 23.84495 24.96875 23.31201 24.96875 22.6875 C 24.96875 22.065247 24.467131 21.59375 23.84375 21.59375 z M 7.125 26 C 6.9792665 26.0198 6.8227351 26.137722 6.6875 26.21875 C 6.1476892 26.524794 5.9684309 27.225999 6.28125 27.75 C 6.5906819 28.290941 7.2436967 28.466811 7.78125 28.15625 C 8.322191 27.850205 8.56169 27.103442 8.25 26.5625 C 8.016232 26.158488 7.5622043 25.940605 7.125 26 z M 22.4375 26.0625 C 22.122619 26.11247 21.861556 26.269654 21.6875 26.5625 C 21.378068 27.100052 21.521558 27.84456 22.0625 28.15625 C 22.601182 28.465681 23.314439 28.288682 23.625 27.75 C 23.931045 27.209059 23.716015 26.514631 23.1875 26.21875 C 23.051982 26.14224 22.895964 26.08004 22.75 26.0625 C 22.640522 26.04936 22.542459 26.04584 22.4375 26.0625 z M 10.40625 29.25 C 10.33486 29.2524 10.257234 29.29376 10.1875 29.3125 C 9.9085597 29.38747 9.688224 29.542595 9.53125 29.8125 C 9.220687 30.353441 9.398818 31.064438 9.9375 31.375 C 10.477312 31.681044 11.190569 31.498402 11.5 30.96875 C 11.81282 30.427809 11.571065 29.78157 11.03125 29.46875 C 10.828821 29.352287 10.620431 29.242767 10.40625 29.25 z M 19.21875 29.3125 C 19.073369 29.33038 18.978702 29.391112 18.84375 29.46875 C 18.302808 29.78157 18.090043 30.428938 18.40625 30.96875 C 18.715683 31.507432 19.397689 31.688949 19.9375 31.375 C 20.477311 31.064438 20.71907 30.342148 20.40625 29.8125 C 20.171635 29.407641 19.654896 29.258875 19.21875 29.3125 z M 14.9375 30.46875 C 14.314118 30.46875 13.84375 30.96924 13.84375 31.59375 C 13.84375 32.218261 14.314118 32.75 14.9375 32.75 C 15.56088 32.75 16.0625 32.218261 16.0625 31.59375 C 16.0625 30.96924 15.56088 30.46875 14.9375 30.46875 z M 27.5 34.1875 L 27.5 44.34375 L 30.0625 44.34375 L 30.0625 34.1875 L 27.5 34.1875 z M 32.5625 34.1875 L 32.5625 44.34375 L 35.125 44.34375 L 35.125 34.1875 L 32.5625 34.1875 z "
   id="timeforward" />
</svg>