<?xml version="1.0" encoding="UTF-8" standalone="no"?>
<!-- Created with Inkscape (http://www.inkscape.org/) -->

<svg
   xmlns:dc="http://purl.org/dc/elements/1.1/"
   xmlns:cc="http://creativecommons.org/ns#"
   xmlns:rdf="http://www.w3.org/1999/02/22-rdf-syntax-ns#"
   xmlns:svg="http://www.w3.org/2000/svg"
   xmlns="http://www.w3.org/2000/svg"
   xmlns:sodipodi="http://sodipodi.sourceforge.net/DTD/sodipodi-0.dtd"
   xmlns:inkscape="http://www.inkscape.org/namespaces/inkscape"
   width="744.09448819"
   height="1052.3622047"
   id="svg3171"
   version="1.1"
   inkscape:version="0.48.2 r9819"
   sodipodi:docname="workpieceLength.svg">
  <defs
     id="defs3173">
    <inkscape:perspective
       sodipodi:type="inkscape:persp3d"
       inkscape:vp_x="-223.22834 : 105.23622 : 0"
       inkscape:vp_y="3.6738191e-014 : 600 : 0"
       inkscape:vp_z="223.22834 : 105.23622 : 0"
       inkscape:persp3d-origin="321.94541 : 686.78875 : 1"
       id="perspective2985-5-17" />
  </defs>
  <sodipodi:namedview
     id="base"
     pagecolor="#ffffff"
     bordercolor="#666666"
     borderopacity="1.0"
     inkscape:pageopacity="0.0"
     inkscape:pageshadow="2"
     inkscape:zoom="2.8"
     inkscape:cx="204.28571"
     inkscape:cy="975.70707"
     inkscape:document-units="px"
     inkscape:current-layer="layer1"
     showgrid="false"
     inkscape:window-width="1920"
     inkscape:window-height="1028"
     inkscape:window-x="-8"
     inkscape:window-y="-8"
     inkscape:window-maximized="1" />
  <metadata
     id="metadata3176">
    <rdf:RDF>
      <cc:Work
         rdf:about="">
        <dc:format>image/svg+xml</dc:format>
        <dc:type
           rdf:resource="http://purl.org/dc/dcmitype/StillImage" />
        <dc:title></dc:title>
      </cc:Work>
    </rdf:RDF>
  </metadata>
  <g
     inkscape:label="Layer 1"
     inkscape:groupmode="layer"
     id="layer1">
    <a
       transform="matrix(0.6,0,0,0.6,-214.10223,-149.64838)"
       id="a7194-8-40">
      <g
         inkscape:corner7="0.37070036 : 0.3740151 : 0.14570964 : 1"
         inkscape:corner0="0.43843565 : 0.40119652 : 0 : 1"
         inkscape:perspectiveID="#perspective2985-5-17"
         id="g2987-9-9"
         style="fill:none;stroke:#00ff00;stroke-width:2;stroke-miterlimit:4;stroke-opacity:1;stroke-dasharray:none"
         sodipodi:type="inkscape:box3d">
        <path
           style="fill:#000000;fill-opacity:1;fill-rule:evenodd;stroke:#ffffff;stroke-width:0;stroke-miterlimit:4;stroke-dasharray:none"
           d="M 42.25 0.03125 A 0.30003001 0.30003001 0 0 0 42.21875 0.0625 A 0.30003001 0.30003001 0 0 0 42.1875 0.0625 A 0.30003001 0.30003001 0 0 0 42.15625 0.09375 A 0.30003001 0.30003001 0 0 0 42.03125 0.25 A 0.30003001 0.30003001 0 0 0 42 0.3125 A 0.30003001 0.30003001 0 0 0 42 0.34375 L 42 9.6875 L 9.9375 24.78125 L 24.625 31.78125 L 56.71875 16.625 A 0.30003001 0.30003001 0 0 0 56.78125 16.71875 A 0.30003001 0.30003001 0 0 0 56.90625 16.8125 A 0.30003001 0.30003001 0 0 0 57.03125 16.8125 A 0.30003001 0.30003001 0 0 0 57.21875 16.71875 A 0.30003001 0.30003001 0 0 0 57.28125 16.5 A 0.30003001 0.30003001 0 0 0 57.28125 16.46875 L 57.28125 6.9375 A 0.30003001 0.30003001 0 0 0 57.28125 6.8125 A 0.30003001 0.30003001 0 0 0 57.1875 6.6875 A 0.30003001 0.30003001 0 0 0 57 6.625 A 0.30003001 0.30003001 0 0 0 56.90625 6.65625 A 0.30003001 0.30003001 0 0 0 56.8125 6.6875 A 0.30003001 0.30003001 0 0 0 56.6875 6.9375 L 56.6875 9.4375 L 56.15625 9 L 53.15625 6.40625 L 52.34375 5.71875 L 52.71875 6.71875 L 53.03125 7.59375 L 46.6875 4.46875 L 47.34375 4.25 L 48.34375 3.875 L 47.28125 3.71875 L 43.375 3.125 L 42.59375 3 L 42.59375 0.34375 A 0.30003001 0.30003001 0 0 0 42.59375 0.3125 A 0.30003001 0.30003001 0 0 0 42.4375 0.0625 A 0.30003001 0.30003001 0 0 0 42.40625 0.0625 A 0.30003001 0.30003001 0 0 0 42.25 0.03125 z M 42.59375 3.125 L 43.125 3.59375 L 46.15625 6.1875 L 46.9375 6.875 L 46.59375 5.875 L 46.21875 4.90625 L 52.6875 8.0625 L 51.9375 8.34375 L 50.96875 8.6875 L 52 8.875 L 55.9375 9.5 L 56.6875 9.59375 L 56.6875 16.46875 A 0.30003001 0.30003001 0 0 0 56.6875 16.5 L 42.59375 9.875 L 42.59375 3.125 z M 57.21875 17.03125 L 24.9375 32.28125 L 24.9375 48.25 L 57.21875 33.0625 L 57.21875 17.03125 z M 9.5625 25.25 L 9.5625 41.28125 L 24.34375 48.25 L 24.34375 32.3125 L 9.5625 25.25 z "
           transform="matrix(1.6666667,0,0,1.6666667,356.83705,249.41397)"
           id="path2991-7-2" />
      </g>
    </a>
  </g>
</svg>
