<?xml version="1.0" encoding="UTF-8" standalone="no"?>
<!-- Created with Inkscape (http://www.inkscape.org/) -->

<svg
   xmlns:dc="http://purl.org/dc/elements/1.1/"
   xmlns:cc="http://creativecommons.org/ns#"
   xmlns:rdf="http://www.w3.org/1999/02/22-rdf-syntax-ns#"
   xmlns:svg="http://www.w3.org/2000/svg"
   xmlns="http://www.w3.org/2000/svg"
   xmlns:sodipodi="http://sodipodi.sourceforge.net/DTD/sodipodi-0.dtd"
   xmlns:inkscape="http://www.inkscape.org/namespaces/inkscape"
   width="744.09448819"
   height="1052.3622047"
   id="svg3137"
   version="1.1"
   inkscape:version="0.48.2 r9819"
   sodipodi:docname="workpiecechangeIcon.svg">
  <defs
     id="defs3139" />
  <sodipodi:namedview
     id="base"
     pagecolor="#ffffff"
     bordercolor="#666666"
     borderopacity="1.0"
     inkscape:pageopacity="0.0"
     inkscape:pageshadow="2"
     inkscape:zoom="7.9195959"
     inkscape:cx="2.0092593"
     inkscape:cy="1036.9725"
     inkscape:document-units="px"
     inkscape:current-layer="layer1"
     showgrid="false"
     inkscape:window-width="1920"
     inkscape:window-height="1028"
     inkscape:window-x="-8"
     inkscape:window-y="-8"
     inkscape:window-maximized="1" />
  <metadata
     id="metadata3142">
    <rdf:RDF>
      <cc:Work
         rdf:about="">
        <dc:format>image/svg+xml</dc:format>
        <dc:type
           rdf:resource="http://purl.org/dc/dcmitype/StillImage" />
        <dc:title></dc:title>
      </cc:Work>
    </rdf:RDF>
  </metadata>
  <g
     inkscape:label="Layer 1"
     inkscape:groupmode="layer"
     id="layer1">
    <g
       transform="matrix(0.08596528,0,0,0.08596528,8.010508,-2.1812766)"
       id="Layer_1" />
    <g
       transform="matrix(0.20703538,0,0,0.20703538,0.0020386,-2.4169822)"
       id="g3">
      <path
         d="M 4.59375 1.9375 L 0 7.28125 L 3.0625 7.28125 L 3.0625 11.09375 L 3.0625 14.15625 L 6.15625 14.15625 L 12.28125 14.15625 L 9.21875 11.09375 L 6.125 11.09375 L 6.125 7.28125 L 9.21875 7.28125 L 4.59375 1.9375 z M 8.4375 1.9375 L 11.5 5 L 14.5625 5 L 14.5625 8.8125 L 11.5 8.8125 L 16.09375 14.15625 L 20.71875 8.8125 L 17.625 8.8125 L 17.625 5 L 17.625 1.9375 L 14.5625 1.9375 L 8.4375 1.9375 z "
         transform="matrix(4.8300923,0,0,4.8300923,-0.00984663,11.674247)"
         id="polygon5" />
    </g>
  </g>
</svg>
