<?xml version="1.0" encoding="UTF-8" standalone="no"?>
<svg
   xmlns:dc="http://purl.org/dc/elements/1.1/"
   xmlns:cc="http://creativecommons.org/ns#"
   xmlns:rdf="http://www.w3.org/1999/02/22-rdf-syntax-ns#"
   xmlns:svg="http://www.w3.org/2000/svg"
   xmlns="http://www.w3.org/2000/svg"
   xmlns:sodipodi="http://sodipodi.sourceforge.net/DTD/sodipodi-0.dtd"
   xmlns:inkscape="http://www.inkscape.org/namespaces/inkscape"
   version="1.1"
   x="0px"
   y="0px"
   width="20"
   height="20"
   viewBox="0 0 20 20"
   xml:space="preserve"
   id="svg2"
   inkscape:version="0.48.2 r9819"
   sodipodi:docname="connection.eps"><metadata
   id="metadata12"><rdf:RDF><cc:Work
       rdf:about=""><dc:format>image/svg+xml</dc:format><dc:type
         rdf:resource="http://purl.org/dc/dcmitype/StillImage" /><dc:title></dc:title></cc:Work></rdf:RDF></metadata><defs
   id="defs10" /><sodipodi:namedview
   pagecolor="#ffffff"
   bordercolor="#666666"
   borderopacity="1"
   objecttolerance="10"
   gridtolerance="10"
   guidetolerance="10"
   inkscape:pageopacity="0"
   inkscape:pageshadow="2"
   inkscape:window-width="1920"
   inkscape:window-height="1028"
   id="namedview8"
   showgrid="false"
   inkscape:zoom="2.36"
   inkscape:cx="40"
   inkscape:cy="27.999998"
   inkscape:window-x="-8"
   inkscape:window-y="-8"
   inkscape:window-maximized="1"
   inkscape:current-layer="svg2"
   fit-margin-top="0"
   fit-margin-left="0"
   fit-margin-right="0"
   fit-margin-bottom="0" />
<g
   id="Captions"
   transform="translate(-10,-58)">
</g>
<g
   id="Your_Icon"
   transform="matrix(0.25,0,0,0.25,-2.5000002,-2.4999375)">
	<path
   id="path6"
   transform="matrix(4,0,0,4,10.000001,21.99975)"
   style="fill:#000000;fill-rule:evenodd"
   d="M 10,0 C 6.38125,0 2.7625,1.360875 0,4.09375 l 2,2 c 4.42,-4.37525 11.58,-4.37525 16,0 l 2,-2 C 17.2375,1.360875 13.61875,0 10,0 z m 0,5.59375 c -2.1713125,0 -4.3425,0.82875 -6,2.46875 l 2,1.96875 c 2.21,-2.1855 5.79,-2.1855 8,0 L 16,8.0625 C 14.34225,6.4225 12.171312,5.59375 10,5.59375 z m 0,5.59375 c -0.72375,0 -1.4475,0.296375 -2,0.84375 L 10,14 12,12.03125 C 11.4475,11.483875 10.72375,11.1875 10,11.1875 z"
   inkscape:connector-curvature="0" />
</g>
</svg>