<?xml version="1.0" encoding="UTF-8" standalone="no"?>
<!-- Created with Inkscape (http://www.inkscape.org/) -->

<svg
   xmlns:dc="http://purl.org/dc/elements/1.1/"
   xmlns:cc="http://creativecommons.org/ns#"
   xmlns:rdf="http://www.w3.org/1999/02/22-rdf-syntax-ns#"
   xmlns:svg="http://www.w3.org/2000/svg"
   xmlns="http://www.w3.org/2000/svg"
   xmlns:sodipodi="http://sodipodi.sourceforge.net/DTD/sodipodi-0.dtd"
   xmlns:inkscape="http://www.inkscape.org/namespaces/inkscape"
   width="20"
   height="19.77655"
   id="svg6321"
   version="1.1"
   inkscape:version="0.48.2 r9819"
   sodipodi:docname="conveyorLayout.svg">
  <defs
     id="defs6323" />
  <sodipodi:namedview
     id="base"
     pagecolor="#ffffff"
     bordercolor="#666666"
     borderopacity="1.0"
     inkscape:pageopacity="0.0"
     inkscape:pageshadow="2"
     inkscape:zoom="3.959798"
     inkscape:cx="-54.698759"
     inkscape:cy="5.3066532"
     inkscape:document-units="px"
     inkscape:current-layer="layer1"
     showgrid="false"
     inkscape:window-width="1920"
     inkscape:window-height="1028"
     inkscape:window-x="-8"
     inkscape:window-y="-8"
     inkscape:window-maximized="1"
     fit-margin-top="0"
     fit-margin-left="0"
     fit-margin-right="0"
     fit-margin-bottom="0" />
  <metadata
     id="metadata6326">
    <rdf:RDF>
      <cc:Work
         rdf:about="">
        <dc:format>image/svg+xml</dc:format>
        <dc:type
           rdf:resource="http://purl.org/dc/dcmitype/StillImage" />
      </cc:Work>
    </rdf:RDF>
  </metadata>
  <g
     inkscape:label="Layer 1"
     inkscape:groupmode="layer"
     id="layer1"
     transform="translate(-13.745445,-94.526672)">
    <path
       style="font-size:medium;font-style:normal;font-variant:normal;font-weight:normal;font-stretch:normal;text-indent:0;text-align:start;text-decoration:none;line-height:normal;letter-spacing:normal;word-spacing:normal;text-transform:none;direction:ltr;block-progression:tb;writing-mode:lr-tb;text-anchor:start;baseline-shift:baseline;color:#000000;fill:#000000;fill-opacity:1;stroke:none;stroke-width:1.35000002;marker:none;visibility:visible;display:inline;overflow:visible;enable-background:accumulate;font-family:Sans;-inkscape-font-specification:Sans"
       d="m 14.78125,99.3125 -0.65625,0 0,2.46875 1.34375,0 0,-1.78125 1.75,0 0,-1.375 -2.4375,0 z M 19.9375,100 l 2.6875,0 0,-1.375 -2.6875,0 z m 5.375,0 2.71875,0 0,-1.375 -2.71875,0 z m 5.40625,0 1.3125,0 0,0.0312 1.34375,0 0,-0.71875 0,-0.6875 -0.6875,0 -1.96875,0 z m 1.3125,5.4375 1.34375,0 0,-2.6875 -1.34375,0 z m -17.90625,1.75 1.34375,0 0,-2.71875 -1.34375,0 z m 17.90625,1.65625 -0.65625,0 0,1.34375 1.3125,0 0.6875,0 0,-0.6875 0,-1.34375 -1.34375,0 z m -16.875,1.34375 2.71875,0 0,-1.34375 -2.71875,0 z m 5.40625,0 2.6875,0 0,-1.34375 -2.6875,0 z m 5.40625,0 2.6875,0 0,-1.34375 -2.6875,0 z"
       id="rect7039"
       inkscape:connector-curvature="0" />
  </g>
</svg>
