<?xml version="1.0" encoding="UTF-8" standalone="no"?>
<!-- Created with Inkscape (http://www.inkscape.org/) -->

<svg
   xmlns:dc="http://purl.org/dc/elements/1.1/"
   xmlns:cc="http://creativecommons.org/ns#"
   xmlns:rdf="http://www.w3.org/1999/02/22-rdf-syntax-ns#"
   xmlns:svg="http://www.w3.org/2000/svg"
   xmlns="http://www.w3.org/2000/svg"
   xmlns:sodipodi="http://sodipodi.sourceforge.net/DTD/sodipodi-0.dtd"
   xmlns:inkscape="http://www.inkscape.org/namespaces/inkscape"
   width="45.140625"
   height="45.140625"
   id="svg4387"
   version="1.1"
   inkscape:version="0.48.2 r9819"
   sodipodi:docname="conveyorFromIcon.svg">
  <defs
     id="defs4389" />
  <sodipodi:namedview
     id="base"
     pagecolor="#ffffff"
     bordercolor="#666666"
     borderopacity="1.0"
     inkscape:pageopacity="0.0"
     inkscape:pageshadow="2"
     inkscape:zoom="3.959798"
     inkscape:cx="-81.114516"
     inkscape:cy="55.832351"
     inkscape:document-units="px"
     inkscape:current-layer="layer1"
     showgrid="false"
     fit-margin-top="0"
     fit-margin-left="0"
     fit-margin-right="0"
     fit-margin-bottom="0"
     inkscape:window-width="1920"
     inkscape:window-height="1028"
     inkscape:window-x="-8"
     inkscape:window-y="-8"
     inkscape:window-maximized="1" />
  <metadata
     id="metadata4392">
    <rdf:RDF>
      <cc:Work
         rdf:about="">
        <dc:format>image/svg+xml</dc:format>
        <dc:type
           rdf:resource="http://purl.org/dc/dcmitype/StillImage" />
        <dc:title></dc:title>
      </cc:Work>
    </rdf:RDF>
  </metadata>
  <g
     inkscape:label="Layer 1"
     inkscape:groupmode="layer"
     id="layer1"
     transform="translate(-346.74909,-323.83696)">
    <g
       id="g2992"
       transform="matrix(1.1041869,0,0,1.1041869,-36.785383,-32.182458)">
      <path
         style="fill:#000000;fill-opacity:1;stroke:#ff0000;stroke-width:0;stroke-miterlimit:4;stroke-opacity:1;stroke-dasharray:none"
         d="M 33.78125 0.09375 L 33.78125 3.9375 C 24.839092 4.421708 20.681887 9.8623612 18.78125 14.53125 C 17.302976 18.162601 17.218706 21.337029 17.21875 21.40625 L 19.9375 21.40625 C 19.937588 21.37655 21.439378 11.8253 33.78125 11.1875 L 33.78125 15.40625 L 45.0625 7.71875 L 33.78125 0.09375 z M 0.0625 24.46875 L 0.0625 28.375 L 34.75 28.375 C 38.310265 28.375011 41.15625 31.220985 41.15625 34.78125 C 41.15625 38.341515 38.310265 41.1875 34.75 41.1875 L 0.0625 41.1875 L 0.0625 45.09375 L 34.75 45.09375 C 40.41716 45.09375 45.0625 40.448403 45.0625 34.78125 C 45.0625 29.114097 40.41716 24.46875 34.75 24.46875 L 0.0625 24.46875 z M 1.28125 31.40625 C -0.39638197 31.40625 -1.78125 32.759867 -1.78125 34.4375 C -1.78125 36.115132 -0.39638197 37.5 1.28125 37.5 C 2.9588827 37.5 4.3125 36.115132 4.3125 34.4375 C 4.3125 32.759867 2.9588827 31.40625 1.28125 31.40625 z M 12.125 31.40625 C 10.447368 31.40625 9.09375 32.759867 9.09375 34.4375 C 9.09375 36.115132 10.447368 37.5 12.125 37.5 C 13.802633 37.5 15.15625 36.115132 15.15625 34.4375 C 15.15625 32.759867 13.802633 31.40625 12.125 31.40625 z M 22.96875 31.40625 C 21.291118 31.40625 19.9375 32.759867 19.9375 34.4375 C 19.9375 36.115132 21.291118 37.5 22.96875 37.5 C 24.646383 37.5 26.03125 36.115132 26.03125 34.4375 C 26.03125 32.759867 24.646383 31.40625 22.96875 31.40625 z M 33.84375 31.40625 C 32.166118 31.40625 30.8125 32.759867 30.8125 34.4375 C 30.8125 36.115132 32.166118 37.5 33.84375 37.5 C 35.521383 37.5 36.875 36.115132 36.875 34.4375 C 36.875 32.759867 35.521383 31.40625 33.84375 31.40625 z "
         transform="matrix(0.90564378,0,0,0.90564378,347.34561,322.42677)"
         id="path3810" />
    </g>
  </g>
</svg>
