<?xml version="1.0" encoding="UTF-8" standalone="no"?>
<!-- Created with Inkscape (http://www.inkscape.org/) -->

<svg
   xmlns:dc="http://purl.org/dc/elements/1.1/"
   xmlns:cc="http://creativecommons.org/ns#"
   xmlns:rdf="http://www.w3.org/1999/02/22-rdf-syntax-ns#"
   xmlns:svg="http://www.w3.org/2000/svg"
   xmlns="http://www.w3.org/2000/svg"
   xmlns:sodipodi="http://sodipodi.sourceforge.net/DTD/sodipodi-0.dtd"
   xmlns:inkscape="http://www.inkscape.org/namespaces/inkscape"
   width="42.058964"
   height="45"
   id="svg4387"
   version="1.1"
   inkscape:version="0.48.2 r9819"
   sodipodi:docname="conveyor.svg">
  <defs
     id="defs4389" />
  <sodipodi:namedview
     id="base"
     pagecolor="#ffffff"
     bordercolor="#666666"
     borderopacity="1.0"
     inkscape:pageopacity="0.0"
     inkscape:pageshadow="2"
     inkscape:zoom="1.4"
     inkscape:cx="1.1881923"
     inkscape:cy="-0.23125442"
     inkscape:document-units="px"
     inkscape:current-layer="layer1"
     showgrid="false"
     fit-margin-top="0"
     fit-margin-left="0"
     fit-margin-right="0"
     fit-margin-bottom="0"
     inkscape:window-width="1920"
     inkscape:window-height="1028"
     inkscape:window-x="-8"
     inkscape:window-y="-8"
     inkscape:window-maximized="1" />
  <metadata
     id="metadata4392">
    <rdf:RDF>
      <cc:Work
         rdf:about="">
        <dc:format>image/svg+xml</dc:format>
        <dc:type
           rdf:resource="http://purl.org/dc/dcmitype/StillImage" />
        <dc:title></dc:title>
      </cc:Work>
    </rdf:RDF>
  </metadata>
  <g
     inkscape:label="Layer 1"
     inkscape:groupmode="layer"
     id="layer1"
     transform="translate(-341.72003,-307.81245)">
    <path
       style="fill:#ff0000;fill-opacity:1;stroke:#ff0000;stroke-width:0;stroke-miterlimit:4;stroke-opacity:1;stroke-dasharray:none"
       d="m 460.96251,407.20842 c -1.33879,3.28871 -1.43071,6.1737 -1.43067,6.23639 l 2.46221,-0.003 c 8e-5,-0.0269 1.36181,-8.66595 12.53915,-9.24357 l -0.005,3.79169 10.22535,-6.95339 -10.22752,-6.92513 0.0101,3.52515 c -8.09841,0.43852 -11.85188,5.34314 -13.57318,9.57149 z"
       id="path3810"
       inkscape:connector-curvature="0"
       sodipodi:nodetypes="scccccccs" />
    <path
       style="fill:#ff0000;fill-opacity:1;fill-rule:nonzero;stroke:none"
       d="m 481.09769,424.87924 c 0.0369,2.97664 -3.63509,4.47458 -5.63116,2.65588 -1.7637,-1.28216 -1.59297,-4.42409 0.26497,-5.50991 2.06899,-1.49414 5.37794,-0.019 5.36619,2.85403 z m -28.15375,-5.76959 c 8.42096,0.0262 16.84262,0.0782 25.26296,0.15435 2.4935,0.0941 5.14971,1.94408 5.35205,4.85027 0.39262,2.43985 -1.03108,4.90199 -3.17286,5.66768 -2.53502,1.09767 -5.30786,0.51754 -7.96008,0.68515 -8.5287,0.0533 -17.05724,0.15168 -25.58617,0.15097 -0.009,0.86053 -0.0178,1.72106 -0.0267,2.58159 10.62607,-0.0138 21.25283,0.0277 31.87847,-0.021 2.53208,-0.0102 5.29813,-1.01472 6.5752,-3.57314 1.96107,-3.47335 3.82447,-7.02888 5.4632,-10.69253 1.27524,-3.20674 -0.25407,-7.09434 -3.01832,-8.69106 -2.2734,-1.44735 -4.95466,-2.04336 -7.5721,-1.9185 -8.94997,0 -17.89994,0 -26.84991,0 -2.14995,2.74162 -4.29991,5.48324 -6.44986,8.22486 0,0.86039 0,1.72078 0,2.58117"
       id="path3873-9"
       inkscape:connector-curvature="0" />
  </g>
</svg>
