<?xml version="1.0" encoding="UTF-8" standalone="no"?>
<!-- Created with Inkscape (http://www.inkscape.org/) -->

<svg
   xmlns:dc="http://purl.org/dc/elements/1.1/"
   xmlns:cc="http://creativecommons.org/ns#"
   xmlns:rdf="http://www.w3.org/1999/02/22-rdf-syntax-ns#"
   xmlns:svg="http://www.w3.org/2000/svg"
   xmlns="http://www.w3.org/2000/svg"
   xmlns:sodipodi="http://sodipodi.sourceforge.net/DTD/sodipodi-0.dtd"
   xmlns:inkscape="http://www.inkscape.org/namespaces/inkscape"
   width="744.09448819"
   height="1052.3622047"
   id="svg3865"
   version="1.1"
   inkscape:version="0.48.4 r"
   sodipodi:docname="corner-piece-left.svg">
  <defs
     id="defs3867" />
  <sodipodi:namedview
     id="base"
     pagecolor="#ffffff"
     bordercolor="#666666"
     borderopacity="1.0"
     inkscape:pageopacity="0.0"
     inkscape:pageshadow="2"
     inkscape:zoom="11.2"
     inkscape:cx="19.461654"
     inkscape:cy="1027.7086"
     inkscape:document-units="px"
     inkscape:current-layer="layer1"
     showgrid="false"
     inkscape:window-width="1920"
     inkscape:window-height="1027"
     inkscape:window-x="-8"
     inkscape:window-y="-8"
     inkscape:window-maximized="1" />
  <metadata
     id="metadata3870">
    <rdf:RDF>
      <cc:Work
         rdf:about="">
        <dc:format>image/svg+xml</dc:format>
        <dc:type
           rdf:resource="http://purl.org/dc/dcmitype/StillImage" />
        <dc:title></dc:title>
      </cc:Work>
    </rdf:RDF>
  </metadata>
  <g
     inkscape:label="Layer 1"
     inkscape:groupmode="layer"
     id="layer1">
    <g
       id="g3066"
       transform="matrix(-1.25,0,0,-1.25,-254.40631,-72.786797)">
      <path
         id="path3068"
         transform="matrix(-0.8,0,0,-0.8,-203.52505,-58.229438)"
         style="fill:#0000c0;fill-opacity:1;fill-rule:evenodd;stroke:none"
         d="m 50.375,0 -0.0625,0.03125 -0.03125,0 -0.03125,0 -0.03125,0.03125 -0.03125,0 -0.0625,0 -0.03125,0.03125 -0.03125,0 L 50.03125,0.125 50,0.15625 l -0.03125,0 -0.03125,0.03125 -0.03125,0.03125 -0.03125,0 L 49.84375,0.25 49.8125,0.28125 49.78125,0.3125 49.75,0.34375 l 0,0.03125 -0.03125,0.03125 -0.03125,0.03125 0,0.03125 L 49.65625,0.5 49.625,0.53125 l 0,0.03125 -0.03125,0.03125 0,0.03125 -0.03125,0.03125 0,0.03125 0,0.0625 -0.03125,0.03125 0,0.03125 0,0.03125 L 49.5,0.875 l 0,0.03125 0,0.0625 0,0.03125 0,30.5 0.09375,0 0.09375,0 0.0625,0.03125 0.09375,0 0.0625,0.03125 0.0625,0.03125 0.09375,0 0.0625,0.0625 0.0625,0.03125 0.09375,0.03125 0.0625,0.03125 0.0625,0.0625 0.0625,0.03125 0.0625,0.0625 0.0625,0.0625 0.0625,0.0625 0.03125,0.0625 0.0625,0.0625 0.03125,0.0625 0.03125,0.0625 0.0625,0.0625 0.03125,0.09375 0.03125,0.0625 0,0.0625 0.03125,0.09375 L 51,32.75 l 0,0.0625 0,0.09375 0,0.0625 0,0.09375 0,0.09375 0,0.0625 -0.03125,0.09375 0,0.0625 -0.03125,0.0625 -0.03125,0.09375 L 50.875,33.59375 50.84375,33.6875 50.8125,33.75 50.78125,33.8125 50.71875,33.875 50.6875,33.9375 50.625,34 50.5625,34.0625 50.5,34.125 50.4375,34.1875 50.375,34.21875 50.3125,34.25 50.25,34.3125 50.1875,34.34375 50.125,34.375 l -0.09375,0.03125 -0.0625,0.03125 -0.09375,0.03125 -0.0625,0 -0.09375,0.03125 -0.0625,0 -0.09375,0 -0.0625,0 -0.09375,0 -0.09375,0 -0.0625,-0.03125 -0.09375,0 L 49.09375,34.4375 49,34.40625 l -0.0625,0 -0.0625,-0.03125 -0.09375,-0.0625 -0.0625,-0.03125 -0.0625,-0.03125 -0.0625,-0.0625 -0.0625,-0.0625 -0.0625,-0.03125 -0.0625,-0.0625 -0.0625,-0.0625 L 48.3125,33.90625 48.25,33.84375 48.21875,33.78125 48.1875,33.6875 48.15625,33.625 48.125,33.5625 48.09375,33.46875 48.0625,33.40625 48.03125,33.3125 l 0,-0.0625 0,-0.09375 L 48,33.09375 48,33 1,33 0.96875,33 0.9375,33 0.875,33 l -0.03125,0.03125 -0.03125,0 -0.03125,0 -0.03125,0 -0.0625,0.03125 -0.03125,0 -0.03125,0.03125 -0.03125,0 -0.03125,0 L 0.53125,33.125 0.5,33.15625 l -0.03125,0 -0.03125,0.03125 -0.03125,0.03125 -0.03125,0 L 0.34375,33.25 0.3125,33.28125 0.28125,33.3125 0.25,33.34375 l 0,0.03125 -0.03125,0.03125 -0.03125,0.03125 -0.03125,0.03125 0,0.03125 -0.03125,0.03125 0,0.03125 -0.03125,0.03125 -0.03125,0.03125 0,0.03125 0,0.0625 -0.03125,0.03125 0,0.03125 0,0.03125 L 0,33.84375 0,33.90625 0,33.9375 0,33.96875 0,34 l 0,11 0,0.125 0,0.125 0.03125,0.09375 0,0.125 0.03125,0.125 0.03125,0.09375 0.03125,0.125 0.03125,0.09375 0.03125,0.125 0.03125,0.09375 0.0625,0.09375 0.03125,0.125 L 0.375,46.4375 0.4375,46.53125 0.5,46.625 0.5625,46.75 0.625,46.8125 0.6875,46.90625 0.75,47 0.84375,47.09375 0.9375,47.15625 1,47.25 l 0.09375,0.0625 0.09375,0.09375 0.09375,0.0625 0.09375,0.0625 0.09375,0.0625 0.09375,0.0625 0.125,0.03125 L 1.78125,47.75 1.875,47.78125 2,47.84375 2.09375,47.875 l 0.125,0.03125 0.09375,0.03125 0.125,0 0.09375,0.03125 0.125,0.03125 0.125,0 0.09375,0 0.125,0 54.5,0 0.28125,0 0.25,0 0.28125,-0.03125 0.28125,-0.03125 0.25,-0.0625 0.28125,-0.0625 0.25,-0.0625 0.25,-0.0625 0.25,-0.09375 0.25,-0.09375 0.25,-0.09375 0.25,-0.125 0.21875,-0.125 0.25,-0.125 0.21875,-0.15625 0.21875,-0.125 0.21875,-0.1875 0.21875,-0.15625 0.1875,-0.1875 0.21875,-0.15625 0.1875,-0.1875 0.1875,-0.21875 0.15625,-0.1875 0.1875,-0.21875 0.15625,-0.21875 0.125,-0.21875 0.15625,-0.21875 0.125,-0.25 0.125,-0.21875 0.125,-0.25 0.09375,-0.25 0.09375,-0.25 0.09375,-0.25 0.0625,-0.25 0.09375,-0.28125 0.03125,-0.25 0.0625,-0.28125 0.03125,-0.25 0.03125,-0.28125 0,-0.25 0,-0.28125 0,-38 0,-0.125 0,-0.09375 0,-0.125 -0.03125,-0.125 0,-0.09375 L 64.4375,2.3125 64.40625,2.21875 64.375,2.09375 64.34375,2 64.3125,1.875 64.25,1.78125 64.1875,1.6875 64.15625,1.5625 64.09375,1.46875 64.03125,1.375 63.96875,1.28125 63.90625,1.1875 63.84375,1.09375 63.75,1 63.65625,0.9375 63.59375,0.84375 63.5,0.75 63.4375,0.6875 63.3125,0.625 63.25,0.5625 63.15625,0.46875 63.03125,0.40625 62.9375,0.375 62.84375,0.3125 62.75,0.25 62.625,0.21875 62.53125,0.1875 62.40625,0.15625 62.3125,0.125 62.1875,0.09375 62.09375,0.0625 l -0.125,-0.03125 -0.125,0 L 61.75,0 61.625,0 61.5,0 50.5,0 50.46875,0 50.4375,0 50.40625,0 50.375,0 z m 6.5,10.75 0.28125,0 0.25,0.03125 0.28125,0.03125 0.25,0.03125 0.25,0.0625 0.28125,0.0625 0.25,0.09375 0.21875,0.09375 0.25,0.09375 0.25,0.125 0.21875,0.125 0.21875,0.15625 0.21875,0.15625 L 60.3125,12 60.5,12.15625 l 0.1875,0.21875 0.15625,0.1875 0.1875,0.21875 L 61.1875,13 l 0.125,0.21875 0.125,0.21875 0.125,0.25 0.09375,0.25 0.09375,0.25 0.09375,0.25 0.0625,0.25 0.03125,0.28125 0.0625,0.25 0,0.28125 0,0.25 0,0.28125 0,0.25 -0.0625,0.28125 -0.03125,0.25 -0.0625,0.25 -0.09375,0.25 -0.09375,0.25 -0.09375,0.25 -0.125,0.25 -0.125,0.21875 -0.125,0.25 L 61.03125,18.75 60.84375,18.9375 60.6875,19.15625 60.5,19.34375 60.3125,19.5 60.09375,19.6875 59.875,19.84375 59.65625,20 l -0.21875,0.125 -0.25,0.125 -0.25,0.125 -0.21875,0.09375 -0.25,0.0625 -0.28125,0.0625 -0.25,0.0625 -0.25,0.0625 -0.28125,0.03125 -0.25,0 -0.28125,0 -0.25,0 -0.28125,-0.03125 -0.25,-0.0625 -0.25,-0.0625 -0.28125,-0.0625 -0.25,-0.0625 -0.25,-0.09375 -0.25,-0.125 L 54.59375,20.125 54.34375,20 54.125,19.84375 53.9375,19.6875 53.71875,19.5 53.53125,19.34375 53.34375,19.15625 53.15625,18.9375 53,18.75 l -0.15625,-0.21875 -0.125,-0.25 -0.15625,-0.21875 -0.09375,-0.25 -0.125,-0.25 -0.0625,-0.25 -0.09375,-0.25 -0.0625,-0.25 -0.0625,-0.25 -0.03125,-0.28125 0,-0.25 L 52,15.75 l 0.03125,-0.25 0,-0.28125 0.03125,-0.25 0.0625,-0.28125 0.0625,-0.25 0.09375,-0.25 0.0625,-0.25 0.125,-0.25 0.09375,-0.25 0.15625,-0.21875 L 52.84375,13 53,12.78125 53.15625,12.5625 53.34375,12.375 53.53125,12.15625 53.71875,12 53.9375,11.8125 54.125,11.65625 54.34375,11.5 l 0.25,-0.125 0.21875,-0.125 0.25,-0.09375 0.25,-0.09375 0.25,-0.09375 0.28125,-0.0625 0.25,-0.0625 0.25,-0.03125 0.28125,-0.03125 0.25,-0.03125 z m -35.0625,24.75 0.25,0 0.25,0 0.28125,0.03125 0.25,0.03125 0.25,0.0625 0.25,0.0625 0.25,0.0625 0.25,0.09375 0.21875,0.125 0.25,0.09375 0.21875,0.125 0.21875,0.125 0.21875,0.15625 0.1875,0.15625 0.21875,0.1875 0.1875,0.15625 0.15625,0.21875 0.03125,0 0.03125,0.03125 0,0.03125 0.03125,0 0.03125,0.03125 0.03125,0.03125 0.03125,0 0.03125,0.03125 0.03125,0 0,0.03125 0.03125,0 0.03125,0.03125 0.03125,0 0.03125,0 0.03125,0.03125 0.03125,0.03125 0.03125,0 0.03125,0 0.03125,0 0.03125,0 0.03125,0.03125 0.03125,0 0.03125,0 0.03125,0 0.03125,0 0.03125,0 1.3125,0 0.03125,0 0.03125,0 0.03125,0 0.03125,0 0.03125,0 0.03125,0 L 28,37.46875 l 0.03125,0 0.03125,0 0.03125,0 0.03125,-0.03125 0.03125,0 0.03125,-0.03125 0.03125,0 0.03125,0 0,-0.03125 0.03125,0 0.03125,-0.03125 0.03125,0 0.03125,-0.03125 0.03125,-0.03125 0.03125,0 0,-0.03125 0.03125,0 0.03125,-0.03125 0,-0.03125 0.03125,0 0.1875,-0.21875 0.1875,-0.15625 0.1875,-0.1875 0.21875,-0.15625 0.1875,-0.15625 0.21875,-0.125 0.25,-0.125 0.21875,-0.09375 0.25,-0.125 0.25,-0.09375 0.21875,-0.0625 0.28125,-0.0625 0.25,-0.0625 0.25,-0.03125 0.25,-0.03125 0.28125,0 0.25,0 0.25,0.03125 0.25,0.03125 0.25,0.03125 0.28125,0.0625 0.25,0.0625 0.21875,0.09375 0.25,0.09375 0.25,0.125 0.21875,0.09375 0.21875,0.125 0.21875,0.15625 0.21875,0.15625 0.1875,0.15625 0.1875,0.1875 0.1875,0.1875 0.1875,0.1875 0.15625,0.1875 0.15625,0.21875 0.125,0.21875 0.125,0.25 0.125,0.21875 0.09375,0.25 0.09375,0.21875 0.09375,0.25 0.0625,0.25 0.0625,0.25 0.03125,0.25 0.03125,0.28125 0,0.25 0,0.25 0,0.28125 -0.03125,0.25 -0.03125,0.25 -0.0625,0.25 -0.0625,0.25 -0.09375,0.25 -0.09375,0.25 -0.09375,0.25 -0.125,0.21875 -0.125,0.21875 -0.125,0.21875 -0.15625,0.21875 -0.15625,0.1875 -0.1875,0.1875 -0.1875,0.1875 -0.1875,0.1875 -0.1875,0.15625 L 35.125,44.59375 34.90625,44.75 34.6875,44.875 34.46875,45 l -0.25,0.09375 -0.25,0.09375 -0.21875,0.09375 -0.25,0.0625 -0.28125,0.0625 -0.25,0.0625 -0.25,0 -0.25,0.03125 -0.25,0 -0.28125,0 -0.25,-0.03125 -0.25,-0.03125 -0.25,-0.0625 -0.28125,-0.0625 -0.21875,-0.0625 -0.25,-0.09375 -0.25,-0.09375 -0.21875,-0.125 -0.25,-0.125 L 29.5,44.6875 29.3125,44.53125 29.09375,44.375 l -0.1875,-0.15625 -0.1875,-0.1875 -0.1875,-0.1875 L 28.5,43.8125 28.46875,43.78125 28.4375,43.75 28.40625,43.71875 28.375,43.6875 l -0.03125,0 -0.03125,-0.03125 -0.03125,-0.03125 -0.03125,0 -0.03125,-0.03125 -0.03125,0 -0.03125,-0.03125 -0.03125,0 -0.03125,0 -0.03125,0 -0.03125,-0.03125 -0.03125,0 -0.03125,0 L 27.9375,43.5 l -0.03125,0 -0.03125,0 -0.03125,0 -0.03125,0 -0.03125,0 -1.3125,0 -0.03125,0 -0.03125,0 -0.03125,0 -0.03125,0 -0.03125,0.03125 -0.03125,0 -0.03125,0 -0.03125,0 -0.03125,0.03125 -0.03125,0 -0.03125,0 -0.03125,0.03125 -0.03125,0 -0.03125,0.03125 -0.03125,0 -0.03125,0 0,0.03125 -0.03125,0.03125 -0.03125,0 -0.03125,0 -0.03125,0.03125 0,0.03125 -0.03125,0 -0.03125,0.03125 0,0.03125 -0.03125,0 -0.03125,0.03125 -0.15625,0.1875 -0.1875,0.1875 -0.21875,0.15625 -0.1875,0.15625 -0.21875,0.15625 -0.21875,0.125 -0.21875,0.125 -0.25,0.125 -0.21875,0.09375 -0.25,0.09375 -0.25,0.0625 -0.25,0.0625 -0.25,0.0625 -0.25,0.03125 -0.28125,0.03125 -0.25,0 -0.25,0 -0.28125,-0.03125 -0.25,0 -0.25,-0.0625 -0.25,-0.0625 -0.25,-0.0625 -0.25,-0.09375 -0.25,-0.09375 L 19.8125,45 19.5625,44.875 19.34375,44.75 19.125,44.59375 18.9375,44.4375 18.71875,44.28125 18.53125,44.09375 18.375,43.90625 18.1875,43.71875 18.03125,43.53125 17.875,43.3125 17.71875,43.09375 17.59375,42.875 17.5,42.65625 l -0.125,-0.25 -0.09375,-0.25 -0.0625,-0.25 -0.0625,-0.25 -0.0625,-0.25 -0.0625,-0.25 0,-0.25 L 17,40.625 l 0,-0.25 0.03125,-0.25 0,-0.28125 0.0625,-0.25 0.0625,-0.25 0.0625,-0.25 0.0625,-0.25 0.09375,-0.21875 0.125,-0.25 0.09375,-0.21875 0.125,-0.25 0.15625,-0.21875 0.15625,-0.21875 0.15625,-0.1875 0.1875,-0.1875 0.15625,-0.1875 0.1875,-0.1875 0.21875,-0.15625 0.1875,-0.15625 0.21875,-0.15625 0.21875,-0.125 0.25,-0.09375 0.21875,-0.125 0.25,-0.09375 0.25,-0.09375 0.25,-0.0625 0.25,-0.0625 0.25,-0.03125 0.25,-0.03125 L 21.8125,35.5 z m 35.0625,0 0.28125,0 0.25,0.03125 0.28125,0.03125 0.25,0.03125 0.25,0.0625 0.28125,0.0625 0.25,0.09375 0.21875,0.09375 0.25,0.09375 0.25,0.125 0.21875,0.125 0.21875,0.15625 0.21875,0.15625 0.21875,0.1875 0.1875,0.1875 0.1875,0.1875 0.15625,0.1875 0.1875,0.21875 0.15625,0.21875 0.125,0.21875 0.125,0.21875 0.125,0.25 0.09375,0.25 0.09375,0.25 0.09375,0.25 0.0625,0.25 0.03125,0.28125 0.0625,0.25 0,0.28125 0,0.25 0,0.28125 0,0.25 -0.0625,0.28125 -0.03125,0.25 -0.0625,0.25 -0.09375,0.25 -0.09375,0.25 -0.09375,0.25 -0.125,0.25 -0.125,0.25 -0.125,0.21875 L 61.03125,43.5 60.84375,43.6875 60.6875,43.90625 60.5,44.09375 60.3125,44.25 60.09375,44.4375 59.875,44.59375 59.65625,44.75 59.4375,44.875 59.1875,45 l -0.25,0.125 -0.21875,0.09375 -0.25,0.09375 -0.28125,0.0625 -0.25,0.03125 -0.25,0.0625 -0.28125,0.03125 -0.25,0 -0.28125,0 -0.25,0 -0.28125,-0.03125 -0.25,-0.0625 -0.25,-0.03125 -0.28125,-0.0625 -0.25,-0.09375 L 55.0625,45.125 54.8125,45 54.59375,44.875 54.34375,44.75 54.125,44.59375 53.9375,44.4375 53.71875,44.25 53.53125,44.09375 53.34375,43.90625 53.15625,43.6875 53,43.5 l -0.15625,-0.21875 -0.125,-0.21875 -0.15625,-0.25 -0.09375,-0.25 -0.125,-0.25 -0.0625,-0.25 -0.09375,-0.25 -0.0625,-0.25 -0.0625,-0.25 -0.03125,-0.28125 0,-0.25 L 52,40.5 l 0.03125,-0.25 0,-0.28125 0.03125,-0.25 0.0625,-0.28125 0.0625,-0.25 0.09375,-0.25 0.0625,-0.25 0.125,-0.25 0.09375,-0.25 0.15625,-0.21875 L 52.84375,37.75 53,37.53125 l 0.15625,-0.21875 0.1875,-0.1875 0.1875,-0.1875 0.1875,-0.1875 0.21875,-0.1875 0.1875,-0.15625 0.21875,-0.15625 0.25,-0.125 0.21875,-0.125 0.25,-0.09375 0.25,-0.09375 0.25,-0.09375 0.28125,-0.0625 0.25,-0.0625 0.25,-0.03125 L 56.625,35.53125 56.875,35.5 z" />
    </g>
  </g>
</svg>
