<?xml version="1.0" encoding="UTF-8" standalone="no"?>
<svg
   xmlns:dc="http://purl.org/dc/elements/1.1/"
   xmlns:cc="http://creativecommons.org/ns#"
   xmlns:rdf="http://www.w3.org/1999/02/22-rdf-syntax-ns#"
   xmlns:svg="http://www.w3.org/2000/svg"
   xmlns="http://www.w3.org/2000/svg"
   xmlns:sodipodi="http://sodipodi.sourceforge.net/DTD/sodipodi-0.dtd"
   xmlns:inkscape="http://www.inkscape.org/namespaces/inkscape"
   version="1.1"
   x="0px"
   y="0px"
   width="25"
   height="25"
   viewBox="0 0 25 25"
   enable-background="new 0 0 100 100"
   xml:space="preserve"
   id="svg2"
   inkscape:version="0.48.2 r9819"
   sodipodi:docname="info_icon.svg"><metadata
   id="metadata12"><rdf:RDF><cc:Work
       rdf:about=""><dc:format>image/svg+xml</dc:format><dc:type
         rdf:resource="http://purl.org/dc/dcmitype/StillImage" /><dc:title></dc:title></cc:Work></rdf:RDF></metadata><defs
   id="defs10" /><sodipodi:namedview
   pagecolor="#ffffff"
   bordercolor="#666666"
   borderopacity="1"
   objecttolerance="10"
   gridtolerance="10"
   guidetolerance="10"
   inkscape:pageopacity="0"
   inkscape:pageshadow="2"
   inkscape:window-width="1920"
   inkscape:window-height="1028"
   id="namedview8"
   showgrid="false"
   fit-margin-top="0"
   fit-margin-left="0"
   fit-margin-right="0"
   fit-margin-bottom="0"
   inkscape:zoom="4.72"
   inkscape:cx="48.02528"
   inkscape:cy="9.3706199"
   inkscape:window-x="-8"
   inkscape:window-y="-8"
   inkscape:window-maximized="1"
   inkscape:current-layer="svg2" />
<g
   id="Captions"
   transform="translate(-1.9747202,-68.268923)">
</g>

<path
   d="m 14.6875,3.0625 c -0.41375,0 -0.7865,0.16475 -1.125,0.53125 -0.33775,0.3665 -0.5,0.802 -0.5,1.28125 0,0.3855 0.09625,0.6855 0.3125,0.90625 0.21625,0.221 0.51475,0.34375 0.84375,0.34375 0.40375,0 0.747501,-0.20525 1.0625,-0.5625 0.315,-0.357 0.4685,-0.78625 0.46875,-1.3125 0,-0.38525 -0.09325,-0.66825 -0.28125,-0.875 -0.188,-0.20675 -0.452251,-0.3125 -0.78125,-0.3125 z m -0.875,5.5 c -0.7305,0 -2.2405,0.855251 -4.5625,2.59375 l 0.28125,0.5625 c 1.1935,-0.8175 1.949,-1.21875 2.25,-1.21875 0.2725,0 0.40625,0.17425 0.40625,0.53125 0,0.74275 -0.486,2.935 -1.46875,6.5625 -0.49825,1.8515 -0.75,3.07675 -0.75,3.6875 0,0.423 0.06675,0.74325 0.25,0.96875 0.183,0.22575 0.40225,0.34375 0.65625,0.34375 0.31,0 0.64225,-0.106 1,-0.3125 0.87425,-0.48875 2.000001,-1.26225 3.34375,-2.34375 L 14.9375,19.375 c -1.17525,0.84625 -1.94275,1.28125 -2.28125,1.28125 -0.2915,0 -0.4375,-0.18025 -0.4375,-0.5 0,-0.88325 0.55525,-3.38675 1.65625,-7.53125 0.43225,-1.626 0.65625,-2.7205 0.65625,-3.3125 0,-0.24425 -0.066,-0.43575 -0.1875,-0.5625 C 14.22175,8.623 14.037,8.5625 13.8125,8.5625 z"
   id="path3"
   inkscape:connector-curvature="0"
   sodipodi:nodetypes="scscsccsssccsscscscccsscscs" /></svg>