<?xml version="1.0" encoding="UTF-8" standalone="no"?>
<!-- Created with Inkscape (http://www.inkscape.org/) -->

<svg
   xmlns:dc="http://purl.org/dc/elements/1.1/"
   xmlns:cc="http://creativecommons.org/ns#"
   xmlns:rdf="http://www.w3.org/1999/02/22-rdf-syntax-ns#"
   xmlns:svg="http://www.w3.org/2000/svg"
   xmlns="http://www.w3.org/2000/svg"
   xmlns:sodipodi="http://sodipodi.sourceforge.net/DTD/sodipodi-0.dtd"
   xmlns:inkscape="http://www.inkscape.org/namespaces/inkscape"
   width="744.09448819"
   height="1052.3622047"
   id="svg3245"
   version="1.1"
   inkscape:version="0.48.2 r9819"
   sodipodi:docname="New document 6">
  <defs
     id="defs3247" />
  <sodipodi:namedview
     id="base"
     pagecolor="#ffffff"
     bordercolor="#666666"
     borderopacity="1.0"
     inkscape:pageopacity="0.0"
     inkscape:pageshadow="2"
     inkscape:zoom="2.8284271"
     inkscape:cx="43.718978"
     inkscape:cy="988.77448"
     inkscape:document-units="px"
     inkscape:current-layer="layer1"
     showgrid="false"
     inkscape:window-width="1920"
     inkscape:window-height="1028"
     inkscape:window-x="-8"
     inkscape:window-y="-8"
     inkscape:window-maximized="1" />
  <metadata
     id="metadata3250">
    <rdf:RDF>
      <cc:Work
         rdf:about="">
        <dc:format>image/svg+xml</dc:format>
        <dc:type
           rdf:resource="http://purl.org/dc/dcmitype/StillImage" />
        <dc:title></dc:title>
      </cc:Work>
    </rdf:RDF>
  </metadata>
  <g
     inkscape:label="Layer 1"
     inkscape:groupmode="layer"
     id="layer1">
    <path
       style="fill:#00007d;fill-opacity:0.50970016;stroke:#00ff00;stroke-width:0;stroke-miterlimit:4;stroke-opacity:1;stroke-dasharray:none"
       d="m 4.3125,0.12499999 c -1.9028305,0 -3.5,1.56110911 -3.5,3.50000001 0,1.938891 1.5971695,3.5 3.5,3.5 1.9028305,0 3.46875,-1.561109 3.46875,-3.5 0,-1.9388909 -1.5659195,-3.50000001 -3.46875,-3.50000001 z m 12.125,0 c -1.90283,0 -3.46875,1.56110911 -3.46875,3.50000001 0,1.938891 1.56592,3.5 3.46875,3.5 1.902831,0 3.5,-1.561109 3.5,-3.5 0,-1.9388909 -1.597169,-3.50000001 -3.5,-3.50000001 z M 4.3125,1.3125 c 1.309224,0 2.3125,1.0393364 2.3125,2.3125 0,1.273164 -1.003276,2.3125 -2.3125,2.3125 -1.309224,0 -2.34375,-1.039336 -2.34375,-2.3125 0,-1.2731636 1.034526,-2.3125 2.34375,-2.3125 z m 12.125,0 c 1.309224,0 2.34375,1.0393364 2.34375,2.3125 0,1.273164 -1.034526,2.3125 -2.34375,2.3125 -1.309224,0 -2.34375,-1.039336 -2.34375,-2.3125 0,-1.2731636 1.034526,-2.3125 2.34375,-2.3125 z m -12.125,9.03125 c -2.4090408,0 -4.375,1.965959 -4.375,4.375 0,2.409041 1.9659592,4.34375 4.375,4.34375 2.4090408,0 4.34375,-1.934709 4.34375,-4.34375 0,-2.409041 -1.9347092,-4.375 -4.34375,-4.375 z m 12.125,0.875 c -1.90283,0 -3.46875,1.561109 -3.46875,3.5 0,1.938891 1.56592,3.46875 3.46875,3.46875 1.902831,0 3.5,-1.529859 3.5,-3.46875 0,-1.938891 -1.597169,-3.5 -3.5,-3.5 z m 0,1.15625 c 1.309224,0 2.34375,1.070586 2.34375,2.34375 0,1.273164 -1.034526,2.3125 -2.34375,2.3125 -1.309224,0 -2.34375,-1.039336 -2.34375,-2.3125 0,-1.273164 1.034526,-2.34375 2.34375,-2.34375 z"
       id="path3253"
       inkscape:connector-curvature="0" />
  </g>
</svg>
