<?xml version="1.0" encoding="UTF-8" standalone="no"?>
<!-- Created with Inkscape (http://www.inkscape.org/) -->

<svg
   xmlns:dc="http://purl.org/dc/elements/1.1/"
   xmlns:cc="http://creativecommons.org/ns#"
   xmlns:rdf="http://www.w3.org/1999/02/22-rdf-syntax-ns#"
   xmlns:svg="http://www.w3.org/2000/svg"
   xmlns="http://www.w3.org/2000/svg"
   xmlns:sodipodi="http://sodipodi.sourceforge.net/DTD/sodipodi-0.dtd"
   xmlns:inkscape="http://www.inkscape.org/namespaces/inkscape"
   width="37"
   height="37"
   id="svg4319"
   version="1.1"
   inkscape:version="0.48.2 r9819"
   sodipodi:docname="outergripper.svg">
  <defs
     id="defs4321" />
  <sodipodi:namedview
     id="base"
     pagecolor="#ffffff"
     bordercolor="#666666"
     borderopacity="1.0"
     inkscape:pageopacity="0.0"
     inkscape:pageshadow="2"
     inkscape:zoom="15.839192"
     inkscape:cx="21.842448"
     inkscape:cy="13.573713"
     inkscape:document-units="px"
     inkscape:current-layer="layer1"
     showgrid="false"
     fit-margin-top="0"
     fit-margin-left="0"
     fit-margin-right="0"
     fit-margin-bottom="0"
     showguides="false"
     inkscape:window-width="1920"
     inkscape:window-height="1028"
     inkscape:window-x="-8"
     inkscape:window-y="-8"
     inkscape:window-maximized="1" />
  <metadata
     id="metadata4324">
    <rdf:RDF>
      <cc:Work
         rdf:about="">
        <dc:format>image/svg+xml</dc:format>
        <dc:type
           rdf:resource="http://purl.org/dc/dcmitype/StillImage" />
        <dc:title />
      </cc:Work>
    </rdf:RDF>
  </metadata>
  <g
     inkscape:label="Layer 1"
     inkscape:groupmode="layer"
     id="layer1"
     transform="translate(234.28205,673.45833)">
    <g
       id="g4900"
       transform="matrix(1.2484867,0,0,1.2484867,33.613903,159.18302)">
      <path
         id="path3267"
         transform="matrix(0.80096969,0,0,0.80096969,-214.57654,-666.92048)"
         d="m 7.875,9.90625 0,8.5625 0,8.625 21.25,0 0,-8.625 0,-8.5625 -21.25,0 z m 21.25,8.5625 4.1875,2.875 0,-2.09375 3.59375,0 0,-1.53125 -3.59375,0 0,-2.0625 -4.1875,2.8125 z m -21.25,0 -4.1875,-2.8125 0,2.0625 -3.59375,0 0,1.53125 3.59375,0 0,2.09375 4.1875,-2.875 z" />
    </g>
  </g>
</svg>
