<?xml version="1.0" encoding="UTF-8" standalone="no"?>
<!-- Created with Inkscape (http://www.inkscape.org/) -->

<svg
   xmlns:dc="http://purl.org/dc/elements/1.1/"
   xmlns:cc="http://creativecommons.org/ns#"
   xmlns:rdf="http://www.w3.org/1999/02/22-rdf-syntax-ns#"
   xmlns:svg="http://www.w3.org/2000/svg"
   xmlns="http://www.w3.org/2000/svg"
   xmlns:sodipodi="http://sodipodi.sourceforge.net/DTD/sodipodi-0.dtd"
   xmlns:inkscape="http://www.inkscape.org/namespaces/inkscape"
   width="744.09448819"
   height="1052.3622047"
   id="svg3874"
   version="1.1"
   inkscape:version="0.48.2 r9819"
   sodipodi:docname="pause-left-icon.svg">
  <defs
     id="defs3876" />
  <sodipodi:namedview
     id="base"
     pagecolor="#ffffff"
     bordercolor="#666666"
     borderopacity="1.0"
     inkscape:pageopacity="0.0"
     inkscape:pageshadow="2"
     inkscape:zoom="11.2"
     inkscape:cx="31.266615"
     inkscape:cy="1036.0714"
     inkscape:document-units="px"
     inkscape:current-layer="layer1"
     showgrid="false"
     inkscape:window-width="1920"
     inkscape:window-height="1028"
     inkscape:window-x="-8"
     inkscape:window-y="-8"
     inkscape:window-maximized="1" />
  <metadata
     id="metadata3879">
    <rdf:RDF>
      <cc:Work
         rdf:about="">
        <dc:format>image/svg+xml</dc:format>
        <dc:type
           rdf:resource="http://purl.org/dc/dcmitype/StillImage" />
        <dc:title></dc:title>
      </cc:Work>
    </rdf:RDF>
  </metadata>
  <g
     inkscape:label="Layer 1"
     inkscape:groupmode="layer"
     id="layer1">
    <path
       style="fill:#000000;fill-opacity:1;fill-rule:evenodd;stroke:#000000;stroke-width:0.09469556;stroke-linecap:butt;stroke-linejoin:miter;stroke-miterlimit:4;stroke-opacity:1;stroke-dasharray:none"
       d="M 9.9375 0.125 C 4.496733 0.125 0.0625 4.5580014 0.0625 10 C 0.0625 15.439535 4.496733 19.875 9.9375 19.875 C 15.038219 19.875 19.182943 15.966807 19.6875 11 L 19.6875 11.8125 L 34.4375 11.8125 L 29.875 16.0625 L 34.375 16.0625 L 40.125 10.6875 L 40.125 10.5625 L 34.375 5.25 L 29.875 5.25 L 34.375 9.375 L 19.6875 9.375 C 19.360574 4.2287004 15.165241 0.125 9.9375 0.125 z M 6.5625 5.5625 L 8.8125 5.5625 L 8.8125 14.4375 L 6.5625 14.4375 L 6.5625 5.5625 z M 11 5.5625 L 13.25 5.5625 L 13.25 14.4375 L 11 14.4375 L 11 5.5625 z "
       id="rect5671" />
    <g
       id="arrow_x5F_down_x5F_alt1"
       transform="matrix(0.38484375,0,0,0.38484375,0,-0.01976159)" />
  </g>
</svg>
