<?xml version="1.0" encoding="UTF-8" standalone="no"?>
<svg
   xmlns:dc="http://purl.org/dc/elements/1.1/"
   xmlns:cc="http://creativecommons.org/ns#"
   xmlns:rdf="http://www.w3.org/1999/02/22-rdf-syntax-ns#"
   xmlns:svg="http://www.w3.org/2000/svg"
   xmlns="http://www.w3.org/2000/svg"
   xmlns:sodipodi="http://sodipodi.sourceforge.net/DTD/sodipodi-0.dtd"
   xmlns:inkscape="http://www.inkscape.org/namespaces/inkscape"
   version="1.1"
   id="Layer_1"
   x="0px"
   y="0px"
   width="89.231px"
   height="100px"
   viewBox="0 0 89.231 100"
   enable-background="new 0 0 89.231 100"
   xml:space="preserve"
   inkscape:version="0.48.2 r9819"
   sodipodi:docname="noun_project_10033.svg"><metadata
   id="metadata15"><rdf:RDF><cc:Work
       rdf:about=""><dc:format>image/svg+xml</dc:format><dc:type
         rdf:resource="http://purl.org/dc/dcmitype/StillImage" /><dc:title></dc:title></cc:Work></rdf:RDF></metadata><defs
   id="defs13" /><sodipodi:namedview
   pagecolor="#ffffff"
   bordercolor="#666666"
   borderopacity="1"
   objecttolerance="10"
   gridtolerance="10"
   guidetolerance="10"
   inkscape:pageopacity="0"
   inkscape:pageshadow="2"
   inkscape:window-width="1920"
   inkscape:window-height="1028"
   id="namedview11"
   showgrid="false"
   inkscape:zoom="2.36"
   inkscape:cx="44.615501"
   inkscape:cy="50"
   inkscape:window-x="-8"
   inkscape:window-y="-8"
   inkscape:window-maximized="1"
   inkscape:current-layer="Layer_1" />
<path
   d="M 44.59375 0 L 14.28125 17.5 L 44.59375 35 L 44.59375 24.25 C 61.77975 24.25 75.75 38.22125 75.75 55.40625 C 75.75 71.88325 62.8945 85.412 46.6875 86.5 L 46.6875 100 C 70.3305 98.897 89.21875 79.31625 89.21875 55.40625 C 89.21875 30.79025 69.20975 10.78125 44.59375 10.78125 L 44.59375 0 z M 0 57.5 C 0.18 61.358 0.86675 65.11225 1.96875 68.65625 L 14.65625 64.03125 C 14.05325 61.94125 13.65 59.744 13.5 57.5 L 0 57.5 z M 16.09375 68 L 3.40625 72.59375 C 5.90425 78.55275 9.66675 83.8655 14.34375 88.1875 L 23.03125 77.84375 C 20.13225 75.05175 17.74675 71.73 16.09375 68 z M 26.25 80.5625 L 17.5625 90.90625 C 24.5475 96.24225 33.12475 99.562 42.46875 100 L 42.46875 86.5 C 36.41775 86.091 30.869 83.9465 26.25 80.5625 z "
   transform="translate(-1.4038086e-6,0)"
   id="path3" />



</svg>