<?xml version="1.0" encoding="UTF-8" standalone="no"?>
<!-- Created with Inkscape (http://www.inkscape.org/) -->

<svg
   xmlns:dc="http://purl.org/dc/elements/1.1/"
   xmlns:cc="http://creativecommons.org/ns#"
   xmlns:rdf="http://www.w3.org/1999/02/22-rdf-syntax-ns#"
   xmlns:svg="http://www.w3.org/2000/svg"
   xmlns="http://www.w3.org/2000/svg"
   xmlns:sodipodi="http://sodipodi.sourceforge.net/DTD/sodipodi-0.dtd"
   xmlns:inkscape="http://www.inkscape.org/namespaces/inkscape"
   width="744.09448819"
   height="1052.3622047"
   id="svg6524"
   version="1.1"
   inkscape:version="0.48.2 r9819"
   sodipodi:docname="robot-icon.svg">
  <defs
     id="defs6526" />
  <sodipodi:namedview
     id="base"
     pagecolor="#ffffff"
     bordercolor="#666666"
     borderopacity="1.0"
     inkscape:pageopacity="0.0"
     inkscape:pageshadow="2"
     inkscape:zoom="2.8"
     inkscape:cx="53.112926"
     inkscape:cy="934.28571"
     inkscape:document-units="px"
     inkscape:current-layer="layer1"
     showgrid="false"
     inkscape:window-width="1920"
     inkscape:window-height="1028"
     inkscape:window-x="-8"
     inkscape:window-y="-8"
     inkscape:window-maximized="1" />
  <metadata
     id="metadata6529">
    <rdf:RDF>
      <cc:Work
         rdf:about="">
        <dc:format>image/svg+xml</dc:format>
        <dc:type
           rdf:resource="http://purl.org/dc/dcmitype/StillImage" />
        <dc:title></dc:title>
      </cc:Work>
    </rdf:RDF>
  </metadata>
  <g
     inkscape:label="Layer 1"
     inkscape:groupmode="layer"
     id="layer1">
    <g
       id="g3567"
       transform="matrix(0.05540166,0,0,0.05540166,-10.637421,-13.933134)">
      <path
         style="fill:#010101"
         d="M 15.75 0.09375 C 15.69501 0.0951683 15.639844 0.11453532 15.59375 0.15625 C 15.479736 0.25943171 15.372009 0.27227839 15.34375 0.1875 C 15.33112 0.1496086 15.26277 0.1632054 15.15625 0.21875 C 15.06545 0.2660974 14.941067 0.3123338 14.875 0.3125 C 14.694387 0.31299861 14.59375 0.378668 14.59375 0.46875 C 14.59375 0.5324575 14.53469 0.5286338 14.34375 0.5 C 14.158641 0.472241 14.043093 0.4767454 13.875 0.5625 C 13.578611 0.71370609 13.510539 0.82060852 13.4375 1.1875 C 13.38307 1.4609382 13.36753 1.5260208 13.15625 1.6875 C 12.941836 1.8513737 12.900811 1.8592855 12.84375 1.78125 C 12.75166 1.6553093 12.720882 1.661879 12.53125 1.9375 C 12.361673 2.1839726 11.71999 2.625 11.53125 2.625 C 11.4832 2.625 11.393407 2.705464 11.34375 2.78125 C 11.250926 2.922917 10.896657 3.125 10.75 3.125 C 10.70463 3.125 10.579301 3.208531 10.5 3.3125 C 10.357995 3.4986784 10.023309 3.6875 9.8125 3.6875 C 9.753247 3.6875 9.688865 3.720308 9.65625 3.78125 C 9.5861658 3.912204 9.4308378 3.9256429 9.28125 3.8125 C 9.1290517 3.6973831 8.8374165 3.7195439 8.71875 3.84375 C 8.6240021 3.9429212 8.4824106 3.9961283 8.03125 4.0625 C 7.8696611 4.0862723 7.8244439 4.1260931 7.78125 4.25 C 7.7512212 4.3361396 7.6706287 4.4496271 7.59375 4.5 C 7.4753755 4.5775618 7.4556543 4.6021112 7.5 4.71875 C 7.528801 4.794501 7.5625 4.8777625 7.5625 4.90625 C 7.5625 4.993767 7.3986054 4.97302 7.34375 4.875 C 7.298185 4.793579 7.250332 4.778892 7.09375 4.84375 L 6.9375 4.90625 L 7.21875 5.1875 C 7.3739838 5.3302136 7.5 5.4803442 7.5 5.53125 C 7.5 5.5821553 7.4352813 5.6630863 7.34375 5.71875 C 7.1838769 5.8159744 7.1524632 5.8179808 7.25 5.90625 C 7.3058421 5.9567868 7.4178253 6 7.46875 6 C 7.6272813 6 7.544001 6.2073866 7.34375 6.34375 C 7.1925062 6.4467411 7.1502809 6.5052429 7.125 6.6875 C 7.074873 7.0488834 7.150712 7.2500031 7.4375 7.4375 C 7.5773216 7.528913 7.7326445 7.6822195 7.78125 7.78125 C 7.85071 7.9227702 7.9107979 7.9418435 8.03125 7.9375 L 8.1875 7.9375 L 8.0625 7.90625 C 7.9564163 7.8769868 7.9197536 7.8265133 7.90625 7.6875 C 7.896553 7.5876762 7.9012191 7.4499658 7.9375 7.40625 C 8.01382 7.31429 8.21875 7.320211 8.21875 7.40625 C 8.21875 7.438275 8.299602 7.486689 8.40625 7.53125 C 8.5128982 7.57581 8.59375 7.6457565 8.59375 7.6875 C 8.59375 7.729243 8.660389 7.7972385 8.71875 7.8125 C 8.77711 7.827762 8.8335506 7.897797 8.84375 7.96875 C 8.857252 8.062681 8.901146 8.1007929 9.0625 8.15625 C 9.5968047 8.3398893 9.636641 8.359868 9.875 8.84375 C 10.141105 9.3839588 10.216894 9.6577802 10.21875 10.15625 C 10.219703 10.41118 10.25846 10.686475 10.375 11.03125 C 10.46641 11.301685 10.53125 11.604566 10.53125 11.71875 C 10.53125 11.832934 10.56159 12.009161 10.59375 12.09375 C 10.742446 12.484851 10.448154 12.703009 9.78125 12.71875 C 9.3843248 12.72815 9.3216705 12.71435 8.90625 12.53125 C 8.1421093 12.194404 7.7492349 12.293558 7.5 12.875 C 7.3655103 13.188752 7.3591846 13.214739 7.53125 13.6875 C 7.628598 13.954971 7.7103098 14.106449 7.78125 14.125 C 7.9614201 14.17212 7.9094453 14.668882 7.71875 14.71875 C 7.647825 14.7373 7.59375 14.80626 7.59375 14.90625 C 7.59375 15.075995 7.7974749 15.375 7.90625 15.375 C 8.0580777 15.375 8.2172055 15.733929 8.125 15.875 C 8.075686 15.95045 7.4201735 16.09375 7.15625 16.09375 C 6.9574849 16.09375 6.9529724 16.1658 7.15625 16.25 C 7.2998888 16.3095 7.3267927 16.34232 7.34375 16.59375 C 7.363753 16.890353 7.297127 17.032818 7.125 17.03125 C 7.0027291 17.03015 6.9189734 16.96293 6.875 16.84375 C 6.8270981 16.713919 6.7545744 16.738007 6.71875 16.875 C 6.7009018 16.943252 6.6010454 16.979791 6.5 17 L 6.34375 17.0625 L 6.3125 17.5625 C 6.2924524 17.841285 6.2675424 18.204273 6.25 18.375 L 6.21875 18.6875 L 6.46875 18.75 C 6.6075555 18.78495 6.7692752 18.8125 6.84375 18.8125 C 7.0263456 18.8125 8.4858199 19.168386 8.625 19.25 C 8.685942 19.28574 8.8628809 19.368332 9 19.40625 C 9.3866787 19.51318 9.7804808 19.49911 9.96875 19.375 C 10.057999 19.31617 10.268525 19.208504 10.46875 19.15625 C 10.668974 19.104 10.875065 19.037448 10.90625 19 C 10.93744 18.96255 11.082345 18.92103 11.21875 18.90625 C 11.355155 18.89147 11.58241 18.84696 11.75 18.8125 C 11.91759 18.77804 12.166984 18.73545 12.28125 18.71875 C 12.456147 18.69319 12.46875 18.6761 12.46875 18.5625 C 12.46875 18.46013 12.45935 18.430975 12.34375 18.40625 C 12.03979 18.34123 11.943462 18.272912 11.875 18.0625 C 11.83716 17.946198 11.760121 17.778854 11.71875 17.71875 C 11.67738 17.65865 11.65625 17.566007 11.65625 17.5 C 11.65625 17.40676 11.61905 17.371947 11.46875 17.34375 C 11.320012 17.31585 11.247049 17.269 11.21875 17.15625 C 11.1631 16.934525 11.28787 16.546382 11.46875 16.375 C 11.55663 16.29174 11.669043 16.151902 11.6875 16.09375 C 11.71937 15.993349 12.18264 15.75 12.34375 15.75 C 12.38533 15.75 12.4326 15.72365 12.46875 15.6875 C 12.51945 15.6368 12.50446 15.60523 12.4375 15.53125 C 12.306109 15.386064 12.37826 15.205221 12.5625 15.15625 C 12.845095 15.08114 13.018641 14.84268 13.28125 14.21875 C 13.39649 13.944951 13.420946 13.84092 13.375 13.75 C 13.134745 13.274575 12.6875 11.450686 12.6875 10.90625 C 12.6875 10.778361 12.62503 10.459185 12.5 10.15625 C 12.382204 9.8708506 12.224976 9.4593191 12.15625 9.25 C 12.087525 9.0406803 11.979323 8.798904 11.9375 8.71875 C 11.895677 8.6385954 11.875166 8.5567846 11.875 8.53125 C 11.874834 8.5057154 11.796612 8.2794145 11.6875 8.03125 C 11.523282 7.6577442 11.474593 7.5509356 11.5 7.34375 C 11.516881 7.2060918 11.547509 6.9648546 11.5625 6.8125 L 11.59375 6.53125 L 11.53125 6.8125 C 11.47923 7.0258861 11.43425 7.0808154 11.34375 7.09375 C 11.25064 7.107057 11.169162 7.039415 10.96875 6.71875 C 10.82967 6.4962182 10.668157 6.2375375 10.59375 6.15625 C 10.519343 6.0749625 10.41144 5.9018997 10.375 5.75 C 10.332711 5.573718 10.255808 5.4324569 10.15625 5.34375 C 10.022703 5.2247589 9.998414 5.1583673 10.03125 5 C 10.06538 4.8353756 10.11116 4.8185105 10.28125 4.8125 C 10.386362 4.80879 10.497056 4.81641 10.53125 4.8125 C 10.56544 4.8086 10.60637 4.7102325 10.625 4.59375 C 10.65552 4.4028736 10.70595 4.3455616 11.09375 4.09375 C 11.330403 3.9400824 11.626078 3.7503028 11.75 3.6875 C 11.873922 3.6246978 11.991469 3.5479335 12.03125 3.5 C 12.07103 3.452066 12.132437 3.40625 12.15625 3.40625 C 12.18006 3.40625 12.34257 3.325398 12.53125 3.21875 C 12.789388 3.0728414 12.959108 3.03125 13.15625 3.03125 C 13.334028 3.03125 13.438006 3.003288 13.5 2.9375 C 13.74092 2.681833 13.919452 2.4321004 13.96875 2.28125 C 14.01244 2.1475741 14.05526 2.089074 14.21875 2.0625 C 14.330414 2.04435 14.475427 1.988019 14.53125 1.9375 C 14.60182 1.873632 14.70834 1.84375 14.9375 1.84375 C 15.27464 1.84375 15.473215 1.771736 15.625 1.5625 C 15.6816 1.484477 15.732958 1.473353 15.875 1.5 C 16.052856 1.533366 16.071887 1.539759 16.1875 1.28125 C 16.334744 0.95201392 16.326579 0.64835672 16.125 0.34375 C 16.010331 0.17047355 15.870989 0.09062867 15.75 0.09375 z M 19.71875 3.375 L 19.71875 17.75 L 22.6875 17.75 L 22.6875 12.125 L 25.84375 12.125 C 26.781241 12.125006 27.381501 12.287766 27.6875 12.59375 C 27.99348 12.899744 28.174469 13.408859 28.1875 14.125 L 28.1875 15.21875 C 28.20051 16.143231 28.329417 16.975261 28.53125 17.75 L 31.8125 17.75 L 31.8125 17.375 C 31.526028 17.270834 31.359362 17.037761 31.28125 16.71875 C 31.20962 16.393231 31.18749 15.953127 31.1875 15.40625 L 31.1875 14.84375 C 31.187487 13.652348 31.07681 12.778651 30.875 12.21875 C 30.673165 11.65886 30.15103 11.225267 29.34375 10.90625 C 30.834623 10.274747 31.593737 9.1523524 31.59375 7.53125 C 31.593737 6.2617303 31.17056 5.2422 30.34375 4.5 C 29.516916 3.7513161 28.411448 3.3750144 27.03125 3.375 L 19.71875 3.375 z M 9.34375 5.8125 C 9.390354 5.80254 9.4375 5.873831 9.4375 5.96875 C 9.4375 6.027894 9.406428 6.0625 9.375 6.0625 C 9.300223 6.0625 9.2347109 5.9190514 9.28125 5.84375 C 9.29431 5.822619 9.328215 5.815819 9.34375 5.8125 z M 22.6875 5.90625 L 26.46875 5.90625 C 27.87499 5.9062619 28.56249 6.5364696 28.5625 7.8125 C 28.56249 9.0950607 27.78124 9.750008 26.21875 9.75 L 22.6875 9.75 L 22.6875 5.90625 z M 9.625 6.1875 C 9.642724 6.17759 9.664647 6.1875 9.6875 6.1875 C 9.733206 6.1875 9.78125 6.204294 9.78125 6.25 C 9.78125 6.295706 9.733206 6.34375 9.6875 6.34375 C 9.641794 6.34375 9.59375 6.295706 9.59375 6.25 C 9.59375 6.227147 9.607276 6.197412 9.625 6.1875 z M 7.8125 13.4375 C 7.81702 13.436 7.839477 13.437749 7.84375 13.4375 C 7.873657 13.4357 7.875 13.45778 7.875 13.5 C 7.875 13.54824 7.829495 13.59375 7.78125 13.59375 C 7.683414 13.59375 7.709773 13.471742 7.8125 13.4375 z "
         transform="matrix(18.050001,0,0,18.050001,192.00546,251.49308)"
         id="path3569" />
      <path
         style="fill:#a0a0a0"
         d="m 353.78571,604.17645 c -3.3,-0.98519 -6.9,-2.2847 -8,-2.88779 -2.64038,-1.44763 -22.52516,-6.37022 -29.5,-7.30289 -7.7998,-1.04298 -14.02452,-2.88104 -14.56989,-4.30225 -0.25679,-0.66918 0.10812,-8.15186 0.81092,-16.62816 l 1.2778,-15.41145 2.90535,-0.77701 c 3.76688,-1.00742 4.5419,-2.3658 4.56051,-7.99316 0.0135,-4.0924 0.41481,-4.93603 3.44859,-7.25 2.05539,-1.56773 4.76438,-2.63569 6.75,-2.66106 4.58001,-0.0585 14.12684,-2.37745 14.48761,-3.51907 0.47112,-1.49084 -0.93492,-3.01935 -4.17089,-4.53419 -1.74058,-0.81481 -3.80134,-3.04583 -4.90882,-5.31442 -1.66066,-3.4017 -1.74063,-4.31179 -0.61511,-7 2.45604,-5.86608 2.38438,-10.13197 -0.26513,-15.78293 -3.69486,-7.88048 -4.24397,-12.88329 -2.07586,-18.9126 3.63701,-10.1142 15.29304,-16.79244 21.83156,-12.50824 1.35464,0.8876 2.95669,1.61382 3.5601,1.61382 0.60341,0 3.65674,1.2244 6.78518,2.72088 4.654,2.22624 6.86977,2.679 12.18808,2.49046 10.81978,-0.38358 14.23329,-2.83734 12.02547,-8.64436 -0.56401,-1.48345 -1.02547,-4.44671 -1.02547,-6.58503 0,-2.13831 -0.40799,-4.92152 -0.90665,-6.1849 -0.49866,-1.26338 -1.84866,-4.63047 -3,-7.48243 -1.44772,-3.58611 -2.10089,-7.44135 -2.1178,-12.5 -0.0319,-9.55097 -1.25852,-14.65364 -5.76796,-23.99468 -3.89007,-8.05805 -4.98698,-9.04389 -12.06882,-10.8467 -2.39867,-0.61063 -5.37527,-2.20441 -6.61467,-3.54173 -2.3046,-2.48671 -5.91696,-3.2229 -7.0241,-1.43151 -0.33992,0.55 -2.32173,1 -4.40403,1 -3.90718,0 -6.26644,-1.72389 -7.52713,-5.5 -0.36724,-1.1 -2.78297,-3.35 -5.36828,-5 -3.50113,-2.2345 -5.02818,-4.00341 -5.98449,-6.93235 -1.59338,-4.88015 -0.64688,-12.13684 1.9175,-14.70122 2.37893,-2.37893 2.34494,-3.3002 -0.25134,-6.81185 -2.35318,-3.18285 -1.90344,-4.71582 1.79619,-6.12242 2.93405,-1.11552 2.60496,-3.29425 -0.5679,-3.75972 -1.22805,-0.18016 -2.5069,-1.08016 -2.84189,-2 -0.33498,-0.91984 -1.42256,-2.73303 -2.41683,-4.02931 -1.99693,-2.60349 -1.03142,-6.14313 1.67567,-6.14313 0.80141,0 2.65161,-1.34064 4.11157,-2.97919 1.45996,-1.63856 3.49598,-3.24628 4.52449,-3.57271 1.0285,-0.32644 2.77161,-2.3608 3.87356,-4.52081 1.70285,-3.33786 2.48829,-3.92955 5.23323,-3.94235 3.61803,-0.0169 9.7612,-1.93628 11.91313,-3.72222 2.73027,-2.26593 9.54835,-2.66847 12.49507,-0.73771 2.63836,1.72872 2.74762,1.71883 4.13767,-0.3747 0.91822,-1.38291 2.46908,-2.15031 4.34562,-2.15031 4.06372,0 10.2243,-3.35724 11.5666,-6.30328 0.80537,-1.76758 2.71751,-2.96537 6.76748,-4.23924 3.97404,-1.24999 6.37727,-2.7357 8.11905,-5.01929 1.36076,-1.78405 3.53367,-3.50966 4.82869,-3.83469 3.95829,-0.99346 13.5219,-6.91954 14.09845,-8.73607 0.29882,-0.94152 2.33983,-3.3349 4.53557,-5.31862 3.0783,-2.78105 4.73695,-3.5566 7.2452,-3.38768 4.45052,0.29973 5.30787,-0.45033 6.08747,-5.32565 1.55297,-9.71178 6.21849,-14.14379 16.33648,-15.51882 2.61426,-0.35528 6.1032,-1.3976 7.7532,-2.31626 4.18657,-2.33094 7.8475,-3.14636 16.39831,-3.6525 7.01361,-0.41514 7.55122,-0.29258 10.33927,2.35709 1.61754,1.53726 3.5758,4.01016 4.3517,5.49535 2.02806,3.88203 1.7594,12.14399 -0.5605,17.23649 -1.92864,4.23362 -3.55541,5.56317 -6.80682,5.56317 -0.88795,0 -3.38249,1.22525 -5.54342,2.72277 -2.95722,2.04935 -5.63171,2.87885 -10.81347,3.35381 -4.23125,0.38784 -7.58555,1.26547 -8.70353,2.27723 -1.00046,0.9054 -3.01251,1.64619 -4.47123,1.64619 -1.96261,0 -2.8082,0.62153 -3.25216,2.39042 -0.32998,1.31473 -1.91355,3.64892 -3.51906,5.18709 -1.6055,1.53817 -2.91909,3.35078 -2.91909,4.02802 0,2.11262 -6.50379,5.39447 -10.69045,5.39447 -4.04302,0 -10.95425,3.1503 -20.80955,9.48549 -2.75,1.76776 -8.7125,5.58843 -13.25,8.49038 -4.5375,2.90196 -8.25,5.80792 -8.25,6.4577 0,0.64979 1.97064,2.57046 4.3792,4.26817 4.9094,3.46047 9.89083,10.14532 12.32328,16.53728 2.07612,5.4556 2.2649,23.52959 0.30563,29.26098 -1.65052,4.82822 -1.52248,7.78533 0.46865,10.82419 0.82266,1.25554 2.39955,4.90974 3.5042,8.12046 1.10464,3.21071 2.41618,6.33664 2.91452,6.9465 0.49835,0.60987 2.1326,5.14352 3.63168,10.07478 1.49908,4.93126 3.09122,9.65626 3.5381,10.5 3.38617,6.39333 5.93474,13.93713 5.93474,17.56694 0,2.36016 0.67492,7.81828 1.49983,12.12916 0.8249,4.31088 1.4999,8.98032 1.5,10.37653 9e-5,1.39621 0.97086,4.32121 2.15726,6.5 7.07532,12.99366 8.84291,17.02424 8.84291,20.16422 0,3.17946 -3.8176,13.51315 -7.68317,20.79722 -2.34534,4.41944 -8.45071,10.5 -10.54283,10.5 -1.7019,0 -1.71581,0.15918 -0.21412,2.45104 2.14559,3.27458 1.08837,6.07053 -2.84313,7.519 -8.51453,3.13697 -11.71675,5.04771 -11.71675,6.99128 0,1.19002 -1.18559,2.60041 -2.95515,3.51549 -2.08021,1.07571 -3.14215,2.52492 -3.58672,4.89469 -0.95241,5.07676 -0.23439,8.05726 2.04187,8.47589 3.11765,0.57338 4.5,2.1562 4.5,5.15261 0,1.51531 0.675,3.31531 1.5,4 0.825,0.68469 1.5,2.11937 1.5,3.18819 0,3.64587 1.88784,5.61706 6.05358,6.32086 4.60362,0.77778 6.62762,3.64069 5.56554,7.87236 -0.68363,2.7238 -5.26222,4.60234 -11.24339,4.61301 -1.71835,0.003 -5.03743,0.68058 -7.37573,1.50558 -2.3383,0.825 -5.45488,1.5 -6.92573,1.5 -1.47085,0 -3.10177,0.40449 -3.62427,0.89887 -0.5225,0.49437 -4.26888,1.82566 -8.3253,2.9584 -4.05641,1.13275 -8.23577,2.83826 -9.28747,3.79003 -2.73862,2.47842 -11.95439,2.7282 -19.33723,0.5241 z m -32.6925,-52.4214 c -0.25563,-3.53302 -0.68708,-4.30391 -2.5575,-4.56955 -2.76953,-0.39334 -3.07215,2.63516 -0.63499,6.35473 2.38974,3.64721 3.53904,3.00455 3.19249,-1.78518 z m 22.1925,-160.75 c 0,-0.55 -0.3375,-1.00614 -0.75,-1.01365 -0.4125,-0.008 -1.7625,-0.285 -3,-0.61664 -1.2809,-0.34326 -2.25,-0.15361 -2.25,0.44033 0,0.97994 1.89986,1.80946 4.75,2.07396 0.6875,0.0638 1.25,-0.334 1.25,-0.884 z m 53.73192,-26.08079 c -0.91832,-13.39794 -7.69338,-22.91921 -16.30865,-22.91921 -5.11611,0 -5.71015,1.44241 -2.02128,4.90793 1.3211,1.2411 2.92036,4.31517 3.55392,6.83125 0.63356,2.51609 2.05406,5.74158 3.15667,7.16776 1.10261,1.42618 3.8245,5.49215 6.04865,9.03548 3.53933,5.63859 4.17243,6.21275 5.07405,4.60163 0.60128,-1.07442 0.80804,-5.0815 0.49664,-9.62484 z"
         id="path3575"
         inkscape:connector-curvature="0" />
      <path
         style="fill:#5d5d5d"
         d="m 354.28571,603.18954 c -3.025,-0.92647 -6.0028,-2.01165 -6.61733,-2.41151 -1.7717,-1.15281 -27.32224,-7.44549 -33.30051,-8.20137 -2.97981,-0.37676 -6.97512,-1.3357 -8.87848,-2.13097 -3.40591,-1.42309 -3.45119,-1.52102 -2.86322,-6.1933 0.32857,-2.61103 0.90027,-9.3533 1.27043,-14.9828 l 0.67302,-10.23546 3.60804,-1.76454 c 3.4131,-1.6692 3.6256,-2.06172 3.9329,-7.26454 0.29761,-5.03892 0.6178,-5.68862 3.81934,-7.75 1.92197,-1.2375 4.77896,-2.25 6.34886,-2.25 3.56182,0 13.20635,-2.0748 14.38373,-3.09433 1.73423,-1.50172 -0.31778,-5.68945 -3.2967,-6.72791 -4.27345,-1.48973 -6.44903,-5.31375 -5.64402,-9.9205 1.66182,-9.50982 1.67173,-11.90559 0.0673,-16.2582 -4.65732,-12.6344 -4.81536,-13.68985 -2.86287,-19.11955 1.15047,-3.19934 3.36764,-6.47578 6.0642,-8.96138 3.60164,-3.31987 4.92254,-3.91813 8.65089,-3.91813 4.60354,0 9.41733,1.57783 16.14447,5.2917 5.34711,2.952 19.47497,2.87278 23.46719,-0.13159 2.35434,-1.77178 2.50776,-2.39066 2.17735,-8.7831 -0.2036,-3.93909 -1.42083,-9.86747 -2.84925,-13.87701 -1.53064,-4.29645 -3.00556,-11.75572 -3.81884,-19.31344 -1.35708,-12.61123 -2.49788,-17.36944 -4.82425,-20.12163 -0.72755,-0.86071 -1.91975,-3.13993 -2.64934,-5.06493 -1.91908,-5.0634 -4.66789,-7.71458 -8.80299,-8.49033 -4.89416,-0.91815 -9.19987,-3.24716 -9.19987,-4.97633 0,-2.38431 -1.5836,-2.59365 -6.82208,-0.90181 -6.31773,2.0404 -9.55481,1.28699 -11.16419,-2.59839 -0.6817,-1.64576 -3.20974,-4.23879 -5.61787,-5.76229 -7.61307,-4.81639 -9.30726,-14.6574 -3.67558,-21.35026 l 2.43498,-2.89381 -2.07763,-2.91776 c -2.69994,-3.79171 -2.61969,-4.95243 0.42237,-6.10902 1.375,-0.52277 2.5,-1.44122 2.5,-2.04099 0,-2.01569 -2.05782,-4.95901 -3.46709,-4.95901 -1.49434,0 -5.53291,-5.06253 -5.53291,-6.93576 0,-0.61985 0.7875,-1.41293 1.75,-1.76238 0.9625,-0.34945 3.4388,-2.13533 5.50288,-3.96861 2.06408,-1.83329 4.19244,-3.33325 4.72968,-3.33325 0.53723,0 1.89508,-1.8 3.01744,-4 1.5947,-3.12588 2.61181,-4 4.6543,-4 3.41617,0 10.44224,-2.02075 12.3457,-3.55072 2.52796,-2.03193 8.23446,-2.30386 11.87991,-0.56612 3.26535,1.55656 3.43049,1.535 4.87197,-0.636 0.98142,-1.47808 2.49404,-2.24716 4.41975,-2.24716 3.9462,0 7.6869,-2.08525 11.49304,-6.40679 1.74056,-1.97627 3.89599,-3.59321 4.78983,-3.59321 2.78371,0 9.16055,-3.76355 10.9158,-6.44239 0.92169,-1.40669 2.45293,-2.57513 3.40275,-2.59654 3.2216,-0.0726 12.711,-6.5786 16.0885,-11.03034 3.87853,-5.11214 7.81421,-7.65497 9.39749,-6.07169 0.71796,0.71796 1.8902,0.59802 3.79816,-0.38862 2.11661,-1.09454 2.9236,-2.42248 3.46312,-5.69875 1.23491,-7.49902 3.01327,-10.49308 7.63206,-12.84941 2.36702,-1.20756 6.1395,-2.27293 8.38328,-2.36747 2.24379,-0.0946 5.1663,-0.93306 6.49448,-1.86335 1.32818,-0.93029 3.10224,-1.71119 3.94237,-1.73533 0.84012,-0.0241 3.32143,-0.68271 5.51401,-1.46348 2.22862,-0.7936 4.3662,-1.03991 4.84753,-0.55858 0.48132,0.48132 2.07377,0.16495 3.61129,-0.71746 2.55225,-1.4648 2.99527,-1.43825 6.15248,0.36874 3.58482,2.05173 8.92972,10.99636 8.87008,14.84399 -0.0176,1.13887 -1.25515,4.54568 -2.75,7.57068 -2.36422,4.78428 -3.17336,5.57497 -6.2179,6.07611 -1.925,0.31685 -5.2503,1.77935 -7.38955,3.25 -3.04974,2.09656 -5.0676,2.67389 -9.3457,2.67389 -3.00089,0 -6.6506,0.67192 -8.11046,1.49315 -1.45986,0.82123 -3.89986,1.93816 -5.42222,2.48207 -1.52237,0.5439 -3.16299,2.02798 -3.64583,3.29794 -0.48284,1.26997 -1.62944,2.93277 -2.548,3.69511 -0.91856,0.76233 -2.32306,2.64872 -3.1211,4.19197 -1.83677,3.55191 -6.21659,5.83976 -11.17956,5.83976 -2.69559,0 -6.13526,1.28341 -11.39049,4.25 -17.2782,9.75361 -31.84709,19.42337 -31.84709,21.13777 0,0.78354 2.20623,3.00964 4.90274,4.94689 5.75431,4.13406 10.80017,11.0586 12.78424,17.54407 1.96528,6.42406 1.85405,20.993 -0.21039,27.55639 l -1.66627,5.29749 2.94495,6.8837 c 1.61972,3.78603 3.53781,8.45869 4.26243,10.38369 0.72462,1.925 1.64574,3.95 2.04692,4.5 0.40119,0.55 1.87153,4.6 3.26744,9 1.3959,4.4 4.14224,11.92931 6.10297,16.73179 2.33355,5.71564 3.57341,10.37885 3.58942,13.5 0.0134,2.62252 0.46453,6.67546 1.00241,9.00653 0.53788,2.33108 1.39479,7.18164 1.90425,10.77903 0.69553,4.91139 1.93194,8.13306 4.96337,12.933 6.59631,10.44452 7.33519,17.40367 2.6596,25.04965 -0.67266,1.1 -1.70219,3.39966 -2.28785,5.11035 -2.15066,6.28204 -6.30931,11.56746 -10.35044,13.15486 -4.2138,1.65523 -4.65367,2.67612 -2.42273,5.62293 1.97619,2.61033 0.36287,5.26813 -3.73474,6.15262 -4.72729,1.0204 -10.75832,4.2865 -10.75832,5.82616 0,0.72945 -1.54454,2.91664 -3.43231,4.86042 -5.45994,5.62191 -5.98898,13.68024 -0.96051,14.63027 2.87632,0.54342 4.39282,2.14608 4.39282,4.64239 0,1.24031 0.675,2.81531 1.5,3.5 0.825,0.68469 1.5,2.47004 1.5,3.96746 0,3.31728 2.54882,5.7923 6.85113,6.65277 3.98175,0.79635 5.7813,3.69632 4.30473,6.93705 -0.81647,1.79194 -2.11782,2.43089 -5.85288,2.87371 -2.64164,0.31319 -7.72798,1.24811 -11.30298,2.07762 -3.575,0.8295 -7.30333,1.50441 -8.28518,1.49979 -0.98185,-0.005 -2.78185,0.61595 -4,1.37905 -1.21815,0.7631 -4.68982,1.95909 -7.71482,2.65776 -3.025,0.69867 -6.72356,2.17364 -8.21903,3.27771 -3.59472,2.6539 -11.71287,3.02632 -18.78097,0.86157 z m -31.76024,-49.93449 c 0.58705,-4.80065 0.21166,-5.72329 -2.9067,-7.14411 -1.93051,-0.8796 -2.89696,-0.88279 -3.94498,-0.013 -1.92314,1.59606 -1.73842,3.60417 0.69348,7.53908 2.86934,4.64268 5.5642,4.47553 6.1582,-0.38197 z m 22.26024,-162.09297 c 0,-1.42256 -7.29747,-4.40023 -8.68388,-3.54339 -1.20261,0.74326 -0.99286,2.80963 0.4296,4.23208 1.63803,1.63803 8.25428,1.08601 8.25428,-0.68869 z m 52.9821,-16.07553 c 1.48119,-6.7438 0.42644,-17.33629 -2.24856,-22.5815 -4.41078,-8.64879 -8.97353,-12.14437 -15.73354,-12.05367 -3.42258,0.0459 -4.04817,0.39405 -4.33369,2.41159 -0.20952,1.48048 0.59551,3.34112 2.1633,5 1.37335,1.45315 3.02787,4.66708 3.67672,7.14208 0.64885,2.475 1.77873,5.175 2.51085,6 0.73212,0.825 3.60617,4.9875 6.38678,9.25 2.78062,4.2625 5.47899,7.75 5.9964,7.75 0.5174,0 1.22918,-1.31333 1.58174,-2.9185 z"
         id="path3573"
         inkscape:connector-curvature="0" />
      <path
         style="fill:#2e2e2e"
         d="m 354.84568,602.47077 c -2.71701,-0.7455 -6.31701,-1.99553 -8,-2.77785 -3.2454,-1.5086 -23.00544,-6.6918 -28.05997,-7.36034 -6.74351,-0.89192 -14.58848,-2.66168 -15.04046,-3.393 -0.26505,-0.42886 0.0489,-7.30982 0.69775,-15.29102 1.13623,-13.97708 1.26663,-14.53309 3.5422,-15.10422 1.2994,-0.32613 3.19542,-1.96252 4.21338,-3.63642 l 1.85084,-3.04345 2.22572,3.12574 c 1.52165,2.13696 2.90345,3.02912 4.36815,2.82029 1.82895,-0.26076 2.18638,-1.06602 2.44288,-5.50367 0.28501,-4.93087 0.1403,-5.28106 -2.81378,-6.80867 -4.23664,-2.19085 -3.3046,-3.86273 2.59247,-4.65033 14.46803,-1.93232 15.99887,-2.69159 14.82849,-7.35473 -0.44305,-1.76528 -1.79441,-3.16953 -3.89461,-4.04705 -1.86909,-0.78096 -3.87214,-2.69828 -4.78236,-4.57767 -1.42017,-2.93233 -1.42065,-3.61289 -0.005,-7.2986 0.85858,-2.2356 2.17158,-4.56434 2.91777,-5.17497 1.75825,-1.4388 1.74401,-3.38976 -0.0247,-3.38976 -0.75981,0 -2.1363,-2.1375 -3.05887,-4.75 -5.12475,-14.51203 -5.0019,-13.87113 -3.53709,-18.45258 0.76358,-2.38825 3.22661,-6.18552 5.54413,-8.54742 6.01947,-6.13476 10.66567,-5.96299 25.21885,0.93233 4.49713,2.13075 6.11654,2.34222 15.44866,2.01731 4.74163,-0.16508 6.29037,-0.69655 8.94704,-3.07029 3.1147,-2.78298 3.17626,-2.99267 2.01578,-6.86602 -0.65837,-2.19745 -1.19704,-5.55864 -1.19704,-7.46931 0,-1.91066 -1.29237,-7.25845 -2.87193,-11.88398 -1.90624,-5.58214 -2.93463,-10.73735 -3.05838,-15.33137 -0.2631,-9.76703 -1.71936,-16.44939 -4.47783,-20.54743 -1.30732,-1.94218 -2.8893,-5.15542 -3.51551,-7.14052 -1.18112,-3.74416 -3.45862,-5.33592 -11.57635,-8.09082 -2.31367,-0.78519 -4.41781,-2.29774 -4.99106,-3.58781 -0.54508,-1.22668 -1.78258,-2.48155 -2.75,-2.7886 -0.96742,-0.30705 -1.75894,-1.20064 -1.75894,-1.98575 0,-0.78512 -2.08625,-2.40815 -4.63611,-3.60672 -4.34959,-2.04455 -4.71386,-2.0729 -5.89422,-0.45865 -1.90647,2.60724 -0.68792,5.33398 2.68518,6.0086 3.68449,0.7369 2.8016,2.61903 -1.22857,2.61903 -2.24299,0 -3.41737,-0.7592 -4.87046,-3.1486 -1.05313,-1.73173 -4.06889,-4.77669 -6.7017,-6.76657 -3.49055,-2.63816 -5.01834,-4.59648 -5.64144,-7.23119 -1.10284,-4.66331 0.53111,-10.79459 3.66006,-13.73408 l 2.39521,-2.25019 -2.92675,-3.18468 c -2.58437,-2.81214 -2.73614,-3.30167 -1.29735,-4.18469 4.82597,-2.96182 4.93825,-3.14648 3.64249,-5.99037 -0.67898,-1.49021 -2.06687,-2.92713 -3.08419,-3.19317 -1.01732,-0.26603 -2.82343,-1.80077 -4.01357,-3.41051 l -2.16389,-2.92682 2.28766,-0.8748 c 1.25821,-0.48114 3.18659,-1.87252 4.28529,-3.09195 1.0987,-1.21942 3.17552,-2.82624 4.61515,-3.57071 1.43964,-0.74446 3.35182,-2.90099 4.2493,-4.79229 1.33171,-2.80638 2.32194,-3.53523 5.38485,-3.96352 6.14512,-0.85927 9.66252,-1.86945 11.25306,-3.23182 2.64958,-2.26948 8.62053,-2.83324 11.16104,-1.0538 3.09599,2.16852 5.57331,2.0121 6.33896,-0.40024 0.40859,-1.28734 1.51303,-2 3.09951,-2 3.97536,0 8.66921,-2.479 12.06516,-6.37207 1.74056,-1.99536 3.89599,-3.62793 4.78983,-3.62793 2.78371,0 9.16055,-3.76355 10.9158,-6.44239 0.92169,-1.40669 2.37442,-2.55761 3.22828,-2.55761 2.80886,0 14.86666,-7.75932 16.56438,-10.65935 0.91462,-1.56236 2.86339,-3.96565 4.33059,-5.34065 2.3901,-2.23991 2.78979,-2.33294 3.84181,-0.89425 1.06135,1.45147 1.51992,1.38692 4.77275,-0.67175 3.03466,-1.92059 3.6973,-2.99765 4.22847,-6.87298 0.34644,-2.52752 1.29044,-5.87286 2.09778,-7.43408 1.93452,-3.74095 10.51606,-7.54642 15.08476,-6.68933 2.3555,0.44189 3.40406,0.20496 3.81336,-0.86165 0.31049,-0.80913 2.5002,-1.96009 4.86602,-2.55769 2.36583,-0.59761 5.36437,-1.53449 6.66342,-2.08197 1.65686,-0.69827 2.78189,-0.64688 3.76876,0.17216 1.09805,0.9113 1.84834,0.76801 3.41836,-0.65284 2.80891,-2.54203 6.60386,-1.02557 10.18514,4.06997 4.15783,5.91588 4.51832,10.15098 1.43693,16.88163 -2.34611,5.12458 -2.83717,5.59618 -5.86579,5.63342 -2.17461,0.0267 -4.48971,1.05301 -6.76755,3 -3.00391,2.56761 -4.26147,2.96023 -9.5,2.96595 -4.3428,0.005 -6.87995,0.56434 -9.03777,1.99341 -1.65,1.09275 -4.02215,1.98979 -5.27144,1.99341 -1.5196,0.004 -2.6649,0.91683 -3.46015,2.75659 -1.24271,2.8749 -5.16449,8.16511 -8.89592,12 -1.72526,1.77309 -3.309,2.25 -7.47188,2.25 -2.90542,0 -5.54322,0.42173 -5.86178,0.93718 -0.31857,0.51544 -3.38262,2.33408 -6.80902,4.04141 -3.4264,1.70734 -7.71597,4.09811 -9.53239,5.31283 -1.81642,1.21472 -7.2603,4.74274 -12.09752,7.84003 -8.72853,5.58893 -10.79649,7.86891 -9.35149,10.31028 0.41337,0.69842 3.22539,3.27337 6.24892,5.72211 8.33386,6.74954 11.33219,13.35166 11.84336,26.07826 0.30166,7.51057 -0.0257,11.4147 -1.31374,15.66888 l -1.7155,5.66593 4.71424,10.96155 c 2.59283,6.02884 6.18755,15.23654 7.98827,20.46154 1.80071,5.225 4.67019,12.875 6.37661,17 1.86114,4.49903 3.11373,9.30058 3.13045,12 0.0153,2.475 0.46796,6.40725 1.00584,8.73832 0.53788,2.33108 1.4016,7.22972 1.91938,10.88587 0.67085,4.73711 2.4258,9.59032 6.10651,16.88719 6.18393,12.25941 6.15051,13.3257 -0.85984,27.43127 -4.25883,8.56923 -5.13227,9.66857 -9.44291,11.88508 -5.08486,2.61462 -5.55708,3.57499 -3.32488,6.7619 1.8788,2.68236 0.92266,3.97211 -3.92512,5.29463 -5.11568,1.39561 -10.5,4.69581 -10.5,6.43574 0,0.74217 -1.32678,2.53157 -2.94839,3.97643 -3.17231,2.82654 -5.4585,8.77637 -4.89816,12.74752 0.25238,1.78867 1.29348,2.76211 3.83139,3.58239 2.80306,0.90597 3.61876,1.78111 4.16933,4.47311 0.37647,1.84072 1.17079,3.50887 1.76516,3.70699 0.59437,0.19813 1.08067,1.20155 1.08067,2.22984 0,4.23554 2.24947,6.91793 6.90383,8.2325 4.13694,1.16844 4.59617,1.59455 4.59617,4.26468 0,2.78478 -0.30636,3.01636 -5,3.77957 -2.75,0.44716 -7.58071,1.45966 -10.7349,2.25 -3.1542,0.79033 -6.94376,1.43697 -8.42126,1.43697 -1.4775,0 -3.39679,0.59133 -4.2651,1.31406 -0.86831,0.72274 -4.05374,1.90778 -7.07874,2.63343 -3.025,0.72565 -7.33954,2.38432 -9.58786,3.68594 -4.66402,2.70013 -10.11798,2.9544 -17.85217,0.83229 z m 43.75414,-227.53374 c 1.58191,-5.99238 0.21151,-17.9824 -2.68646,-23.50463 -5.1089,-9.73527 -8.33556,-12.13805 -16.12765,-12.00971 -4.73729,0.078 -5.01721,0.23286 -5.32746,2.94679 -0.22744,1.98945 0.43336,3.66949 2.1633,5.5 1.36992,1.44956 3.01879,4.66057 3.66416,7.13557 0.64537,2.475 2.2044,5.625 3.46451,7 1.26011,1.375 2.85767,3.625 3.55012,5 2.38175,4.72942 8.22206,12.08777 9.307,11.72612 0.59757,-0.19919 1.49418,-1.90655 1.99248,-3.79414 z"
         id="path3571"
         inkscape:connector-curvature="0" />
    </g>
  </g>
</svg>
