<?xml version="1.0" encoding="UTF-8" standalone="no"?>
<!-- Created with Inkscape (http://www.inkscape.org/) -->

<svg
   xmlns:dc="http://purl.org/dc/elements/1.1/"
   xmlns:cc="http://creativecommons.org/ns#"
   xmlns:rdf="http://www.w3.org/1999/02/22-rdf-syntax-ns#"
   xmlns:svg="http://www.w3.org/2000/svg"
   xmlns="http://www.w3.org/2000/svg"
   xmlns:sodipodi="http://sodipodi.sourceforge.net/DTD/sodipodi-0.dtd"
   xmlns:inkscape="http://www.inkscape.org/namespaces/inkscape"
   width="744.09448819"
   height="1052.3622047"
   id="svg3284"
   version="1.1"
   inkscape:version="0.48.2 r9819"
   sodipodi:docname="rotations.svg">
  <defs
     id="defs3286" />
  <sodipodi:namedview
     id="base"
     pagecolor="#ffffff"
     bordercolor="#666666"
     borderopacity="1.0"
     inkscape:pageopacity="0.0"
     inkscape:pageshadow="2"
     inkscape:zoom="1.979899"
     inkscape:cx="254.28677"
     inkscape:cy="977.73758"
     inkscape:document-units="px"
     inkscape:current-layer="layer1"
     showgrid="false"
     inkscape:window-width="1920"
     inkscape:window-height="1028"
     inkscape:window-x="-8"
     inkscape:window-y="-8"
     inkscape:window-maximized="1" />
  <metadata
     id="metadata3289">
    <rdf:RDF>
      <cc:Work
         rdf:about="">
        <dc:format>image/svg+xml</dc:format>
        <dc:type
           rdf:resource="http://purl.org/dc/dcmitype/StillImage" />
        <dc:title></dc:title>
      </cc:Work>
    </rdf:RDF>
  </metadata>
  <g
     inkscape:label="Layer 1"
     inkscape:groupmode="layer"
     id="layer1">
    <path
       inkscape:connector-curvature="0"
       id="path3176-1"
       style="fill:#000000;fill-opacity:1;stroke:#ff0000;stroke-width:0;stroke-miterlimit:4;stroke-opacity:1"
       d="m 17.172569,14.341556 c 0,0.54645 -0.44298,0.98943 -0.989424,0.98943 -0.546445,0 -0.989427,-0.44298 -0.989427,-0.98943 0,-0.54644 0.442982,-0.98942 0.989427,-0.98942 0.546444,0 0.989424,0.44298 0.989424,0.98942 z M 3.3206118,2.7510857 l 15.8308082,0 0,10.5538803 -15.8308082,0 z M 7.9379321,14.341506 c 0,0.54644 -0.4429816,0.98942 -0.9894255,0.98942 -0.5464452,0 -0.9894255,-0.44298 -0.9894255,-0.98942 0,-0.54645 0.4429803,-0.98943 0.9894255,-0.98943 0.5464439,0 0.9894255,0.44298 0.9894255,0.98943 z M 12.55525,4.4472457 c 0,0.54644 -0.442981,0.98943 -0.989426,0.98943 -0.546444,0 -0.989425,-0.44299 -0.989425,-0.98943 0,-0.54644 0.442981,-0.98942 0.989425,-0.98942 0.546445,0 0.989426,0.44298 0.989426,0.98942 z m -4.6173192,0 c 0,0.54644 -0.4429803,0.98943 -0.9894255,0.98943 -0.5464439,0 -0.9894255,-0.44299 -0.9894255,-0.98943 0,-0.54644 0.4429816,-0.98942 0.9894255,-0.98942 0.5464452,0 0.9894255,0.44298 0.9894255,0.98942 z m -4.617319,0 c 0,0.54644 -0.4429804,0.98943 -0.9894254,0.98943 -0.5464452,0 -0.9894256,-0.44299 -0.9894256,-0.98943 0,-0.54644 0.4429804,-0.98942 0.9894256,-0.98942 0.546445,0 0.9894254,0.44298 0.9894254,0.98942 z" />
    <path
       inkscape:connector-curvature="0"
       id="path3248-2"
       style="fill:#000000;fill-opacity:1;stroke:#ff0000;stroke-width:0;stroke-miterlimit:4;stroke-opacity:1"
       d="m 20.24659,8.1691657 c 0,0.54644 -0.44298,0.98942 -0.989425,0.98942 -0.546444,0 -0.989426,-0.44298 -0.989426,-0.98942 0,-0.54645 0.442982,-0.98943 0.989426,-0.98943 0.546445,0 0.989425,0.44298 0.989425,0.98943 z M 0.24659028,10.882916 11.440663,-0.31115432 18.903376,7.1515657 7.7093058,18.345636 z m 6.14810152,6.52089 c 0,0.54644 -0.4429803,0.98942 -0.9894255,0.98942 -0.5464439,0 -0.9894255,-0.44298 -0.9894255,-0.98942 0,-0.54645 0.4429816,-0.98943 0.9894255,-0.98943 0.5464452,0 0.9894255,0.44298 0.9894255,0.98943 z m 4.6173202,0 c 0,0.54644 -0.442982,0.98942 -0.989425,0.98942 -0.5464456,0 -0.9894259,-0.44298 -0.9894259,-0.98942 0,-0.54645 0.4429803,-0.98943 0.9894259,-0.98943 0.546443,0 0.989425,0.44298 0.989425,0.98943 z M 6.3946918,8.1691457 c 0,0.54644 -0.4429803,0.98942 -0.9894255,0.98942 -0.5464452,0 -0.9894255,-0.44298 -0.9894255,-0.98942 0,-0.54645 0.4429803,-0.98943 0.9894255,-0.98943 0.5464452,0 0.9894255,0.44298 0.9894255,0.98943 z m 4.6173192,0 c 0,0.54644 -0.442981,0.98942 -0.989426,0.98942 -0.5464436,0 -0.9894252,-0.44298 -0.9894252,-0.98942 0,-0.54645 0.4429816,-0.98943 0.9894252,-0.98943 0.546445,0 0.989426,0.44298 0.989426,0.98943 z m 4.617318,0 c 0,0.54644 -0.44298,0.98942 -0.989425,0.98942 -0.546444,0 -0.989426,-0.44298 -0.989426,-0.98942 0,-0.54645 0.442982,-0.98943 0.989426,-0.98943 0.546445,0 0.989425,0.44298 0.989425,0.98943 z" />
  </g>
</svg>
