<?xml version="1.0" encoding="UTF-8" standalone="no"?>
<svg
   xmlns:dc="http://purl.org/dc/elements/1.1/"
   xmlns:cc="http://creativecommons.org/ns#"
   xmlns:rdf="http://www.w3.org/1999/02/22-rdf-syntax-ns#"
   xmlns:svg="http://www.w3.org/2000/svg"
   xmlns="http://www.w3.org/2000/svg"
   xmlns:sodipodi="http://sodipodi.sourceforge.net/DTD/sodipodi-0.dtd"
   xmlns:inkscape="http://www.inkscape.org/namespaces/inkscape"
   version="1.1"
   id="Layer_1"
   x="0px"
   y="0px"
   width="32.799999"
   height="50"
   viewBox="0 0 32.799999 50"
   enable-background="new 0 0 32 32"
   xml:space="preserve"
   inkscape:version="0.48.2 r9819"
   sodipodi:docname="timeTillFinished.svg"><metadata
   id="metadata8"><rdf:RDF><cc:Work
       rdf:about=""><dc:format>image/svg+xml</dc:format><dc:type
         rdf:resource="http://purl.org/dc/dcmitype/StillImage" /><dc:title></dc:title></cc:Work></rdf:RDF></metadata><defs
   id="defs6" /><sodipodi:namedview
   pagecolor="#ffffff"
   bordercolor="#666666"
   borderopacity="1"
   objecttolerance="10"
   gridtolerance="10"
   guidetolerance="10"
   inkscape:pageopacity="0"
   inkscape:pageshadow="2"
   inkscape:window-width="1920"
   inkscape:window-height="1028"
   id="namedview4"
   showgrid="false"
   inkscape:zoom="7.375"
   inkscape:cx="-6.1827086"
   inkscape:cy="16.000002"
   inkscape:window-x="-8"
   inkscape:window-y="-8"
   inkscape:window-maximized="1"
   inkscape:current-layer="Layer_1"
   fit-margin-top="0"
   fit-margin-left="0"
   fit-margin-right="0"
   fit-margin-bottom="0" />
<path
   style="fill:#b93eb9;fill-opacity:1"
   d="M 17.84375 7.75 C 16.971326 7.75 16.375 8.4400755 16.375 9.3125 C 16.375 10.173432 16.749104 10.855958 18.0625 10.875 C 24.301127 10.96037 29.75 16.208963 29.75 22.75 C 29.75 29.343242 24.343244 34.84375 17.75 34.84375 C 11.457851 34.84375 6.2409396 30.019877 5.78125 23.78125 L 8.5 23.78125 L 4.21875 16.75 L 0 23.78125 L 2.59375 23.78125 C 3.0590206 31.661621 9.589322 38 17.625 38 C 25.961119 38 32.78125 31.179541 32.78125 22.84375 C 32.78125 14.605804 26.170248 7.907279 17.96875 7.75 C 17.93526 7.748 17.878233 7.75 17.84375 7.75 z M 17.75 13.625 C 17.007276 13.625 16.375 14.351352 16.375 15.09375 L 16.375 23 L 12.46875 26.84375 C 11.894142 27.418033 11.924348 28.36289 12.46875 28.9375 C 13.013152 29.511785 13.988216 29.511785 14.5625 28.9375 L 18.9375 24.625 C 18.97099 24.59119 18.97012 24.56737 19 24.53125 C 19.237395 24.288929 19.3125 23.95953 19.3125 23.59375 L 19.3125 15.09375 C 19.3125 14.351352 18.711149 13.625 17.96875 13.625 L 17.75 13.625 z M 23.75 16.125 C 23.318391 16.21292 23.03125 16.635498 23.03125 17.09375 C 23.03125 17.617469 23.413781 18.0625 23.9375 18.0625 C 24.461218 18.0625 24.90625 17.617469 24.90625 17.09375 C 24.90625 16.570034 24.461218 16.125 23.9375 16.125 C 23.87203 16.125 23.811659 16.11244 23.75 16.125 z M 26.15625 21.90625 C 25.632715 21.90625 25.09375 22.320214 25.09375 22.84375 C 25.09375 23.367285 25.632715 23.78125 26.15625 23.78125 C 26.679786 23.78125 27.125 23.367285 27.125 22.84375 C 27.125 22.320214 26.679786 21.90625 26.15625 21.90625 z M 23.9375 27.46875 C 23.413781 27.46875 23.03125 27.913782 23.03125 28.4375 C 23.03125 28.961217 23.413781 29.375 23.9375 29.375 C 24.461218 29.375 24.90625 28.961217 24.90625 28.4375 C 24.90625 27.913782 24.461218 27.46875 23.9375 27.46875 z M 17.75 30.40625 C 17.226282 30.40625 16.78125 30.851282 16.78125 31.375 C 16.78125 31.898718 17.226282 32.4375 17.75 32.4375 C 18.273717 32.4375 18.6875 31.898718 18.6875 31.375 C 18.6875 30.851282 18.273717 30.40625 17.75 30.40625 z "
   id="path3" />
</svg>